<?xml version="1.0" encoding="UTF-8" standalone="no"?>
<!DOCTYPE svg PUBLIC "-//W3C//DTD SVG 1.1//EN" "http://www.w3.org/Graphics/SVG/1.1/DTD/svg11.dtd">
<svg width="225" height="46" viewBox="0 0 225 46" fill="none" xmlns="http://www.w3.org/2000/svg">
<path fill-rule="evenodd" clip-rule="evenodd" d="M69.2348 13.0449H73.9954L74.9475 15.3673H76.6916L72.367 5.13428H70.8632L66.5386 15.3673H68.2826L69.2348 13.0449ZM72.1089 8.42666L73.4259 11.6301H69.8132L71.1301 8.42666C71.3437 7.86606 71.6106 7.09191 71.6106 7.09191H71.6284C71.6314 7.09191 71.6616 7.18063 71.7089 7.31939C71.802 7.59285 71.9613 8.06066 72.1089 8.42666Z" fill="white"></path>
<path fill-rule="evenodd" clip-rule="evenodd" d="M84.3263 11.7101L86.4886 15.3762L86.4975 15.3673H88.3216L85.8924 11.4076C87.1915 10.9271 87.939 9.88598 87.939 8.45335C87.939 6.43343 86.4619 5.13428 84.0059 5.13428H80.6602V15.3851H82.2797V11.7279H84.0059C84.1216 11.7279 84.2284 11.7279 84.3263 11.7101ZM86.2572 8.46225C86.2572 9.46776 85.5809 10.2864 84.1928 10.2864V10.2953H82.2797V6.66479H84.1928C85.5275 6.66479 86.2572 7.45674 86.2572 8.46225Z" fill="white"></path>
<path d="M100.112 8.06201C99.4979 7.10989 98.3412 6.5226 97.1132 6.5226C94.9954 6.5226 93.4738 8.04421 93.4738 10.251C93.4738 12.4578 95.0488 13.9616 97.1132 13.9616C98.4835 13.9616 99.7204 13.2319 100.299 12.1463L101.918 12.5824C101.055 14.3976 99.2399 15.5633 97.1043 15.5633C94.1678 15.5633 91.792 13.3298 91.792 10.2421C91.792 7.15438 94.1589 4.9209 97.1043 4.9209C99.1064 4.9209 100.833 5.9887 101.758 7.60819L100.103 8.04421L100.112 8.06201Z" fill="white"></path>
<path d="M114.376 5.13428V15.3673H112.757V10.8826H107.756V15.3673H106.136V5.13428H107.756V9.37878H112.757V5.13428H114.376Z" fill="white"></path>
<path d="M119.644 15.3762V5.13428H121.263V15.3673H119.644V15.3762Z" fill="white"></path>
<path d="M133.739 5.13428V6.65589H130.42V15.3673H128.809V6.65589H125.508V5.13428L133.739 5.13428Z" fill="white"></path>
<path d="M145.12 13.8546V15.3762H138.001V5.13428H145.031V6.65589H139.62V9.31649H143.936V10.7491H139.62V13.8457H145.12V13.8546Z" fill="white"></path>
<path d="M157.159 8.06201C156.545 7.10989 155.389 6.5226 154.161 6.5226C152.043 6.5226 150.521 8.04421 150.521 10.251C150.521 12.4578 152.096 13.9616 154.161 13.9616C155.531 13.9616 156.759 13.2319 157.346 12.1463L158.966 12.5824C158.103 14.3976 156.287 15.5633 154.152 15.5633C151.215 15.5633 148.839 13.3298 148.839 10.2421C148.839 7.15438 151.206 4.9209 154.152 4.9209C156.154 4.9209 157.88 5.9887 158.805 7.60819L157.15 8.04421L157.159 8.06201Z" fill="white"></path>
<path d="M170.533 5.13428V6.65589H167.214V15.3673H165.604V6.65589H162.302V5.13428L170.533 5.13428Z" fill="white"></path>
<path d="M183.16 5.13428V11.025C183.16 13.9792 181.54 15.572 178.844 15.572C176.148 15.572 174.546 13.9792 174.546 11.025V5.13428H176.166V11.0161C176.166 13.0805 177.074 14.0771 178.844 14.0771C180.615 14.0771 181.549 13.0805 181.549 11.0161V5.13428H183.16V5.13428Z" fill="white"></path>
<path fill-rule="evenodd" clip-rule="evenodd" d="M191.658 11.7101L193.82 15.3762L193.829 15.3673H195.653L193.224 11.4076C194.523 10.9271 195.271 9.88598 195.271 8.45335C195.271 6.43343 193.793 5.13428 191.337 5.13428H187.992V15.3851H189.611V11.7279H191.337C191.453 11.7279 191.551 11.7279 191.658 11.7101ZM193.589 8.46225C193.589 9.46776 192.912 10.2864 191.524 10.2864V10.2953H189.611V6.66479H191.524C192.859 6.66479 193.589 7.45674 193.589 8.46225Z" fill="white"></path>
<path fill-rule="evenodd" clip-rule="evenodd" d="M201.784 13.0449H206.545L207.497 15.3673H209.241L204.916 5.13428H203.412L199.088 15.3673H200.832L201.784 13.0449ZM204.658 8.42666L205.975 11.6301H202.362L203.679 8.42666C203.893 7.86606 204.16 7.09191 204.16 7.09191H204.178C204.181 7.09191 204.211 7.18063 204.258 7.31939C204.351 7.59285 204.511 8.06066 204.658 8.42666Z" fill="white"></path>
<path d="M220.097 13.8546V15.3762H213.209V5.13428H214.829V13.8457H220.097V13.8546Z" fill="white"></path>
<path d="M78.0798 26.2857C77.626 24.0612 75.7485 22.8154 73.6129 22.8154C71.4773 22.8154 69.8845 23.901 69.8845 25.4938C69.8845 27.398 72.3938 28.0298 74.9565 28.8218C77.804 29.7294 81.3633 31.1264 81.3633 34.8548C81.3633 38.2985 78.3735 40.8078 73.9332 40.8078C69.493 40.8078 66.9036 38.3608 66.0493 34.8815L69.0658 34.054C69.4396 36.1362 71.1748 37.987 74.0489 37.987C76.5849 37.987 78.0621 36.679 78.0621 34.9705C78.0621 32.4968 74.9832 31.9807 72.1714 31.0374C69.84 30.2366 66.6722 29.1332 66.6722 25.654C66.6722 22.5484 69.662 20.0747 73.7642 20.0747C77.4659 20.0747 80.3667 22.2637 81.1142 25.4582L78.0976 26.2857H78.0798Z" fill="white"></path>
<path d="M102.764 20.4751V31.9539C102.764 37.7022 99.6047 40.8078 94.3636 40.8078C89.1224 40.8078 85.9902 37.7022 85.9902 31.9539V20.4751H89.1491V31.9183C89.1491 35.9315 90.911 37.8713 94.3636 37.8713C97.8161 37.8713 99.6314 35.9315 99.6314 31.9183V20.4751L102.764 20.4751Z" fill="white"></path>
<path fill-rule="evenodd" clip-rule="evenodd" d="M115.995 33.262L120.213 40.4073V40.3984H123.773L119.048 32.6836C121.584 31.7493 123.034 29.7294 123.034 26.9353C123.034 23.0111 120.16 20.4751 115.373 20.4751H108.85V40.4073H112.009V33.2887H115.373H115.373C115.595 33.2887 115.8 33.2887 115.995 33.262ZM119.759 26.9442C119.759 28.9107 118.451 30.5035 115.746 30.5035H112.018V23.4382H115.746C118.336 23.4382 119.759 24.9776 119.759 26.9442Z" fill="white"></path>
<path d="M131.808 23.4381V29.222H139.923V32.0695H131.808V40.4161H128.649V20.4839H142.059V23.447H131.808V23.4381Z" fill="white"></path>
<path fill-rule="evenodd" clip-rule="evenodd" d="M147.273 35.8781H156.581L158.432 40.4073H161.822L153.395 20.4751H150.459L142.032 40.4073H145.422L147.273 35.8781ZM152.879 26.8819L155.442 33.1196H155.433H148.403L150.966 26.8819C151.393 25.8052 151.909 24.2925 151.909 24.2925H151.936C151.952 24.2925 152.062 24.608 152.217 25.0542C152.401 25.5823 152.648 26.2935 152.879 26.8819Z" fill="white"></path>
<path d="M179.993 26.1701C178.8 24.3192 176.549 23.1802 174.155 23.1802C170.026 23.1802 167.063 26.1434 167.063 30.4413C167.063 34.7391 170.142 37.6756 174.155 37.6756C176.834 37.6756 179.227 36.2519 180.366 34.143L183.525 34.9972C181.843 38.5298 178.311 40.8078 174.155 40.8078C168.434 40.8078 163.815 36.4476 163.815 30.4413C163.815 24.4349 168.425 20.0747 174.155 20.0747C178.053 20.0747 181.416 22.1569 183.214 25.3158L179.993 26.1701Z" fill="white"></path>
<path d="M202.016 37.4442V40.4073H188.152V20.4751H201.847V23.4382H191.311V28.6171H199.711V31.4111H191.311V37.4442H202.016Z" fill="white"></path>
<path d="M217.686 26.2857C217.232 24.0612 215.354 22.8154 213.219 22.8154C211.083 22.8154 209.49 23.901 209.49 25.4938C209.49 27.398 212 28.0298 214.562 28.8218C217.41 29.7294 220.969 31.1264 220.969 34.8548C220.969 38.2985 217.979 40.8078 213.539 40.8078C209.099 40.8078 206.51 38.3608 205.655 34.8815L208.672 34.054C209.046 36.1362 210.781 37.987 213.655 37.987C216.191 37.987 217.668 36.679 217.668 34.9705C217.668 32.4968 214.589 31.9807 211.777 31.0374C209.446 30.2366 206.278 29.1332 206.278 25.654C206.278 22.5484 209.268 20.0747 213.37 20.0747C217.072 20.0747 219.973 22.2637 220.72 25.4582L217.704 26.2857H217.686Z" fill="white"></path>
<path d="M55.9853 44.456C55.6204 45.1056 54.9442 45.5149 54.2056 45.5238H54.17C53.4403 45.5238 52.773 45.1412 52.3903 44.5183L44.1149 31.0018C44.1149 31.0018 45.8412 30.539 46.6865 30.3344C47.5585 30.1297 48.573 30.3433 49.2759 31.4378C49.6763 32.0607 54.0721 39.2238 54.0721 39.2238C55.7361 35.967 57.5514 31.7403 56.5192 30.0318C56.0742 29.2933 54.4192 28.092 48.3416 28.3234C42.2729 28.5547 32.7428 31.589 23.4886 35.7802C15.1864 39.5441 10.2835 43.148 8.77966 44.0022C7.27584 44.8564 4.3305 45.2213 2.44405 43.9488C-2.6013 40.5586 1.50973 34.1162 2.88007 32.292C4.25041 30.4679 27.4216 0.996612 27.4216 0.996612C27.8043 0.382628 28.4716 0 29.1924 0H29.2102C29.9399 0 30.6072 0.391526 30.981 1.02331L43.8479 22.5395C43.8479 22.5395 42.3797 22.7619 41.0272 23.02C39.6746 23.278 38.9005 22.6195 38.7848 22.406C38.3488 21.5962 29.1657 6.14874 29.1657 6.14874L13.4246 33.1729C13.4246 33.1729 17.6513 31.6691 21.7801 29.9962C33.1433 25.4136 41.6234 24.3636 48.1725 24.1056C52.2213 23.9543 57.8539 24.1678 60.0696 27.834C62.3209 31.5712 60.1764 36.9636 55.9764 44.4471L55.9853 44.456Z" fill="white"></path>
<path fill-rule="evenodd" clip-rule="evenodd" d="M222.606 9.62789C223.959 9.62789 225 8.59569 225 7.26984C225 5.97958 223.941 4.93848 222.606 4.93848C221.271 4.93848 220.204 5.95289 220.204 7.26984C220.204 8.58679 221.254 9.62789 222.606 9.62789ZM222.624 9.13848C221.567 9.13848 220.802 8.31331 220.8 7.27431C220.802 6.24414 221.567 5.41009 222.606 5.41009C223.647 5.41009 224.404 6.26433 224.404 7.28763C224.404 8.31094 223.683 9.13848 222.624 9.13848ZM220.8 7.27431L220.8 7.27874V7.26984L220.8 7.27431ZM222.232 8.49781H221.69V6.16645C221.903 6.12195 222.206 6.09526 222.588 6.09526C223.033 6.09526 223.229 6.16645 223.398 6.26433C223.523 6.36221 223.629 6.54907 223.629 6.78043C223.629 7.03848 223.434 7.23424 223.149 7.32323V7.34992C223.38 7.43891 223.505 7.60797 223.576 7.91941C223.647 8.27535 223.692 8.41772 223.745 8.5067H223.158C223.099 8.43375 223.059 8.27705 223.007 8.07584C222.996 8.03164 222.984 7.98529 222.971 7.93721C222.927 7.67916 222.784 7.56348 222.49 7.56348H222.232V8.49781ZM222.508 7.17196H222.25V6.50458C222.258 6.50345 222.267 6.50218 222.276 6.50082C222.338 6.49145 222.428 6.47789 222.553 6.47789C222.891 6.47789 223.051 6.62026 223.051 6.83382C223.051 7.07407 222.811 7.17196 222.508 7.17196Z" fill="white"></path>
</svg>