<?xml version="1.0" encoding="iso-8859-1"?>
<!-- Uploaded to: SVG Repo, www.svgrepo.com, Generator: SVG Repo Mixer Tools -->
<svg version="1.1" id="Layer_1" xmlns="http://www.w3.org/2000/svg" xmlns:xlink="http://www.w3.org/1999/xlink" 
	 viewBox="0 0 512 512" xml:space="preserve">
<rect x="58.87" y="60.359" style="fill:#72BEDE;" width="394.259" height="235.06"/>
<g>
	<rect x="89.957" y="295.409" style="fill:#F2F2F2;" width="332.095" height="35.432"/>
	<rect x="203.647" y="29.833" style="fill:#F2F2F2;" width="104.705" height="30.524"/>
</g>
<path style="fill:#534741;" d="M453.13,50.155H318.549V29.831c0-5.633-4.567-10.199-10.199-10.199h-42.151v-9.432
	C266.199,4.566,261.632,0,256,0c-5.632,0-10.199,4.566-10.199,10.199v9.432H203.65c-5.632,0-10.199,4.566-10.199,10.199v20.325
	H58.87c-5.632,0-10.199,4.566-10.199,10.199v235.056c0,5.633,4.567,10.199,10.199,10.199h20.884v25.233
	c0,5.633,4.567,10.199,10.199,10.199h28.37L74.802,499.091c-1.495,5.431,1.695,11.046,7.125,12.541
	c0.907,0.25,1.817,0.368,2.714,0.368c4.476,0,8.582-2.97,9.828-7.494l24.74-89.846h126.592v47.059
	c0,5.633,4.567,10.199,10.199,10.199c5.632,0,10.199-4.566,10.199-10.199v-47.059h61.195c5.632,0,10.199-4.566,10.199-10.199
	c0-5.633-4.567-10.199-10.199-10.199h-61.195v-53.219h106.32l45.012,163.464c1.246,4.525,5.352,7.494,9.828,7.494
	c0.896,0,1.807-0.119,2.714-0.368c5.43-1.495,8.62-7.11,7.125-12.541l-43.521-158.048h28.37c5.632,0,10.199-4.566,10.199-10.199
	v-25.233h20.884c5.632,0,10.199-4.566,10.199-10.199V60.355C463.33,54.722,458.763,50.155,453.13,50.155z M213.849,40.03h84.302
	v10.126h-84.302V40.03z M245.801,394.262H124.827l14.654-53.219h106.32V394.262z M411.849,320.644H100.152v-15.034h311.698V320.644z
	 M69.069,285.212V70.554h373.864v214.658H69.069V285.212z"/>
<path style="fill:#F2F2F2;" d="M147.728,90.215c-5.632,0-10.199,4.566-10.199,10.199v154.939c0,5.633,4.567,10.199,10.199,10.199
	h216.545c5.632,0,10.199-4.566,10.199-10.199v-69.884c0-5.633-4.567-10.199-10.199-10.199H340.45v-74.856
	c0-5.633-4.567-10.199-10.199-10.199H147.728z M354.073,195.668v49.485H157.927v-25.366h17.387c5.632,0,10.199-4.566,10.199-10.199
	c0-5.633-4.567-10.199-10.199-10.199h-17.387v-23.95h42.589v23.363c0,5.633,4.567,10.199,10.199,10.199
	c5.632,0,10.199-4.566,10.199-10.199v-67.125c0-5.633-4.567-10.199-10.199-10.199c-5.632,0-10.199,4.566-10.199,10.199v23.363
	h-42.589v-44.428h133.62v64.657h-9.945v-19.685c0-5.633-4.567-10.199-10.199-10.199s-10.199,4.566-10.199,10.199v29.885
	c0,5.633,4.567,10.199,10.199,10.199L354.073,195.668L354.073,195.668z M320.052,175.27h-8.106v-64.657h8.106V175.27z"/>
<path style="fill:#534741;" d="M365.69,394.262h-4.639c-5.632,0-10.199,4.566-10.199,10.199c0,5.633,4.567,10.199,10.199,10.199
	h4.639c5.632,0,10.199-4.566,10.199-10.199C375.889,398.828,371.323,394.262,365.69,394.262z"/>
</svg>