<?xml version="1.0" encoding="iso-8859-1"?>
<!-- Uploaded to: SVG Repo, www.svgrepo.com, Generator: SVG Repo Mixer Tools -->
<svg version="1.1" id="Layer_1" xmlns="http://www.w3.org/2000/svg" xmlns:xlink="http://www.w3.org/1999/xlink" 
	 viewBox="0 0 512 512" xml:space="preserve">
<rect x="120.351" y="52.016" style="fill:#FFAD61;" width="271.299" height="368.191"/>
<rect x="165.288" y="98.932" style="fill:#72BEDE;" width="181.423" height="321.275"/>
<rect x="10.199" y="420.207" style="fill:#F2F2F2;" width="491.602" height="39.777"/>
<g>
	<path style="fill:#534741;" d="M501.801,410.008h-54.566V220.303h25.498v126.47c0,5.633,4.567,10.199,10.199,10.199
		c5.632,0,10.199-4.566,10.199-10.199v-126.47h8.669c5.632,0,10.199-4.566,10.199-10.199s-4.567-10.199-10.199-10.199h-99.952
		V52.016c0-5.633-4.567-10.199-10.199-10.199H120.351c-5.632,0-10.199,4.566-10.199,10.199v147.888H10.199
		C4.567,199.904,0,204.471,0,210.104s4.567,10.199,10.199,10.199h8.669v189.705h-8.669C4.567,410.008,0,414.574,0,420.207v39.777
		c0,5.633,4.567,10.199,10.199,10.199h491.602c5.632,0,10.199-4.566,10.199-10.199v-39.777
		C512,414.574,507.433,410.008,501.801,410.008z M426.837,220.303v189.705h-24.988V220.303H426.837z M130.55,410.008V220.303h24.541
		v189.705H130.55z M175.49,220.303h24.925v189.705H175.49V220.303z M336.51,199.904h-70.821v-90.773h70.821V199.904z
		 M245.291,199.904H175.49v-90.773h69.801V199.904z M220.813,220.303h24.478v189.705h-24.478V220.303z M265.689,220.303h25.498
		v189.705h-25.498V220.303z M311.586,220.303h24.925v189.705h-24.925V220.303z M356.909,220.303h24.541v189.705h-24.541V220.303z
		 M130.55,62.215h250.9v137.689h-24.541V98.932c0-5.633-4.567-10.199-10.199-10.199H165.29c-5.632,0-10.199,4.566-10.199,10.199
		v100.972H130.55V62.215z M110.151,410.008H84.143V220.303h26.008V410.008z M39.267,220.303h24.478v189.705H39.267V220.303z
		 M491.602,430.406v19.379H20.398v-19.379H491.602z"/>
	<path style="fill:#534741;" d="M482.932,369.211c-5.632,0-10.199,4.566-10.199,10.199v7.139c0,5.633,4.567,10.199,10.199,10.199
		c5.632,0,10.199-4.566,10.199-10.199v-7.139C493.132,373.777,488.564,369.211,482.932,369.211z"/>
</g>
</svg>