<?xml version="1.0" encoding="iso-8859-1"?>
<!-- Uploaded to: SVG Repo, www.svgrepo.com, Generator: SVG Repo Mixer Tools -->
<svg version="1.1" id="Layer_1" xmlns="http://www.w3.org/2000/svg" xmlns:xlink="http://www.w3.org/1999/xlink" 
	 viewBox="0 0 512 512" xml:space="preserve">
<rect x="119.28" y="10.199" style="fill:#FFAD61;" width="273.451" height="491.602"/>
<g>
	<rect x="165.228" y="57.116" style="fill:#72BEDE;" width="67.315" height="196.896"/>
	<rect x="279.459" y="57.116" style="fill:#72BEDE;" width="67.315" height="196.896"/>
</g>
<circle style="fill:#F2F2F2;" cx="173.897" cy="309.597" r="15.809"/>
<g>
	<path style="fill:#534741;" d="M392.724,512H119.277c-5.632,0-10.199-4.567-10.199-10.199V10.199
		C109.078,4.567,113.645,0,119.277,0h273.446c5.632,0,10.199,4.567,10.199,10.199v491.602C402.923,507.433,398.356,512,392.724,512z
		 M129.476,491.602h253.047V20.398H129.476V491.602z"/>
	<path style="fill:#534741;" d="M232.542,264.21h-67.315c-5.632,0-10.199-4.567-10.199-10.199V57.116
		c0-5.632,4.567-10.199,10.199-10.199h67.315c5.632,0,10.199,4.567,10.199,10.199v196.896
		C242.742,259.643,238.174,264.21,232.542,264.21z M175.427,243.812h46.916V67.315h-46.916V243.812z"/>
	<path style="fill:#534741;" d="M346.773,264.21h-67.315c-5.632,0-10.199-4.567-10.199-10.199V57.116
		c0-5.632,4.567-10.199,10.199-10.199h67.315c5.632,0,10.199,4.567,10.199,10.199v196.896
		C356.973,259.643,352.405,264.21,346.773,264.21z M289.658,243.812h46.916V67.315h-46.916V243.812z"/>
	<path style="fill:#534741;" d="M173.897,335.605c-14.341,0-26.008-11.667-26.008-26.008c0-14.341,11.667-26.008,26.008-26.008
		c14.341,0,26.008,11.667,26.008,26.008C199.905,323.938,188.238,335.605,173.897,335.605z M173.897,303.987
		c-3.092,0-5.61,2.517-5.61,5.61s2.517,5.61,5.61,5.61s5.61-2.517,5.61-5.61S176.989,303.987,173.897,303.987z"/>
	<path style="fill:#534741;" d="M346.773,472.274c-5.632,0-10.199-4.567-10.199-10.199v-81.594c0-5.632,4.567-10.199,10.199-10.199
		c5.632,0,10.199,4.567,10.199,10.199v81.594C356.973,467.707,352.405,472.274,346.773,472.274z"/>
	<path style="fill:#534741;" d="M346.773,359.063c-5.632,0-10.199-4.567-10.199-10.199v-5.1c0-5.632,4.567-10.199,10.199-10.199
		c5.632,0,10.199,4.567,10.199,10.199v5.1C356.973,354.496,352.405,359.063,346.773,359.063z"/>
</g>
</svg>