<?xml version="1.0" encoding="iso-8859-1"?>
<!-- Uploaded to: SVG Repo, www.svgrepo.com, Generator: SVG Repo Mixer Tools -->
<svg height="800px" width="800px" version="1.1" id="Layer_1" xmlns="http://www.w3.org/2000/svg" xmlns:xlink="http://www.w3.org/1999/xlink" 
	 viewBox="0 0 512 512" xml:space="preserve">
<polygon style="fill:#FFAD61;" points="377.627,216.518 275.945,216.518 333.051,10.199 213.335,10.199 134.373,295.481 
	236.055,295.481 178.949,501.8 "/>
<g>
	<path style="fill:#534741;" d="M178.943,512c-1.461,0-2.937-0.314-4.332-0.969c-4.499-2.113-6.819-7.161-5.493-11.952
		l53.53-193.399h-88.276c-3.186,0-6.188-1.488-8.117-4.024c-1.929-2.534-2.562-5.826-1.712-8.897L203.506,7.478
		C204.729,3.06,208.751,0,213.335,0h119.716c3.185,0,6.188,1.488,8.118,4.024c1.929,2.534,2.562,5.826,1.712,8.897l-53.53,193.399
		h88.276c3.799,0,7.283,2.11,9.041,5.478c1.757,3.368,1.5,7.432-0.671,10.55L187.318,507.629
		C185.358,510.444,182.194,512,178.943,512z M147.779,285.281h88.276c3.186,0,6.188,1.488,8.117,4.024
		c1.929,2.534,2.562,5.826,1.712,8.897l-41.176,148.762l153.386-220.246h-82.149c-3.185,0-6.188-1.488-8.118-4.024
		c-1.929-2.534-2.562-5.826-1.712-8.897l53.532-193.399h-98.552L147.779,285.281z"/>
	<path style="fill:#534741;" d="M261.106,163.394c-0.909,0-1.832-0.122-2.749-0.378c-5.425-1.515-8.595-7.141-7.08-12.566
		l1.423-5.093c1.515-5.425,7.145-8.594,12.566-7.08c5.425,1.515,8.596,7.141,7.08,12.566l-1.423,5.093
		C269.664,160.443,265.567,163.394,261.106,163.394z"/>
	<path style="fill:#534741;" d="M271.075,127.698c-0.909,0-1.832-0.122-2.749-0.378c-5.425-1.516-8.596-7.141-7.08-12.566
		l21.649-77.515c1.515-5.425,7.146-8.591,12.566-7.08c5.425,1.516,8.596,7.141,7.08,12.566l-21.649,77.515
		C279.634,124.747,275.536,127.698,271.075,127.698z"/>
</g>
</svg>