<?xml version="1.0" encoding="iso-8859-1"?>
<!-- Uploaded to: SVG Repo, www.svgrepo.com, Generator: SVG Repo Mixer Tools -->
<svg version="1.1" id="Layer_1" xmlns="http://www.w3.org/2000/svg" xmlns:xlink="http://www.w3.org/1999/xlink" 
	 viewBox="0 0 512 512" xml:space="preserve">
<path style="fill:#F2F2F2;" d="M472.376,403.582H39.624c-16.25,0-29.425-13.174-29.425-29.425V137.842
	c0-16.25,13.174-29.425,29.425-29.425h432.752c16.25,0,29.425,13.174,29.425,29.425v236.316
	C501.801,390.408,488.626,403.582,472.376,403.582z"/>
<rect x="53.036" y="154.008" style="fill:#72BEDE;" width="405.928" height="95.873"/>
<circle style="fill:#FFAD61;" cx="167.267" cy="338.614" r="28.558"/>
<g>
	<path style="fill:#534741;" d="M472.376,98.218H39.624C17.775,98.218,0,115.994,0,137.842v236.316
		c0,21.849,17.775,39.624,39.624,39.624h432.752c21.849,0,39.624-17.775,39.624-39.624V137.842
		C512,115.994,494.225,98.218,472.376,98.218z M491.602,374.158c0,10.601-8.624,19.225-19.226,19.225H39.624
		c-10.601,0-19.226-8.624-19.226-19.225V137.842c0-10.601,8.624-19.226,19.226-19.226h432.752c10.601,0,19.226,8.624,19.226,19.226
		V374.158z"/>
	<path style="fill:#534741;" d="M458.964,143.809H53.036c-5.633,0-10.199,4.566-10.199,10.199v95.873
		c0,5.633,4.566,10.199,10.199,10.199h405.928c5.633,0,10.199-4.566,10.199-10.199v-95.873
		C469.163,148.375,464.597,143.809,458.964,143.809z M448.765,239.681H63.235v-75.474h385.53V239.681z"/>
	<path style="fill:#534741;" d="M458.964,327.394h-7.139c-5.633,0-10.199,4.566-10.199,10.199c0,5.633,4.566,10.199,10.199,10.199
		h7.139c5.633,0,10.199-4.566,10.199-10.199C469.163,331.961,464.597,327.394,458.964,327.394z"/>
	<path style="fill:#534741;" d="M416.128,327.394H204.362c-4.823-15.916-19.625-27.538-37.096-27.538s-32.272,11.622-37.096,27.538
		H53.036c-5.633,0-10.199,4.566-10.199,10.199c0,5.633,4.566,10.199,10.199,10.199h76.582c4.135,16.953,19.442,29.578,37.649,29.578
		s33.515-12.625,37.649-29.578h211.211c5.633,0,10.199-4.566,10.199-10.199C426.327,331.961,421.761,327.394,416.128,327.394z
		 M167.267,356.972c-10.123,0-18.359-8.236-18.359-18.359c0-10.123,8.236-18.359,18.359-18.359s18.359,8.236,18.359,18.359
		C185.626,348.736,177.39,356.972,167.267,356.972z"/>
	<path style="fill:#534741;" d="M90.773,305.466c5.633,0,10.199-4.566,10.199-10.199c0-5.633-4.566-10.199-10.199-10.199H63.235
		c-5.633,0-10.199,4.566-10.199,10.199c0,5.633,4.566,10.199,10.199,10.199H90.773z"/>
	<path style="fill:#534741;" d="M446.215,309.036v-3.57h3.57c5.633,0,10.199-4.566,10.199-10.199
		c0-5.633-4.566-10.199-10.199-10.199h-3.57v-3.57c0-5.633-4.566-10.199-10.199-10.199c-5.633,0-10.199,4.566-10.199,10.199v3.57
		h-3.57c-5.633,0-10.199,4.566-10.199,10.199c0,5.633,4.566,10.199,10.199,10.199h3.57v3.57c0,5.633,4.566,10.199,10.199,10.199
		C441.649,319.235,446.215,314.669,446.215,309.036z"/>
	<path style="fill:#534741;" d="M358.608,229.482h26.233c1.842,0,3.464-2.431,3.464-5.084s-1.622-4.937-3.464-4.937h-19.307v-0.663
		c0-6.706,22.771-11.938,22.771-27.928c0-9.874-8.622-15.254-17.169-15.254c-8.401,0-16.654,5.159-16.654,14.148
		c0,4.643,2.21,5.969,5.159,5.969c3.758,0,6.042-2.063,6.042-4.2c0-4.053,2.579-5.527,5.527-5.527c4.127,0,5.6,2.874,5.6,5.232
		c0,9.359-23.212,15.99-23.212,27.56v7.148C353.597,228.082,356.546,229.482,358.608,229.482z"/>
	<path style="fill:#534741;" d="M408.72,229.925c10.316,0,18.643-4.568,18.643-16.654v-1.4c0-5.969-3.168-9.211-7.517-10.833
		c3.685-1.695,5.674-6.706,5.674-12.085c0-9.948-7.074-13.337-16.433-13.337c-12.675,0-16.801,7.442-16.801,13.191
		c0,3.537,0.663,4.643,5.969,4.643c4.275,0,5.379-1.695,5.379-4.2c0-2.874,1.842-3.758,5.454-3.758c3.021,0,5.453,1.031,5.453,5.306
		c0,5.97-2.948,6.338-5.748,6.338c-2.506,0-3.316,2.21-3.316,4.421s0.811,4.421,3.316,4.421c4.053,0,7.074,0.958,7.074,5.895v1.4
		c0,4.79-1.769,6.632-6.779,6.632c-3.316,0-6.558-0.811-6.558-4.273c0-2.801-1.179-3.832-5.895-3.832
		c-4.053,0-5.453,0.884-5.453,4.201C391.182,222.187,396.045,229.925,408.72,229.925z"/>
</g>
</svg>