<?xml version="1.0" encoding="iso-8859-1"?>
<!-- Uploaded to: SVG Repo, www.svgrepo.com, Generator: SVG Repo Mixer Tools -->
<svg height="800px" width="800px" version="1.1" id="Layer_1" xmlns="http://www.w3.org/2000/svg" xmlns:xlink="http://www.w3.org/1999/xlink" 
	 viewBox="0 0 512.001 512.001" xml:space="preserve">
<polygon style="fill:#FFAD61;" points="501.802,249.854 256.001,36.912 10.201,249.854 82.194,249.854 82.194,475.088 
	429.808,475.088 429.808,249.854 "/>
<path style="fill:#72BEDE;" d="M305.63,283.745c9.204,23.044,27.409,71.848,0,99.257c-27.409,27.409-71.848,27.409-99.258,0
	c-27.409-27.409-9.204-76.213,0-99.257C218.315,253.84,256,164.881,256,164.881S293.685,253.84,305.63,283.745z"/>
<g>
	<path style="fill:#534741;" d="M508.479,242.144l-245.8-212.942c-3.833-3.32-9.524-3.32-13.357,0L3.522,242.144
		c-3.219,2.788-4.366,7.283-2.878,11.273s5.297,6.636,9.557,6.636h61.794v215.036c0,5.632,4.566,10.199,10.199,10.199h347.615
		c5.632,0,10.199-4.567,10.199-10.199V260.053h61.794c4.258,0,8.069-2.646,9.557-6.636
		C512.845,249.428,511.698,244.934,508.479,242.144z M266.201,382.939l28.874-28.874c3.983-3.983,3.983-10.441,0-14.425
		c-3.984-3.982-10.44-3.982-14.425,0l-14.449,14.449v-22.006l18.457-18.458c3.983-3.983,3.983-10.441,0-14.425
		c-3.984-3.982-10.442-3.982-14.425,0l-4.033,4.033v-27.149c0-5.632-4.567-10.199-10.199-10.199
		c-5.633,0-10.199,4.567-10.199,10.199v27.15l-4.034-4.034c-3.983-3.981-10.441-3.982-14.424,0c-3.983,3.983-3.984,10.441,0,14.425
		l18.457,18.458v22.006l-14.449-14.449c-3.983-3.982-10.441-3.982-14.425,0c-3.983,3.983-3.983,10.441,0,14.425l28.874,28.874v9.511
		c-11.807-2.021-23.123-7.564-32.217-16.659c-21.134-21.133-8.831-60.494,2.259-88.263c8.068-20.201,28.182-68.057,40.157-96.445
		c11.974,28.387,32.09,76.244,40.157,96.445c11.091,27.77,23.392,67.131,2.26,88.263c-9.096,9.096-20.412,14.638-32.218,16.659
		L266.201,382.939L266.201,382.939z M429.809,239.655c-5.632,0-10.199,4.567-10.199,10.199v215.035H266.201v-51.832
		c17.065-2.165,33.566-9.765,46.642-22.842c33.081-33.081,10.689-89.146,2.26-110.253c-11.846-29.66-49.332-118.17-49.71-119.06
		c-1.597-3.771-5.295-6.222-9.391-6.222c-4.096,0-7.794,2.45-9.391,6.222c-0.377,0.89-37.863,89.4-49.709,119.06
		c-8.431,21.105-30.823,77.169,2.259,110.253c13.076,13.076,29.578,20.677,46.642,22.842v51.832H92.393V249.854
		c0-5.632-4.566-10.199-10.199-10.199H37.55L256.001,50.406l218.451,189.249H429.809z"/>
	<path style="fill:#534741;" d="M334.439,165.515l66.701,58.638c1.937,1.703,4.339,2.539,6.73,2.539c2.83,0,5.648-1.172,7.665-3.465
		c3.719-4.23,3.304-10.675-0.926-14.394l-66.701-58.638c-4.23-3.719-10.675-3.304-14.394,0.926
		C329.796,155.35,330.209,161.795,334.439,165.515z"/>
	<path style="fill:#534741;" d="M307.759,142.06l3.081,2.708c1.937,1.703,4.339,2.539,6.73,2.539c2.83,0,5.648-1.172,7.665-3.465
		c3.719-4.231,3.304-10.675-0.926-14.394l-3.081-2.708c-4.23-3.719-10.676-3.304-14.394,0.926
		C303.113,131.896,303.529,138.34,307.759,142.06z"/>
</g>
</svg>