<?xml version="1.0" encoding="iso-8859-1"?>
<!-- Uploaded to: SVG Repo, www.svgrepo.com, Generator: SVG Repo Mixer Tools -->
<svg version="1.1" id="Layer_1" xmlns="http://www.w3.org/2000/svg" xmlns:xlink="http://www.w3.org/1999/xlink" 
	 viewBox="0 0 512 512" xml:space="preserve">
<rect x="11.497" y="10.199" style="fill:#FFAD61;" width="428.326" height="169.144"/>
<path style="fill:#72BEDE;" d="M225.661,501.801L225.661,501.801c-15.457,0-27.988-12.531-27.988-27.988V342.395h55.974v131.419
	C253.648,489.27,241.118,501.801,225.661,501.801z"/>
<g>
	<path style="fill:#534741;" d="M500.504,86.395h-50.481V10.199C450.023,4.567,445.457,0,439.824,0H11.497
		C5.864,0,1.298,4.567,1.298,10.199v169.14c0,5.632,4.566,10.199,10.199,10.199h428.326c5.633,0,10.199-4.567,10.199-10.199v-72.545
		h40.282v124.835l-266.423,47.183c-4.871,0.863-8.42,5.096-8.42,10.043v43.342h-17.787c-5.633,0-10.199,4.567-10.199,10.199v131.419
		c0,21.056,17.131,38.186,38.186,38.186c21.056,0,38.187-17.131,38.187-38.186V342.395c0-5.632-4.566-10.199-10.199-10.199h-17.788
		v-34.789l266.423-47.183c4.871-0.863,8.42-5.096,8.42-10.043V96.595C510.703,90.963,506.136,86.395,500.504,86.395z
		 M429.625,169.14H21.696v-30.708h309.667c5.633,0,10.199-4.567,10.199-10.199s-4.566-10.199-10.199-10.199H21.696V20.398h407.927
		V169.14H429.625z M243.448,473.814c0,9.808-7.98,17.787-17.788,17.787s-17.787-7.98-17.787-17.787v-121.22h35.576V473.814z"/>
	<path style="fill:#534741;" d="M372.737,138.432h8.518c5.633,0,10.199-4.567,10.199-10.199s-4.566-10.199-10.199-10.199h-8.518
		c-5.633,0-10.199,4.567-10.199,10.199S367.104,138.432,372.737,138.432z"/>
</g>
</svg>