<?xml version="1.0" encoding="iso-8859-1"?>
<!-- Uploaded to: SVG Repo, www.svgrepo.com, Generator: SVG Repo Mixer Tools -->
<svg version="1.1" id="Layer_1" xmlns="http://www.w3.org/2000/svg" xmlns:xlink="http://www.w3.org/1999/xlink" 
	 viewBox="0 0 512 512" xml:space="preserve">
<rect x="242.2" y="18.379" style="fill:#F2F2F2;" width="36.799" height="124.685"/>
<path style="fill:#FFAD61;" d="M408.284,180.88h-46.959c-15.852-39.819-54.744-67.965-100.214-67.965s-84.363,28.147-100.214,67.965
	H10.199v79.719h150.696c15.852,39.819,54.744,67.965,100.214,67.965c45.47,0,84.363-28.147,100.214-67.965h35.377
	c14.017,0,25.381,11.363,25.381,25.381v52.294h79.719v-63.878C501.801,222.749,459.932,180.88,408.284,180.88z"/>
<g>
	<path style="fill:#72BEDE;" d="M500.779,454.787c0,21.449-17.389,38.838-38.838,38.838s-38.838-17.389-38.838-38.838
		c0-32.351,38.838-70.52,38.838-70.52S500.779,422.436,500.779,454.787z"/>
	<rect x="184.973" y="49.038" style="fill:#72BEDE;" width="151.264" height="30.659"/>
</g>
<g>
	<path style="fill:#534741;" d="M408.284,170.681H368.02c-8.861-18.932-22.547-35.12-39.898-47.107
		c-11.912-8.231-25.074-14.102-38.926-17.481V89.898h47.035c5.632,0,10.199-4.566,10.199-10.199V49.037
		c0-5.633-4.567-10.199-10.199-10.199h-47.035V18.376c0-5.633-4.567-10.199-10.199-10.199h-36.794
		c-5.633,0-10.199,4.566-10.199,10.199v20.463h-47.036c-5.633,0-10.199,4.566-10.199,10.199V79.7
		c0,5.633,4.566,10.199,10.199,10.199h47.036v16.45c-13.477,3.416-26.286,9.198-37.905,17.225
		c-17.35,11.987-31.036,28.175-39.898,47.107H10.199C4.566,170.682,0,175.248,0,180.881V260.6c0,5.633,4.566,10.199,10.199,10.199
		H154.2c8.862,18.932,22.548,35.12,39.898,47.107c19.751,13.646,42.922,20.858,67.012,20.858c24.088,0,47.261-7.213,67.011-20.858
		c17.351-11.987,31.037-28.175,39.898-47.107H396.7c8.371,0,15.182,6.811,15.182,15.182v52.294c0,5.633,4.567,10.199,10.199,10.199
		h79.72c5.632,0,10.199-4.566,10.199-10.199v-63.878C512,217.207,465.473,170.681,408.284,170.681z M252.402,28.575h16.395v10.263
		h-16.395V28.575z M195.167,59.236h130.864v10.263H195.167V59.236z M252.402,89.898h16.395v13.081
		c-2.551-0.164-5.112-0.263-7.686-0.263c-2.918,0-5.822,0.111-8.709,0.321L252.402,89.898L252.402,89.898z M491.602,328.075h-59.321
		V285.98c0-19.619-15.961-35.58-35.58-35.58h-35.377c-4.177,0-7.931,2.547-9.476,6.426c-14.882,37.383-50.499,61.539-90.738,61.539
		c-40.24,0-75.857-24.156-90.738-61.539c-1.545-3.881-5.299-6.427-9.476-6.427H20.398v-59.321h140.497
		c4.177,0,7.931-2.547,9.476-6.427c14.882-37.383,50.499-61.539,90.738-61.539c40.239,0,75.857,24.156,90.738,61.539
		c1.545,3.881,5.3,6.427,9.476,6.427h46.959c45.941,0,83.317,37.376,83.317,83.317v53.678H491.602z"/>
	<path style="fill:#534741;" d="M469.091,376.991c-3.969-3.899-10.331-3.899-14.299,0c-1.71,1.681-41.887,41.584-41.887,77.795
		c0,27.039,21.998,49.037,49.037,49.037s49.037-21.998,49.037-49.037C510.978,418.575,470.8,378.673,469.091,376.991z
		 M461.941,483.425c-15.79,0-28.638-12.847-28.638-28.638c0-18.566,16.91-42.068,28.638-55.56
		c11.73,13.496,28.638,36.996,28.638,55.56C490.58,470.578,477.732,483.425,461.941,483.425z"/>
	<path style="fill:#534741;" d="M123.646,202.364h-4.088c-5.633,0-10.199,4.566-10.199,10.199s4.566,10.199,10.199,10.199h4.088
		c5.633,0,10.199-4.566,10.199-10.199S129.279,202.364,123.646,202.364z"/>
	<path style="fill:#534741;" d="M84.808,202.364H42.904c-5.633,0-10.199,4.566-10.199,10.199s4.566,10.199,10.199,10.199h41.903
		c5.633,0,10.199-4.566,10.199-10.199S90.441,202.364,84.808,202.364z"/>
</g>
</svg>