<?xml version="1.0" encoding="iso-8859-1"?>
<!-- Uploaded to: SVG Repo, www.svgrepo.com, Generator: SVG Repo Mixer Tools -->
<svg height="800px" width="800px" version="1.1" id="Layer_1" xmlns="http://www.w3.org/2000/svg" xmlns:xlink="http://www.w3.org/1999/xlink" 
	 viewBox="0 0 512 512" xml:space="preserve">
<g>
	<path style="fill:#FFAD61;" d="M99.106,501.801L99.106,501.801c-43.325,0-78.447-35.122-78.447-78.447V285.636h156.894v137.718
		C177.553,466.679,142.431,501.801,99.106,501.801z"/>
	<path style="fill:#FFAD61;" d="M256,501.801L256,501.801c-43.325,0-78.447-35.122-78.447-78.447V285.636h156.894v137.718
		C334.447,466.679,299.325,501.801,256,501.801z"/>
	<path style="fill:#FFAD61;" d="M412.894,501.801L412.894,501.801c-43.325,0-78.447-35.122-78.447-78.447V285.636h156.894v137.718
		C491.342,466.679,456.22,501.801,412.894,501.801z"/>
	<path style="fill:#FFAD61;" d="M99.106,364.663L99.106,364.663c-43.325,0-78.447-35.122-78.447-78.447V148.498h156.894v137.718
		C177.553,329.541,142.431,364.663,99.106,364.663z"/>
	<path style="fill:#FFAD61;" d="M256,364.663L256,364.663c-43.325,0-78.447-35.122-78.447-78.447V148.498h156.894v137.718
		C334.447,329.541,299.325,364.663,256,364.663z"/>
	<path style="fill:#FFAD61;" d="M412.894,364.663L412.894,364.663c-43.325,0-78.447-35.122-78.447-78.447V148.498h156.894v137.718
		C491.342,329.541,456.22,364.663,412.894,364.663z"/>
	<path style="fill:#FFAD61;" d="M99.106,226.364L99.106,226.364c-43.325,0-78.447-35.122-78.447-78.447V10.199h156.894v137.718
		C177.553,191.242,142.431,226.364,99.106,226.364z"/>
	<path style="fill:#FFAD61;" d="M256,226.364L256,226.364c-43.325,0-78.447-35.122-78.447-78.447V10.199h156.894v137.718
		C334.447,191.242,299.325,226.364,256,226.364z"/>
	<path style="fill:#FFAD61;" d="M412.894,226.364L412.894,226.364c-43.325,0-78.447-35.122-78.447-78.447V10.199h156.894v137.718
		C491.342,191.242,456.22,226.364,412.894,226.364z"/>
</g>
<g>
	<path style="fill:#534741;" d="M20.658,0c-5.632,0-10.199,4.567-10.199,10.199v413.154c0,48.88,39.767,88.646,88.646,88.646
		c33.997,0,63.581-19.242,78.447-47.404C192.419,492.758,222.003,512,256,512s63.581-19.242,78.447-47.404
		C349.314,492.758,378.897,512,412.894,512c48.88,0,88.646-39.767,88.646-88.646V10.199C501.541,4.567,496.974,0,491.342,0H20.658z
		 M481.142,147.917c0,37.632-30.616,68.248-68.248,68.248s-68.248-30.616-68.248-68.248V20.398h136.496V147.917z M187.752,285.636
		v-81.209c16.273,19.619,40.825,32.138,68.248,32.138c27.423,0,51.975-12.517,68.248-32.138v81.209v0.58
		c0,37.632-30.616,68.248-68.248,68.248s-68.248-30.616-68.248-68.248L187.752,285.636L187.752,285.636z M324.248,147.917
		c0,37.632-30.616,68.248-68.248,68.248s-68.248-30.616-68.248-68.248V20.398h136.496L324.248,147.917L324.248,147.917z
		 M30.858,20.398h136.496v127.519c0,37.632-30.616,68.248-68.248,68.248s-68.248-30.616-68.248-68.248
		C30.858,147.917,30.858,20.398,30.858,20.398z M99.106,236.563c27.423,0,51.975-12.517,68.248-32.138v81.209v0.58
		c0,37.632-30.616,68.248-68.248,68.248s-68.248-30.616-68.248-68.248v-0.58v-81.209C47.131,224.046,71.683,236.563,99.106,236.563z
		 M99.106,491.602c-37.632,0-68.248-30.616-68.248-68.248v-80.629c16.273,19.619,40.825,32.138,68.248,32.138
		s51.975-12.517,68.248-32.138v80.629C167.354,460.986,136.738,491.602,99.106,491.602z M256,491.602
		c-37.632,0-68.248-30.616-68.248-68.248v-80.629c16.273,19.619,40.825,32.138,68.248,32.138c27.423,0,51.975-12.517,68.248-32.138
		v80.629C324.248,460.986,293.632,491.602,256,491.602z M481.142,423.354c0,37.632-30.616,68.248-68.248,68.248
		s-68.248-30.616-68.248-68.248v-80.629c16.273,19.619,40.825,32.138,68.248,32.138c27.423,0,51.975-12.517,68.248-32.138V423.354z
		 M481.142,285.636v0.58c0,37.632-30.616,68.248-68.248,68.248s-68.248-30.616-68.248-68.248v-0.58v-81.209
		c16.273,19.619,40.825,32.138,68.248,32.138c27.423,0,51.975-12.517,68.248-32.138V285.636z"/>
	<path style="fill:#534741;" d="M462.024,98.983c5.632,0,10.199-4.567,10.199-10.199V41.868c0-5.632-4.567-10.199-10.199-10.199
		c-5.632,0-10.199,4.567-10.199,10.199v46.916C451.825,94.416,456.392,98.983,462.024,98.983z"/>
	<path style="fill:#534741;" d="M462.024,139.78c5.632,0,10.199-4.567,10.199-10.199v-10.199c0-5.632-4.567-10.199-10.199-10.199
		c-5.632,0-10.199,4.567-10.199,10.199v10.199C451.825,135.213,456.392,139.78,462.024,139.78z"/>
</g>
</svg>