<?xml version="1.0" encoding="iso-8859-1"?>
<!-- Uploaded to: SVG Repo, www.svgrepo.com, Generator: SVG Repo Mixer Tools -->
<svg version="1.1" id="Layer_1" xmlns="http://www.w3.org/2000/svg" xmlns:xlink="http://www.w3.org/1999/xlink" 
	 viewBox="0 0 512 512" xml:space="preserve">
<rect x="25.206" y="464.543" style="fill:#FFAD61;" width="461.585" height="37.259"/>
<rect x="58.329" y="10.199" style="fill:#F2F2F2;" width="395.352" height="454.344"/>
<path style="fill:#FFAD61;" d="M216.294,50.563H95.583v334.373C198.461,298.147,214.003,112.606,216.294,50.563z"/>
<path style="fill:#72BEDE;" d="M216.294,50.563c-2.292,62.044-17.832,247.585-120.712,334.373v41.314H237.37V50.563H216.294z"/>
<path style="fill:#FFAD61;" d="M416.417,384.935V50.563H295.707C297.997,112.606,313.539,298.147,416.417,384.935z"/>
<path style="fill:#72BEDE;" d="M295.707,50.563H274.63v375.687h141.788v-41.314C313.539,298.147,297.997,112.606,295.707,50.563z"/>
<g>
	<path style="fill:#534741;" d="M486.794,454.344h-22.919V10.199C463.875,4.567,459.309,0,453.676,0H58.324
		c-5.633,0-10.199,4.567-10.199,10.199v444.145H25.206c-5.633,0-10.199,4.567-10.199,10.199v37.258
		c0,5.632,4.566,10.199,10.199,10.199h461.587c5.633,0,10.199-4.567,10.199-10.199v-37.258
		C496.993,458.91,492.427,454.344,486.794,454.344z M68.523,20.398h374.953v433.946H68.523V20.398z M476.595,474.742v16.859H35.406
		v-16.859H476.595z"/>
	<path style="fill:#534741;" d="M95.583,40.363c-5.633,0-10.199,4.567-10.199,10.199v375.687c0,5.632,4.566,10.199,10.199,10.199
		h141.788c5.633,0,10.199-4.567,10.199-10.199V50.563c0-5.632-4.566-10.199-10.199-10.199H95.583z M105.782,60.762h99.842
		c-3.257,61.391-19.51,215.545-99.842,300.493V60.762z M227.172,416.05h-121.39v-26.456c43.97-38.766,76.845-98.796,97.742-178.539
		c15.624-59.618,20.82-116.633,22.529-150.293h1.118V416.05H227.172z"/>
	<path style="fill:#534741;" d="M171.134,78.656c-5.633,0-10.199,4.567-10.199,10.199v31.048c0,5.632,4.566,10.199,10.199,10.199
		s10.199-4.567,10.199-10.199V88.855C181.334,83.223,176.766,78.656,171.134,78.656z"/>
	<path style="fill:#534741;" d="M133.876,77.621c-5.633,0-10.199,4.567-10.199,10.199v133.508c0,5.632,4.566,10.199,10.199,10.199
		c5.633,0,10.199-4.567,10.199-10.199V87.82C144.075,82.188,139.509,77.621,133.876,77.621z"/>
	<path style="fill:#534741;" d="M274.629,40.363c-5.633,0-10.199,4.567-10.199,10.199v375.687c0,5.632,4.566,10.199,10.199,10.199
		h141.788c5.633,0,10.199-4.567,10.199-10.199V50.563c0-5.632-4.566-10.199-10.199-10.199H274.629z M406.218,60.762v300.493
		c-80.332-84.948-96.585-239.102-99.842-300.493L406.218,60.762L406.218,60.762z M284.828,416.05V60.762h1.118
		c1.709,33.66,6.906,90.675,22.529,150.293c20.898,79.742,53.773,139.772,97.742,178.539v26.456L284.828,416.05L284.828,416.05z"/>
	<path style="fill:#534741;" d="M340.866,78.656c-5.633,0-10.199,4.567-10.199,10.199v31.048c0,5.632,4.566,10.199,10.199,10.199
		c5.633,0,10.199-4.567,10.199-10.199V88.855C351.065,83.223,346.499,78.656,340.866,78.656z"/>
	<path style="fill:#534741;" d="M378.124,205.956c-5.633,0-10.199,4.567-10.199,10.199v5.174c0,5.632,4.566,10.199,10.199,10.199
		s10.199-4.567,10.199-10.199v-5.174C388.323,210.522,383.757,205.956,378.124,205.956z"/>
	<path style="fill:#534741;" d="M378.124,77.621c-5.633,0-10.199,4.567-10.199,10.199v95.215c0,5.632,4.566,10.199,10.199,10.199
		s10.199-4.567,10.199-10.199V87.82C388.323,82.188,383.757,77.621,378.124,77.621z"/>
</g>
</svg>