<svg width="64" height="64" viewBox="0 0 64 64" fill="none" xmlns="http://www.w3.org/2000/svg">
<circle cx="32" cy="32" r="32" fill="#1E1E1E"/>
<path d="M49.95 46.8501H46.6618C46.3032 46.227 45.7866 45.7094 45.1642 45.3495C44.5419 44.9896 43.8356 44.8001 43.1167 44.8001C42.3977 44.8001 41.6915 44.9896 41.0691 45.3495C40.4467 45.7094 39.9302 46.227 39.5716 46.8501H35.0452C34.6016 46.0837 33.923 45.4807 33.11 45.1301L37.1942 42.0667H44.4833C45.3892 42.0656 46.2576 41.7053 46.8981 41.0648C47.5386 40.4243 47.8989 39.5559 47.9 38.65V20.9319L51.4 17.4318C51.7823 17.0459 51.9968 16.5247 51.9968 15.9815C51.9968 15.4382 51.7823 14.917 51.4 14.5311L49.4717 12.6082C49.283 12.4158 49.0579 12.2629 48.8096 12.1585C48.5612 12.0541 48.2945 12.0002 48.0251 12H48.0189C47.7487 11.9996 47.4812 12.053 47.2318 12.1569C46.9824 12.2608 46.7561 12.4133 46.5661 12.6054L46.506 12.6649C45.9202 12.2327 45.2113 11.9997 44.4833 12H18.5167C17.6109 12.0011 16.7425 12.3614 16.102 13.0019C15.4615 13.6424 15.1011 14.5108 15.1001 15.4167V38.65C15.1011 39.5559 15.4615 40.4243 16.102 41.0648C16.7425 41.7053 17.6109 42.0656 18.5167 42.0667H25.8058L29.8901 45.1301C29.077 45.4807 28.3985 46.0837 27.9549 46.8501H23.4285C23.0699 46.227 22.5533 45.7094 21.931 45.3495C21.3086 44.9896 20.6023 44.8001 19.8834 44.8001C19.1644 44.8001 18.4582 44.9896 17.8358 45.3495C17.2134 45.7094 16.6969 46.227 16.3383 46.8501H13.0501C12.5064 46.8501 11.9849 47.066 11.6005 47.4505C11.2161 47.8349 11.0001 48.3564 11.0001 48.9001C10.9978 49.1678 11.0495 49.4333 11.152 49.6806C11.2545 49.928 11.4057 50.1522 11.5966 50.3399C11.7852 50.5344 12.0111 50.6888 12.2609 50.7936C12.5107 50.8985 12.7792 50.9517 13.0501 50.9501H16.3383C16.6969 51.5732 17.2134 52.0907 17.8358 52.4506C18.4582 52.8105 19.1644 53 19.8834 53C20.6023 53 21.3086 52.8105 21.931 52.4506C22.5533 52.0907 23.0699 51.5732 23.4285 50.9501H27.9549C28.3136 51.5732 28.8301 52.0907 29.4525 52.4506C30.0749 52.8105 30.7811 53 31.5 53C32.219 53 32.9252 52.8105 33.5476 52.4506C34.17 52.0907 34.6865 51.5732 35.0452 50.9501H39.5716C39.9302 51.5732 40.4467 52.0907 41.0691 52.4506C41.6915 52.8105 42.3977 53 43.1167 53C43.8356 53 44.5419 52.8105 45.1642 52.4506C45.7866 52.0907 46.3032 51.5732 46.6618 50.9501H49.95C50.4937 50.9501 51.0151 50.7341 51.3996 50.3496C51.784 49.9652 52 49.4438 52 48.9001C51.9973 48.3572 51.7805 47.8373 51.3966 47.4535C51.0127 47.0696 50.4929 46.8528 49.95 46.8501ZM13.0501 49.5834C12.9588 49.5836 12.8685 49.5651 12.7847 49.529C12.7009 49.4929 12.6254 49.44 12.5629 49.3736C12.5 49.3119 12.4503 49.2382 12.4166 49.1568C12.3829 49.0754 12.3659 48.9881 12.3667 48.9001C12.3667 48.7188 12.4387 48.545 12.5669 48.4169C12.695 48.2887 12.8688 48.2167 13.0501 48.2167H15.8449C15.7629 48.6686 15.7629 49.1315 15.8449 49.5834H13.0501ZM19.8834 51.6334C19.3428 51.6334 18.8143 51.4731 18.3648 51.1728C17.9153 50.8724 17.565 50.4455 17.3581 49.9461C17.1512 49.4466 17.0971 48.897 17.2026 48.3668C17.308 47.8366 17.5684 47.3496 17.9506 46.9673C18.3329 46.585 18.8199 46.3247 19.3501 46.2192C19.8804 46.1138 20.4299 46.1679 20.9294 46.3748C21.4288 46.5817 21.8557 46.932 22.1561 47.3815C22.4564 47.831 22.6167 48.3595 22.6167 48.9001C22.6167 49.625 22.3287 50.3202 21.8161 50.8328C21.3035 51.3454 20.6083 51.6334 19.8834 51.6334ZM23.9219 49.5834C24.0039 49.1315 24.0039 48.6686 23.9219 48.2167H27.4615C27.3795 48.6686 27.3795 49.1315 27.4615 49.5834H23.9219ZM27.4458 26.35H22.6167C22.4355 26.35 22.2617 26.278 22.1335 26.1499C22.0054 26.0217 21.9334 25.8479 21.9334 25.6667V18.8333C21.9334 18.6521 22.0054 18.4783 22.1335 18.3502C22.2617 18.222 22.4355 18.15 22.6167 18.15H29.45C29.6313 18.15 29.8051 18.222 29.9332 18.3502C30.0614 18.4783 30.1334 18.6521 30.1334 18.8333V21.9412C29.3919 22.4365 28.7673 23.0876 28.3031 23.849C27.839 24.6105 27.5464 25.464 27.4458 26.35ZM31.1638 22.893C31.8875 22.4694 32.7115 22.2474 33.55 22.25C34.4894 22.2508 35.4076 22.5295 36.1891 23.0509C36.0712 23.2329 35.9889 23.4355 35.9465 23.6481L35.3725 26.3651C35.0185 26.397 34.6765 26.5093 34.3725 26.6935C34.0685 26.8776 33.8106 27.1287 33.6184 27.4276L31.1878 31.1826C30.4548 30.7681 29.8446 30.1669 29.4192 29.4401C28.9939 28.7134 28.7685 27.887 28.766 27.045C28.7635 26.2029 28.984 25.3752 29.405 24.6459C29.8261 23.9167 30.4333 23.3119 31.1638 22.893ZM34.767 28.1684C34.8571 28.031 34.9818 27.9197 35.1285 27.8458C35.1574 28.1334 35.2925 28.3998 35.5073 28.5932C35.7221 28.7865 36.0012 28.8928 36.2902 28.8913C36.3731 28.8912 36.4558 28.8825 36.5369 28.8654L36.8423 28.797L40.9095 35.0837C41.0063 35.2309 41.0608 35.4018 41.0674 35.5777C41.0739 35.7537 41.032 35.9282 40.9464 36.0821C40.8613 36.2402 40.7346 36.3721 40.5799 36.4634C40.4253 36.5547 40.2486 36.6019 40.069 36.6H31.131C30.9515 36.6019 30.7748 36.5547 30.6201 36.4634C30.4655 36.3721 30.3387 36.2402 30.2536 36.0821C30.168 35.9284 30.1262 35.7543 30.1325 35.5785C30.1389 35.4028 30.1933 35.2321 30.2899 35.0851L34.767 28.1684ZM36.5362 27.4686L37.171 24.462L39.5408 26.8325L36.5362 27.4686ZM40.7729 26.13L37.8748 23.232L43.6729 17.4339L46.5709 20.3319L40.7729 26.13ZM45.6026 15.5007L48.5007 18.3987L47.5337 19.3657L44.6364 16.4676L45.6026 15.5007ZM48.0189 13.3667C48.1091 13.3611 48.1993 13.3768 48.2824 13.4124C48.3655 13.448 48.439 13.5025 48.4972 13.5717L50.4283 15.4953C50.5563 15.6242 50.6281 15.7984 50.6281 15.9801C50.6281 16.1617 50.5563 16.336 50.4283 16.4649L49.4669 17.4325L46.5689 14.5345L47.5324 13.5717C47.5958 13.5069 47.6715 13.4555 47.755 13.4203C47.8386 13.3851 47.9283 13.3669 48.0189 13.3667ZM26.0334 40.7001H18.5167C17.973 40.7001 17.4516 40.4841 17.0672 40.0996C16.6827 39.7152 16.4667 39.1937 16.4667 38.65V15.4167C16.4667 14.873 16.6827 14.3516 17.0672 13.9671C17.4516 13.5827 17.973 13.3667 18.5167 13.3667H44.4833C44.8464 13.3702 45.2019 13.4707 45.5131 13.6578L37.1307 22.0396C36.3286 21.457 35.3957 21.0802 34.414 20.9422C33.4323 20.8043 32.4317 20.9093 31.5 21.2483V18.8333C31.5 18.2897 31.2841 17.7682 30.8996 17.3838C30.5152 16.9993 29.9937 16.7833 29.45 16.7833H22.6167C22.073 16.7833 21.5516 16.9993 21.1672 17.3838C20.7827 17.7682 20.5667 18.2897 20.5667 18.8333V25.6667C20.5667 26.2104 20.7827 26.7318 21.1672 27.1163C21.5516 27.5007 22.073 27.7167 22.6167 27.7167H27.4506C27.5543 28.6665 27.879 29.5788 28.3987 30.3805C28.9185 31.1822 29.6188 31.851 30.4436 32.3333L29.1419 34.345C28.9103 34.6977 28.7797 35.107 28.7642 35.5286C28.7486 35.9502 28.8488 36.368 29.0537 36.7367C29.2574 37.1096 29.5578 37.4207 29.9234 37.6371C30.289 37.8536 30.7062 37.9675 31.131 37.9667H40.069C40.4939 37.9675 40.9111 37.8536 41.2767 37.6371C41.6423 37.4207 41.9427 37.1096 42.1464 36.7367C42.3511 36.3679 42.4511 35.9501 42.4354 35.5285C42.4198 35.1069 42.2891 34.6977 42.0575 34.345L38.2746 28.5005L40.3629 28.0584C40.7061 27.9877 41.0206 27.8164 41.2662 27.5664L46.5333 22.2985V38.65C46.5333 39.1937 46.3174 39.7152 45.9329 40.0996C45.5485 40.4841 45.027 40.7001 44.4833 40.7001H36.9667C36.8188 40.7001 36.675 40.748 36.5567 40.8367L31.5 44.6292L26.4434 40.8367C26.3251 40.748 26.1812 40.7001 26.0334 40.7001ZM31.5 51.6334C30.9594 51.6334 30.431 51.4731 29.9815 51.1728C29.532 50.8724 29.1816 50.4455 28.9748 49.9461C28.7679 49.4466 28.7138 48.897 28.8192 48.3668C28.9247 47.8366 29.185 47.3496 29.5673 46.9673C29.9495 46.585 30.4366 46.3247 30.9668 46.2192C31.497 46.1138 32.0466 46.1679 32.546 46.3748C33.0455 46.5817 33.4724 46.932 33.7727 47.3815C34.0731 47.831 34.2334 48.3595 34.2334 48.9001C34.2334 49.625 33.9454 50.3202 33.4328 50.8328C32.9202 51.3454 32.225 51.6334 31.5 51.6334ZM35.5385 49.5834C35.6205 49.1315 35.6205 48.6686 35.5385 48.2167H39.0782C38.9962 48.6686 38.9962 49.1315 39.0782 49.5834H35.5385ZM43.1167 51.6334C42.5761 51.6334 42.0476 51.4731 41.5981 51.1728C41.1486 50.8724 40.7983 50.4455 40.5914 49.9461C40.3845 49.4466 40.3304 48.897 40.4359 48.3668C40.5413 47.8366 40.8017 47.3496 41.1839 46.9673C41.5662 46.585 42.0532 46.3247 42.5834 46.2192C43.1136 46.1138 43.6632 46.1679 44.1627 46.3748C44.6621 46.5817 45.089 46.932 45.3894 47.3815C45.6897 47.831 45.85 48.3595 45.85 48.9001C45.85 49.625 45.562 50.3202 45.0494 50.8328C44.5368 51.3454 43.8416 51.6334 43.1167 51.6334ZM49.95 49.5834H47.1552C47.2372 49.1315 47.2372 48.6686 47.1552 48.2167H49.95C50.0412 48.2166 50.1315 48.2351 50.2153 48.2712C50.2991 48.3072 50.3747 48.3601 50.4372 48.4265C50.5001 48.4882 50.5498 48.562 50.5835 48.6433C50.6172 48.7247 50.6341 48.812 50.6333 48.9001C50.6333 49.0813 50.5613 49.2551 50.4332 49.3833C50.305 49.5114 50.1312 49.5834 49.95 49.5834Z" fill="#FBD331"/>
</svg>
