<svg width="64" height="64" viewBox="0 0 64 64" fill="none" xmlns="http://www.w3.org/2000/svg">
<circle cx="32" cy="32" r="32" fill="#1E1E1E"/>
<path d="M44.1875 28.375C46.8413 28.375 49 26.2163 49 23.5625V20.8125C49 18.1588 46.8413 16 44.1875 16H20.8125C18.1588 16 16 18.1588 16 20.8125V23.5625C16 26.2163 18.1588 28.375 20.8125 28.375H21.5V37.3125C21.5 40.7225 24.2775 43.5 27.6875 43.5H31.125V44.1875C31.125 46.8413 33.2838 49 35.9375 49H44.1875C46.8413 49 49 46.8413 49 44.1875V41.4375C49 38.7838 46.8413 36.625 44.1875 36.625H35.9375C33.2838 36.625 31.125 38.7838 31.125 41.4375V42.125H27.6875C25.0338 42.125 22.875 39.9663 22.875 37.3125V28.375H33.5312H44.1875ZM32.5 41.4375C32.5 39.54 34.04 38 35.9375 38H44.1875C46.085 38 47.625 39.54 47.625 41.4375V44.1875C47.625 46.085 46.085 47.625 44.1875 47.625H35.9375C34.04 47.625 32.5 46.085 32.5 44.1875V41.4375ZM17.375 23.5625V20.8125C17.375 18.915 18.915 17.375 20.8125 17.375H44.1875C46.085 17.375 47.625 18.915 47.625 20.8125V23.5625C47.625 25.46 46.085 27 44.1875 27H20.8125C18.915 27 17.375 25.46 17.375 23.5625Z" fill="#FBD331"/>
</svg>
