<svg width="64" height="64" viewBox="0 0 64 64" fill="none" xmlns="http://www.w3.org/2000/svg">
<circle cx="32" cy="32" r="32" fill="#1E1E1E"/>
<path d="M15 27.3748V52.9026C15 53.3148 15.3355 53.6503 15.7477 53.6503H47.8833C48.2956 53.6503 48.6309 53.3148 48.6309 52.9026V27.3748C48.6309 26.9626 48.2956 26.6271 47.8833 26.6271H40.643C42.0965 24.71 42.8892 22.3704 42.8892 19.9432C42.8892 19.6403 42.8764 19.3313 42.8511 19.0247C42.8238 18.6949 42.5418 18.4365 42.2092 18.4365H40.1228V17.363C40.1228 17.061 39.8772 16.8153 39.5752 16.8153H36.8087C36.5068 16.8153 36.2612 17.061 36.2612 17.363V18.4365H33.8105V11.5581C33.8105 11.2504 33.5602 11 33.2524 11H30.3775C30.0697 11 29.8194 11.2504 29.8194 11.5581V18.4365H27.4777V17.363C27.4777 17.061 27.2321 16.8153 26.9301 16.8153H24.1638C23.8618 16.8153 23.6162 17.061 23.6162 17.363V18.4365H21.4219C21.0897 18.4365 20.8077 18.6946 20.7801 19.0243C20.7541 19.3359 20.741 19.6451 20.741 19.9432C20.741 22.3709 21.5339 24.7104 22.9878 26.6271H15.7476C15.3355 26.6271 15 26.9626 15 27.3748ZM15.7477 27.3761L31.4411 27.3754V52.902L15.749 52.9026L15.7477 27.3761ZM47.8837 52.9013L32.19 52.902V27.3754L47.8819 27.3748L47.8837 52.9013ZM37.0101 17.5643H39.3737V18.4365H37.0101V17.5643ZM33.0616 11.7489V13.7428H30.5683V11.7489H33.0616ZM30.5684 14.4917H33.0617V18.4365H30.5684V14.4917ZM24.3652 17.5643H26.7288V18.4365H24.3652V17.5643ZM21.4899 19.9432C21.4899 19.6972 21.4995 19.4427 21.5187 19.1854H23.6162H27.4777H29.8194H33.8105H36.2612H40.1226H42.1123C42.1308 19.4389 42.1401 19.6933 42.1401 19.9432C42.1401 22.4012 41.2677 24.7622 39.6815 26.6271H23.9496C22.3628 24.7628 21.4899 22.4018 21.4899 19.9432Z" fill="#FBD331"/>
<path d="M34.546 37.9663H33.7971V42.3111H34.546V37.9663Z" fill="#FBD331"/>
<path d="M29.8118 37.9663H29.0629V42.3111H29.8118V37.9663Z" fill="#FBD331"/>
</svg>
