<svg width="64" height="64" viewBox="0 0 64 64" fill="none" xmlns="http://www.w3.org/2000/svg">
<circle cx="32" cy="32" r="32" fill="#1E1E1E"/>
<g clip-path="url(#clip0_116_3)">
<path d="M22.4792 28.4167C17.7247 28.4167 14 30.4486 14 33.0417V45.375C14 47.9681 17.7247 50 22.4792 50C27.2337 50 30.9583 47.9681 30.9583 45.375V33.0417C30.9583 30.4486 27.2337 28.4167 22.4792 28.4167ZM22.4792 48.4583C18.3907 48.4583 15.5417 46.8334 15.5417 45.375V41.9001C17.0633 43.0779 19.5808 43.8333 22.4792 43.8333C25.3775 43.8333 27.895 43.0779 29.4167 41.9001V45.375C29.4167 46.8334 26.5677 48.4583 22.4792 48.4583ZM22.4792 42.2917C18.3907 42.2917 15.5417 40.6667 15.5417 39.2083V35.7334C17.0633 36.9112 19.5808 37.6667 22.4792 37.6667C25.3775 37.6667 27.895 36.9112 29.4167 35.7334V39.2083C29.4167 40.6667 26.5677 42.2917 22.4792 42.2917ZM22.4792 36.125C18.3907 36.125 15.5417 34.5001 15.5417 33.0417C15.5417 31.5832 18.3907 29.9583 22.4792 29.9583C26.5677 29.9583 29.4167 31.5832 29.4167 33.0417C29.4167 34.5001 26.5677 36.125 22.4792 36.125ZM44.8333 19.1667H26.3333V26.875H44.8333V19.1667ZM43.2917 25.3333H27.875V20.7083H43.2917V25.3333ZM44.8333 33.0417H43.2917V29.9583H44.8333V33.0417ZM40.2083 33.0417H38.6667V29.9583H40.2083V33.0417ZM35.5833 33.0417H34.0417V29.9583H35.5833V33.0417ZM34.0417 36.125H35.5833V39.2083H34.0417V36.125ZM38.6667 36.125H40.2083V39.2083H38.6667V36.125ZM44.8333 39.2083H43.2917V36.125H44.8333V39.2083ZM34.0417 42.2917H44.8333V43.8333H34.0417V42.2917ZM51 16.8542V50H31.9034C32.4106 49.5267 32.8453 49.0149 33.1799 48.4583H49.4583V16.8542C49.4583 15.5792 48.4208 14.5417 47.1458 14.5417H24.0208C22.7459 14.5417 21.7083 15.5792 21.7083 16.8542V25.3565C21.1826 25.3765 20.6662 25.4104 20.1667 25.4705V16.8542C20.1667 14.7297 21.8949 13 24.0208 13H47.1458C49.2718 13 51 14.7297 51 16.8542Z" fill="#FBD331"/>
</g>
<defs>
<clipPath id="clip0_116_3">
<rect width="37" height="37" fill="white" transform="translate(14 13)"/>
</clipPath>
</defs>
</svg>
