<svg width="64" height="64" viewBox="0 0 64 64" fill="none" xmlns="http://www.w3.org/2000/svg">
<circle cx="32" cy="32" r="32" fill="#1E1E1E"/>
<path d="M13.7 36.2C11.115 36.2 9 34.085 9 31.5C9 28.915 11.115 26.8 13.7 26.8C16.285 26.8 18.4 28.915 18.4 31.5C18.4 34.085 16.285 36.2 13.7 36.2ZM13.7 28.3667C11.9767 28.3667 10.5667 29.7767 10.5667 31.5C10.5667 33.2233 11.9767 34.6333 13.7 34.6333C15.4233 34.6333 16.8333 33.2233 16.8333 31.5C16.8333 29.7767 15.4233 28.3667 13.7 28.3667Z" fill="#FBD331"/>
<path d="M32.5 17.4C29.915 17.4 27.8 15.285 27.8 12.7C27.8 10.115 29.915 7.99998 32.5 7.99998C35.085 7.99998 37.2 10.115 37.2 12.7C37.2 15.285 35.085 17.4 32.5 17.4ZM32.5 9.56668C30.7767 9.56668 29.3667 10.9767 29.3667 12.7C29.3667 14.4233 30.7767 15.8333 32.5 15.8333C34.2233 15.8333 35.6333 14.4233 35.6333 12.7C35.6333 10.9767 34.2233 9.56668 32.5 9.56668Z" fill="#FBD331"/>
<path d="M51.3 36.2C48.715 36.2 46.6 34.085 46.6 31.5C46.6 28.915 48.715 26.8 51.3 26.8C53.885 26.8 56 28.915 56 31.5C56 34.085 53.885 36.2 51.3 36.2ZM51.3 28.3667C49.5767 28.3667 48.1667 29.7767 48.1667 31.5C48.1667 33.2233 49.5767 34.6333 51.3 34.6333C53.0233 34.6333 54.4333 33.2233 54.4333 31.5C54.4333 29.7767 53.0233 28.3667 51.3 28.3667Z" fill="#FBD331"/>
<path d="M32.5 55C29.915 55 27.8 52.885 27.8 50.3C27.8 47.715 29.915 45.6 32.5 45.6C35.085 45.6 37.2 47.715 37.2 50.3C37.2 52.885 35.085 55 32.5 55ZM32.5 47.1667C30.7767 47.1667 29.3667 48.5767 29.3667 50.3C29.3667 52.0233 30.7767 53.4333 32.5 53.4333C34.2233 53.4333 35.6333 52.0233 35.6333 50.3C35.6333 48.5767 34.2233 47.1667 32.5 47.1667Z" fill="#FBD331"/>
<path d="M34.85 47.95L33.7533 47.48C32.97 47.1667 32.03 47.1667 31.2466 47.48L30.15 47.95V42.31C30.15 37.61 26.39 33.85 21.7683 33.85H16.1283L16.5983 32.7533C16.755 32.3616 16.8333 31.8916 16.8333 31.5C16.8333 31.03 16.755 30.6383 16.5983 30.2467L16.1283 29.15H21.7683C26.39 29.15 30.15 25.39 30.15 20.69V15.05L31.2467 15.52C32.03 15.8333 32.97 15.8333 33.7534 15.52L34.85 15.05V20.69C34.85 25.39 38.6883 29.15 43.31 29.15H48.95L48.48 30.2467C48.3233 30.6384 48.245 31.03 48.245 31.5C48.245 31.97 48.3233 32.3617 48.48 32.7533L48.95 33.85H43.31C38.6883 33.85 34.85 37.61 34.85 42.31V47.95ZM32.5 45.6C32.735 45.6 33.0483 45.6 33.2833 45.6783V42.31C33.2833 36.8267 37.7483 32.2833 43.31 32.2833H46.6783C46.6 32.0483 46.6 31.735 46.6 31.5C46.6 31.265 46.6 30.9517 46.6783 30.7167H43.31C37.8267 30.7167 33.2833 26.2517 33.2833 20.69V17.3217C32.735 17.4 32.265 17.4 31.7166 17.3217V20.69C31.7166 26.1733 27.2516 30.7167 21.6899 30.7167H18.3216C18.3999 30.9517 18.3999 31.265 18.3999 31.5C18.3999 31.735 18.3999 32.0483 18.3216 32.2833H21.6899C27.1732 32.2833 31.7166 36.7483 31.7166 42.31V45.6783C32.03 45.6 32.265 45.6 32.5 45.6Z" fill="#FBD331"/>
<path d="M32.5 35.4167C30.3066 35.4167 28.5833 33.6934 28.5833 31.5C28.5833 29.3066 30.3066 27.5833 32.5 27.5833C33.44 27.5833 34.615 27.74 35.4766 28.6016C35.79 28.9149 35.7116 29.3849 35.3983 29.6983C35.085 30.0116 34.615 29.9333 34.3016 29.62C33.9883 29.3067 33.44 29.15 32.5 29.15C31.1683 29.15 30.1499 30.1683 30.1499 31.5C30.1499 32.8317 31.1683 33.85 32.5 33.85C33.44 33.85 33.91 33.6933 34.3016 33.3017C34.615 32.9884 35.085 32.91 35.3983 33.2234C35.7116 33.5367 35.79 34.0067 35.4766 34.3201C34.615 35.26 33.44 35.4167 32.5 35.4167Z" fill="#FBD331"/>
<path d="M21.7683 30.7167C21.455 30.7167 21.2983 30.6384 21.1416 30.4817C20.9849 30.325 20.9066 30.09 20.9849 29.855C21.6899 24.7633 25.8416 20.6117 30.9332 19.9067C31.1682 19.9067 31.4032 19.9067 31.5599 20.0634C31.7166 20.2201 31.7949 20.4551 31.7949 20.6901C31.7167 26.2517 27.2517 30.7167 21.7683 30.7167ZM30.15 21.63C26.4683 22.4917 23.57 25.4683 22.63 29.15C26.5467 28.68 29.68 25.5467 30.15 21.63Z" fill="#FBD331"/>
<path d="M43.3883 30.7167C37.8266 30.7167 33.2833 26.2517 33.2833 20.69C33.2833 20.455 33.3616 20.22 33.5183 20.0633C33.675 19.9066 33.91 19.8283 34.145 19.8283C39.2367 20.5333 43.3883 24.685 44.0933 29.7766C44.0933 30.0116 44.0933 30.2466 43.9366 30.4033C43.78 30.6383 43.6233 30.7167 43.3883 30.7167ZM34.9283 21.63C35.3983 25.5467 38.4533 28.68 42.4483 29.15C41.5083 25.39 38.61 22.4917 34.9283 21.63Z" fill="#FBD331"/>
<path d="M30.9333 43.0933H30.855C25.7633 42.3883 21.6117 38.2366 20.9067 33.145C20.9067 32.91 20.9067 32.675 21.0634 32.5183C21.2201 32.3616 21.4551 32.2833 21.6901 32.2833C27.2518 32.2833 31.7168 36.7483 31.7168 42.31C31.7168 42.545 31.6385 42.78 31.4818 42.9367C31.325 43.015 31.09 43.0933 30.9333 43.0933ZM22.63 33.9283C23.4917 37.61 26.4683 40.5083 30.15 41.4483C29.68 37.4533 26.5467 34.32 22.63 33.9283Z" fill="#FBD331"/>
<path d="M34.0667 43.0933C33.91 43.0933 33.675 43.015 33.5184 42.9366C33.3617 42.7799 33.2834 42.5449 33.2834 42.3099V42.2316C33.2834 36.7483 37.7484 32.2049 43.3101 32.2049C43.5451 32.2049 43.7801 32.2832 43.9368 32.4399C44.0935 32.5966 44.1718 32.8316 44.1718 33.0666C43.4668 38.1583 39.3151 42.3099 34.2235 43.0149C34.145 43.0933 34.145 43.0933 34.0667 43.0933ZM42.37 33.9283C38.4533 34.3983 35.32 37.4533 34.85 41.4483C38.61 40.5083 41.5083 37.61 42.37 33.9283Z" fill="#FBD331"/>
</svg>
