<svg width="64" height="64" viewBox="0 0 64 64" fill="none" xmlns="http://www.w3.org/2000/svg">
<circle cx="32" cy="32" r="32" fill="#1E1E1E"/>
<path d="M24.2535 37.3806H20.8103C20.4539 37.3806 20.1647 37.6697 20.1647 38.0262C20.1647 38.3826 20.4539 38.6718 20.8103 38.6718H24.2535C24.61 38.6718 24.8991 38.3826 24.8991 38.0262C24.8991 37.6697 24.6099 37.3806 24.2535 37.3806Z" fill="#FBD331"/>
<path d="M24.2535 42.5454H20.8103C20.4539 42.5454 20.1647 42.8345 20.1647 43.191C20.1647 43.5474 20.4539 43.8366 20.8103 43.8366H24.2535C24.61 43.8366 24.8991 43.5474 24.8991 43.191C24.8991 42.8345 24.6099 42.5454 24.2535 42.5454Z" fill="#FBD331"/>
<path d="M29.8487 38.6718H32.8615C33.2179 38.6718 33.5071 38.3826 33.5071 38.0262C33.5071 37.6697 33.2179 37.3806 32.8615 37.3806H29.8487C29.4922 37.3806 29.2031 37.6697 29.2031 38.0262C29.2031 38.3826 29.4923 38.6718 29.8487 38.6718Z" fill="#FBD331"/>
<path d="M32.8615 42.5454H29.8487C29.4922 42.5454 29.2031 42.8345 29.2031 43.191C29.2031 43.5474 29.4922 43.8366 29.8487 43.8366H32.8615C33.2179 43.8366 33.5071 43.5474 33.5071 43.191C33.5071 42.8345 33.2178 42.5454 32.8615 42.5454Z" fill="#FBD331"/>
<path d="M24.2535 32.2158H20.8103C20.4539 32.2158 20.1647 32.505 20.1647 32.8614C20.1647 33.2179 20.4539 33.507 20.8103 33.507H24.2535C24.61 33.507 24.8991 33.2179 24.8991 32.8614C24.8991 32.505 24.6099 32.2158 24.2535 32.2158Z" fill="#FBD331"/>
<path d="M48.3544 47.7076H44.6973V43.834H48.3531C48.7096 43.834 48.9987 43.5449 48.9987 43.1884C48.9987 42.832 48.7096 42.5428 48.3531 42.5428H44.6973V38.6692H48.3531C48.7096 38.6692 48.9987 38.3801 48.9987 38.0236C48.9987 37.6672 48.7096 37.378 48.3531 37.378H44.6973V33.507H48.3527C48.7091 33.507 48.9983 33.2178 48.9983 32.8614C48.9983 32.5049 48.7091 32.2158 48.3527 32.2158H44.6973V22.5319C44.6973 22.1755 44.4081 21.8863 44.0517 21.8863C43.6952 21.8863 43.4061 22.1755 43.4061 22.5319V32.2158H38.2414V22.5319C38.2414 22.1755 37.9522 21.8863 37.5958 21.8863C37.2393 21.8863 36.9502 22.1755 36.9502 22.5319V32.2158H29.203V18.228C29.203 17.8715 28.9139 17.5824 28.5574 17.5824C28.201 17.5824 27.9118 17.8715 27.9118 18.228V21.0256H23.1775V18.228C23.1775 17.8715 22.8884 17.5824 22.5319 17.5824C22.1755 17.5824 21.8863 17.8715 21.8863 18.228V21.0256C21.8863 21.0256 16.3593 21.0449 16.2912 21.0689V15.6456C16.2912 15.2892 16.002 15 15.6456 15C15.2892 15 15 15.2892 15 15.6456V47.7101C15 48.4221 15.5792 49.0013 16.2912 49.0013L48.3544 48.9987C48.7113 48.9987 49 48.7096 49 48.3531C49 47.9967 48.7113 47.7076 48.3544 47.7076ZM43.4062 47.7076H38.2414V43.834H43.4061V47.7076H43.4062ZM43.4062 42.5428H38.2414V38.6692H43.4061V42.5428H43.4062ZM43.4062 33.507V37.3781H38.2414V33.507H43.4062ZM27.9118 22.3167V25.7599H23.1775V22.3167H27.9118ZM21.8863 22.3167V25.7599H16.2912V22.2734C16.3593 22.2974 21.8863 22.3167 21.8863 22.3167ZM16.2912 27.0511H27.9119V33.507H36.9502V47.7076L16.2912 47.7101V27.0511Z" fill="#FBD331"/>
</svg>
