<svg width="64" height="64" viewBox="0 0 64 64" fill="none" xmlns="http://www.w3.org/2000/svg">
<circle cx="32" cy="32" r="32" fill="#1E1E1E"/>
<path d="M46.8952 14H44.9194V18.5161H15V49H45.4839H46.8952C48.6068 49 50 47.6073 50 45.8952V17.1048C50 15.3927 48.6068 14 46.8952 14ZM46.8952 47.8709H45.4839H16.1291V19.6452H44.9194V43.9194H45.4839H46.0484H46.8952C47.9847 43.9194 48.8711 44.8056 48.8711 45.8952C48.8709 46.9847 47.9847 47.8709 46.8952 47.8709ZM48.8711 43.5022C48.3337 43.0579 47.6449 42.7903 46.8952 42.7903H46.0484V15.1291H46.8952C47.9847 15.1291 48.8711 16.0153 48.8711 17.1049V43.5022Z" fill="#FBD331"/>
<path d="M42.0285 23.0322H41.2861C40.9795 23.0322 40.6776 23.1123 40.4117 23.2642L37.0128 25.2067C36.9168 25.2615 36.8084 25.2903 36.6984 25.2903H35.6619C35.3809 25.2903 35.1307 25.1018 35.0534 24.8314L34.4206 22.6174C34.2056 21.8644 33.5084 21.3387 32.7254 21.3387H24.1926C24.0373 21.3387 23.8815 21.3596 23.7291 21.4009L18.5569 22.8116C17.7921 23.0199 17.258 23.7187 17.258 24.5113V33.7469C17.258 34.2854 17.499 34.7866 17.919 35.1226L19.9123 36.7173C20.0415 36.8212 20.1245 36.9685 20.1449 37.1328L20.5181 40.1174C20.6287 40.9981 21.38 41.6614 22.2669 41.6614H29.0444C29.3933 41.6614 29.6772 41.9453 29.6772 42.2942V42.9349C29.6772 43.3335 29.8144 43.7241 30.0634 44.0358L30.4789 44.5551L30.5512 44.7442C30.5715 44.7363 30.5902 44.7279 30.6105 44.7199L31.6994 46.081C32.0359 46.501 32.5372 46.742 33.0758 46.742H40.8994C41.8709 46.742 42.6613 45.9516 42.6613 44.9801C42.6613 44.5094 42.4783 44.0667 42.1453 43.7342L41.153 42.7418C41.035 42.6245 40.9678 42.4612 40.9678 42.2948V32.9724C40.9678 32.8532 41.0011 32.7369 41.0638 32.637L43.5223 28.7034C43.6979 28.4234 43.7904 28.1005 43.7904 27.7698V24.7942C43.7903 23.8226 43 23.0322 42.0285 23.0322ZM42.5652 28.105L40.1068 32.0386C39.9312 32.3186 39.8386 32.6415 39.8386 32.9723V42.2941C39.8386 42.7644 40.0215 43.2069 40.3545 43.54L41.3469 44.5324C41.4667 44.6521 41.5321 44.8107 41.5321 44.98C41.5321 45.3289 41.2482 45.6128 40.8993 45.6128H33.0757C32.8821 45.6128 32.7025 45.5264 32.5817 45.3757L31.6801 44.2489C32.0313 44.0734 32.362 43.8853 32.6702 43.6861L32.0572 42.7377C31.7219 42.9545 31.3504 43.1554 30.9547 43.3423L30.9451 43.3304C30.8554 43.218 30.8063 43.0776 30.8063 42.9347V42.294C30.8063 41.3225 30.0159 40.5321 29.0444 40.5321H22.267C21.9486 40.5321 21.6782 40.2938 21.6387 39.9778L21.2655 36.9938C21.2085 36.5353 20.9782 36.1245 20.6186 35.8365L18.6253 34.2418C18.4735 34.1204 18.3871 33.9403 18.3871 33.7467V24.5113C18.3871 24.2268 18.579 23.9756 18.8533 23.9006L24.0243 22.4899C24.0801 22.4752 24.1366 22.4673 24.1925 22.4673H32.7251C33.0062 22.4673 33.2563 22.6558 33.3336 22.9262L33.9664 25.1402C34.1815 25.8938 34.8787 26.4194 35.6617 26.4194H36.6982C37.0047 26.4194 37.3067 26.3392 37.5726 26.1874L40.9715 24.2448C41.0669 24.1901 41.1753 24.1613 41.2854 24.1613H42.0277C42.3772 24.1613 42.6611 24.4452 42.6611 24.7941V27.7696C42.6611 27.8888 42.628 28.0051 42.5652 28.105Z" fill="#FBD331"/>
<path d="M24.1977 24.8912L22.9033 26.1856L21.6089 24.8912L20.8105 25.6895L22.105 26.9839L20.8105 28.2783L21.6089 29.0765L22.9033 27.7821L24.1977 29.0765L24.9959 28.2783L23.7015 26.9839L24.9959 25.6895L24.1977 24.8912Z" fill="#FBD331"/>
<path d="M25.8934 44.7075L26.0458 45.8258C26.8508 45.7162 27.6152 45.5785 28.3174 45.4153L28.0628 44.3157C27.394 44.4709 26.6639 44.6025 25.8934 44.7075Z" fill="#FBD331"/>
<path d="M33.6324 41.3757L34.4921 42.1072C35.0131 41.4947 35.4354 40.7975 35.7465 40.0343L34.701 39.6081C34.4358 40.2601 34.0756 40.8547 33.6324 41.3757Z" fill="#FBD331"/>
<path d="M35.2977 35.4415C35.3135 35.6289 35.3226 35.8203 35.3226 36.0162C35.3226 36.5621 35.2899 37.0848 35.2255 37.5698L36.3444 37.7188C36.4161 37.1842 36.4517 36.6118 36.4517 36.0162C36.4517 35.7871 36.4415 35.5635 36.4223 35.3444L35.2977 35.4415Z" fill="#FBD331"/>
<path d="M21.4564 45.0331L21.4818 46.1616C22.2744 46.1436 23.0427 46.1085 23.7641 46.0578L23.6845 44.9315C22.9806 44.9812 22.2309 45.0151 21.4564 45.0331Z" fill="#FBD331"/>
<path d="M26.1656 27.5348C26.1746 27.5365 27.0519 27.7375 28.2486 28.1975L28.6533 27.1436C27.3742 26.6524 26.4528 26.4425 26.4139 26.4335L26.1656 27.5348Z" fill="#FBD331"/>
<path d="M35.8142 32.9927C35.4981 32.283 35.059 31.6005 34.5085 30.9632L33.6538 31.7017C34.1319 32.2549 34.5119 32.8436 34.7829 33.4527L35.8142 32.9927Z" fill="#FBD331"/>
<path d="M30.246 29.1019C30.9172 29.4581 31.5359 29.8465 32.0851 30.2569L32.7609 29.3525C32.1653 28.9071 31.4975 28.4871 30.7749 28.1043L30.246 29.1019Z" fill="#FBD331"/>
</svg>
