<svg width="64" height="64" viewBox="0 0 64 64" fill="none" xmlns="http://www.w3.org/2000/svg">
<circle cx="32" cy="32" r="32" fill="#1E1E1E"/>
<path d="M23.1736 17.8846C23.5697 17.8846 23.8908 17.5635 23.8908 17.1674C23.8908 16.7713 23.5697 16.4502 23.1736 16.4502C22.7775 16.4502 22.4564 16.7713 22.4564 17.1674C22.4564 17.5635 22.7775 17.8846 23.1736 17.8846Z" fill="#FBD331"/>
<path d="M26.0433 17.8846C26.4394 17.8846 26.7605 17.5635 26.7605 17.1674C26.7605 16.7713 26.4394 16.4502 26.0433 16.4502C25.6472 16.4502 25.326 16.7713 25.326 17.1674C25.326 17.5635 25.6472 17.8846 26.0433 17.8846Z" fill="#FBD331"/>
<path d="M28.913 17.8846C29.3091 17.8846 29.6302 17.5635 29.6302 17.1674C29.6302 16.7713 29.3091 16.4502 28.913 16.4502C28.5168 16.4502 28.1957 16.7713 28.1957 17.1674C28.1957 17.5635 28.5168 17.8846 28.913 17.8846Z" fill="#FBD331"/>
<path d="M34.6519 17.8846C35.048 17.8846 35.3691 17.5635 35.3691 17.1674C35.3691 16.7713 35.048 16.4502 34.6519 16.4502C34.2558 16.4502 33.9347 16.7713 33.9347 17.1674C33.9347 17.5635 34.2558 17.8846 34.6519 17.8846Z" fill="#FBD331"/>
<path d="M37.5217 17.8846C37.9178 17.8846 38.2389 17.5635 38.2389 17.1674C38.2389 16.7713 37.9178 16.4502 37.5217 16.4502C37.1256 16.4502 36.8044 16.7713 36.8044 17.1674C36.8044 17.5635 37.1256 17.8846 37.5217 17.8846Z" fill="#FBD331"/>
<path d="M40.3913 17.8846C40.7875 17.8846 41.1086 17.5635 41.1086 17.1674C41.1086 16.7713 40.7875 16.4502 40.3913 16.4502C39.9952 16.4502 39.6741 16.7713 39.6741 17.1674C39.6741 17.5635 39.9952 17.8846 40.3913 17.8846Z" fill="#FBD331"/>
<path d="M43.261 17.8846C43.6571 17.8846 43.9782 17.5635 43.9782 17.1674C43.9782 16.7713 43.6571 16.4502 43.261 16.4502C42.8649 16.4502 42.5438 16.7713 42.5438 17.1674C42.5438 17.5635 42.8649 17.8846 43.261 17.8846Z" fill="#FBD331"/>
<path d="M21.7392 19.3194C22.1353 19.3194 22.4564 18.9983 22.4564 18.6022C22.4564 18.2061 22.1353 17.885 21.7392 17.885C21.3431 17.885 21.022 18.2061 21.022 18.6022C21.022 18.9983 21.3431 19.3194 21.7392 19.3194Z" fill="#FBD331"/>
<path d="M36.0868 19.3194C36.4829 19.3194 36.804 18.9983 36.804 18.6022C36.804 18.2061 36.4829 17.885 36.0868 17.885C35.6907 17.885 35.3696 18.2061 35.3696 18.6022C35.3696 18.9983 35.6907 19.3194 36.0868 19.3194Z" fill="#FBD331"/>
<path d="M44.6959 19.3194C45.092 19.3194 45.4131 18.9983 45.4131 18.6022C45.4131 18.2061 45.092 17.885 44.6959 17.885C44.2998 17.885 43.9787 18.2061 43.9787 18.6022C43.9787 18.9983 44.2998 19.3194 44.6959 19.3194Z" fill="#FBD331"/>
<path d="M20.3043 20.7543C20.7004 20.7543 21.0215 20.4332 21.0215 20.0371C21.0215 19.641 20.7004 19.3199 20.3043 19.3199C19.9082 19.3199 19.5871 19.641 19.5871 20.0371C19.5871 20.4332 19.9082 20.7543 20.3043 20.7543Z" fill="#FBD331"/>
<path d="M43.261 20.7543C43.6571 20.7543 43.9782 20.4332 43.9782 20.0371C43.9782 19.641 43.6571 19.3199 43.261 19.3199C42.8649 19.3199 42.5438 19.641 42.5438 20.0371C42.5438 20.4332 42.8649 20.7543 43.261 20.7543Z" fill="#FBD331"/>
<path d="M21.7392 22.1891C22.1353 22.1891 22.4564 21.868 22.4564 21.4719C22.4564 21.0758 22.1353 20.7547 21.7392 20.7547C21.3431 20.7547 21.022 21.0758 21.022 21.4719C21.022 21.868 21.3431 22.1891 21.7392 22.1891Z" fill="#FBD331"/>
<path d="M44.6959 22.1891C45.092 22.1891 45.4131 21.868 45.4131 21.4719C45.4131 21.0758 45.092 20.7547 44.6959 20.7547C44.2998 20.7547 43.9787 21.0758 43.9787 21.4719C43.9787 21.868 44.2998 22.1891 44.6959 22.1891Z" fill="#FBD331"/>
<path d="M20.3043 23.6236C20.7004 23.6236 21.0215 23.3025 21.0215 22.9064C21.0215 22.5103 20.7004 22.1891 20.3043 22.1891C19.9082 22.1891 19.5871 22.5103 19.5871 22.9064C19.5871 23.3025 19.9082 23.6236 20.3043 23.6236Z" fill="#FBD331"/>
<path d="M28.913 23.6236C29.3091 23.6236 29.6302 23.3025 29.6302 22.9064C29.6302 22.5103 29.3091 22.1891 28.913 22.1891C28.5168 22.1891 28.1957 22.5103 28.1957 22.9064C28.1957 23.3025 28.5168 23.6236 28.913 23.6236Z" fill="#FBD331"/>
<path d="M36.2215 20.7817C36.2597 20.6592 36.2639 20.5287 36.2338 20.4041C36.2037 20.2794 36.1404 20.1652 36.0505 20.0737L33.0073 17.0305C32.5581 16.9393 32.1378 16.7403 31.7826 16.4506C31.5927 16.4506 31.4106 16.526 31.2764 16.6603C31.1421 16.7946 31.0667 16.9767 31.0667 17.1665C31.0674 17.2689 31.0904 17.37 31.134 17.4626C31.1777 17.5552 31.2409 17.6373 31.3193 17.7031L30.8843 18.1407C30.8185 18.0622 30.7365 17.999 30.6438 17.9553C30.5512 17.9117 30.4502 17.8887 30.3478 17.888C30.1579 17.888 29.9758 17.9634 29.8415 18.0977C29.7072 18.2319 29.6318 18.414 29.6318 18.6039C29.6326 18.7063 29.6556 18.8073 29.6992 18.9C29.7428 18.9926 29.8061 19.0747 29.8845 19.1405L29.4499 19.5747C29.3841 19.4962 29.302 19.433 29.2094 19.3893C29.1167 19.3457 29.0157 19.3227 28.9133 19.322C28.7235 19.322 28.5414 19.3974 28.4071 19.5317C28.2728 19.6659 28.1974 19.848 28.1974 20.0379C28.1989 20.2009 28.2566 20.3584 28.3608 20.4838C28.465 20.6092 28.6093 20.6948 28.7693 20.7261C28.7927 20.8624 28.8561 20.9887 28.9512 21.0891L31.9944 24.1323C32.5092 24.2667 32.9495 24.6 33.2187 25.0588C33.3868 25.0595 33.5498 25.0009 33.6789 24.8932C33.808 24.7855 33.8949 24.6357 33.9244 24.4702C33.9539 24.3048 33.924 24.1342 33.8401 23.9885C33.7562 23.8429 33.6235 23.7315 33.4655 23.6741L33.9856 23.154C34.0266 23.2669 34.0953 23.3677 34.1855 23.447C34.2757 23.5263 34.3845 23.5815 34.5018 23.6076C34.619 23.6337 34.741 23.6298 34.8563 23.5962C34.9716 23.5627 35.0766 23.5005 35.1616 23.4156C35.2465 23.3307 35.3086 23.2257 35.3422 23.1103C35.3758 22.995 35.3797 22.8731 35.3536 22.7558C35.3275 22.6386 35.2723 22.5298 35.193 22.4396C35.1137 22.3493 35.0129 22.2806 34.8999 22.2397L35.4201 21.7196C35.4775 21.8775 35.5888 22.0102 35.7345 22.0941C35.8801 22.1781 36.0507 22.2079 36.2162 22.1784C36.3817 22.149 36.5315 22.062 36.6391 21.9329C36.7468 21.8038 36.8055 21.6409 36.8048 21.4728C36.804 21.3075 36.7452 21.1477 36.6386 21.0214C36.5319 20.8951 36.3843 20.8102 36.2215 20.7817ZM32.4998 22.6094L32.2893 22.3989L30.8574 20.967L30.4737 20.5837L32.4998 18.5517L34.5289 20.5808L32.4998 22.6094Z" fill="#FBD331"/>
<path d="M43.261 23.6236C43.6571 23.6236 43.9782 23.3025 43.9782 22.9064C43.9782 22.5103 43.6571 22.1891 43.261 22.1891C42.8649 22.1891 42.5438 22.5103 42.5438 22.9064C42.5438 23.3025 42.8649 23.6236 43.261 23.6236Z" fill="#FBD331"/>
<path d="M18.8694 25.0584C19.2655 25.0584 19.5866 24.7373 19.5866 24.3412C19.5866 23.9451 19.2655 23.624 18.8694 23.624C18.4733 23.624 18.1522 23.9451 18.1522 24.3412C18.1522 24.7373 18.4733 25.0584 18.8694 25.0584Z" fill="#FBD331"/>
<path d="M21.7392 25.0584C22.1353 25.0584 22.4564 24.7373 22.4564 24.3412C22.4564 23.9451 22.1353 23.624 21.7392 23.624C21.3431 23.624 21.022 23.9451 21.022 24.3412C21.022 24.7373 21.3431 25.0584 21.7392 25.0584Z" fill="#FBD331"/>
<path d="M30.3478 25.0584C30.7439 25.0584 31.065 24.7373 31.065 24.3412C31.065 23.9451 30.7439 23.624 30.3478 23.624C29.9517 23.624 29.6306 23.9451 29.6306 24.3412C29.6306 24.7373 29.9517 25.0584 30.3478 25.0584Z" fill="#FBD331"/>
<path d="M36.0868 25.0584C36.4829 25.0584 36.804 24.7373 36.804 24.3412C36.804 23.9451 36.4829 23.624 36.0868 23.624C35.6907 23.624 35.3696 23.9451 35.3696 24.3412C35.3696 24.7373 35.6907 25.0584 36.0868 25.0584Z" fill="#FBD331"/>
<path d="M44.6959 25.0584C45.092 25.0584 45.4131 24.7373 45.4131 24.3412C45.4131 23.9451 45.092 23.624 44.6959 23.624C44.2998 23.624 43.9787 23.9451 43.9787 24.3412C43.9787 24.7373 44.2998 25.0584 44.6959 25.0584Z" fill="#FBD331"/>
<path d="M48.9789 26.3197L46.1092 14.8414C46.0707 14.6859 45.9811 14.5478 45.8548 14.4493C45.7286 14.3507 45.5729 14.2973 45.4127 14.2977H37.4488C37.2801 13.1054 36.6866 12.014 35.7774 11.2244C34.8682 10.4348 33.7045 10 32.5003 10C31.2961 10 30.1324 10.4348 29.2232 11.2244C28.314 12.014 27.7205 13.1054 27.5518 14.2977H19.5879C19.4278 14.2977 19.2723 14.3512 19.1461 14.4497C19.0199 14.5482 18.9302 14.6861 18.8914 14.8414L16.0217 26.3197C15.995 26.4255 15.9929 26.5359 16.0155 26.6426C16.0381 26.7493 16.0847 26.8495 16.1519 26.9354C16.219 27.0213 16.3049 27.0908 16.403 27.1384C16.5011 27.1861 16.6088 27.2108 16.7178 27.2105H18.8699V49.474C18.8709 50.4183 19.2465 51.3236 19.9142 51.9913C20.5819 52.6591 21.4872 53.0346 22.4315 53.0356H42.5653C43.5096 53.0346 44.4149 52.6591 45.0826 51.9913C45.7504 51.3236 46.1259 50.4183 46.1269 49.474V27.2105H48.279C48.3881 27.2104 48.4957 27.1856 48.5938 27.1378C48.6918 27.09 48.7778 27.0205 48.845 26.9346C48.913 26.8493 48.9605 26.7494 48.9837 26.6428C49.0069 26.5362 49.0053 26.4256 48.9789 26.3197ZM32.4999 11.428C33.3264 11.4289 34.1274 11.7149 34.7676 12.2377C35.4078 12.7604 35.8482 13.488 36.0144 14.2977H34.5214C34.3751 13.8785 34.1021 13.5152 33.7402 13.2581C33.3783 13.0011 32.9453 12.863 32.5014 12.863C32.0574 12.863 31.6245 13.0011 31.2625 13.2581C30.9006 13.5152 30.6276 13.8785 30.4813 14.2977H28.9867C29.1528 13.4882 29.593 12.7608 30.233 12.2381C30.8729 11.7153 31.6736 11.4292 32.4999 11.428ZM42.5687 51.6025H22.4311C21.9897 51.601 21.5597 51.462 21.201 51.2049C20.8422 50.9477 20.5725 50.5852 20.4294 50.1676H44.5699C44.4269 50.5852 44.1573 50.9477 43.7987 51.2049C43.44 51.4621 43.01 51.601 42.5687 51.6025ZM44.6959 48.7328H20.3043V27.2122H23.174V30.7991C23.174 30.9889 23.2494 31.1711 23.3837 31.3053C23.518 31.4396 23.7001 31.515 23.89 31.515H26.7596C26.9495 31.515 27.1316 31.4396 27.2659 31.3053C27.4002 31.1711 27.4756 30.9889 27.4756 30.7991V27.2122H37.5191V30.7991C37.5191 30.9889 37.5945 31.1711 37.7288 31.3053C37.8631 31.4396 38.0452 31.515 38.2351 31.515H41.1048C41.2946 31.515 41.4767 31.4396 41.611 31.3053C41.7453 31.1711 41.8207 30.9889 41.8207 30.7991V27.2122H44.6904V48.7328H44.6959ZM24.6072 20.0371H26.042V30.0806H24.6072V20.0371ZM38.9552 20.0371H40.3901V30.0806H38.9552V20.0371ZM46.8467 25.776C46.8467 25.5858 46.7711 25.4034 46.6366 25.2689C46.5021 25.1344 46.3197 25.0588 46.1295 25.0588C45.9392 25.0588 45.7568 25.1344 45.6223 25.2689C45.4878 25.4034 45.4122 25.5858 45.4122 25.776H43.9774C43.9774 25.5858 43.9018 25.4034 43.7673 25.2689C43.6328 25.1344 43.4504 25.0588 43.2602 25.0588C43.07 25.0588 42.8875 25.1344 42.753 25.2689C42.6185 25.4034 42.543 25.5858 42.543 25.776H41.827V25.0601C42.0172 25.0601 42.1997 24.9845 42.3342 24.85C42.4687 24.7155 42.5442 24.5331 42.5442 24.3429C42.5442 24.1527 42.4687 23.9702 42.3342 23.8357C42.1997 23.7012 42.0172 23.6257 41.827 23.6257V22.1908C42.0173 22.1908 42.1998 22.1152 42.3343 21.9807C42.4689 21.8461 42.5444 21.6637 42.5444 21.4734C42.5444 21.2831 42.4689 21.1006 42.3343 20.9661C42.1998 20.8316 42.0173 20.756 41.827 20.756V19.3199C41.9686 19.3199 42.107 19.2779 42.2248 19.1992C42.3425 19.1205 42.4343 19.0087 42.4885 18.8779C42.5427 18.7471 42.5568 18.6031 42.5292 18.4642C42.5016 18.3254 42.4334 18.1978 42.3333 18.0977C42.2331 17.9975 42.1056 17.9293 41.9667 17.9017C41.8278 17.8741 41.6839 17.8883 41.553 17.9425C41.4222 17.9967 41.3104 18.0884 41.2317 18.2061C41.1531 18.3239 41.1111 18.4623 41.1111 18.6039H39.6762C39.5626 18.3766 39.3965 18.1796 39.1918 18.0291C38.9871 17.8785 38.7495 17.7788 38.4987 17.7381C38.2479 17.6974 37.9909 17.7169 37.7491 17.795C37.5073 17.873 37.2875 18.0075 37.1078 18.1871C36.9281 18.3668 36.7937 18.5866 36.7157 18.8285C36.6376 19.0703 36.6181 19.3272 36.6588 19.578C36.6995 19.8289 36.7992 20.0664 36.9497 20.2711C37.1003 20.4759 37.2973 20.6419 37.5246 20.7556V22.1904C37.3344 22.1904 37.1519 22.266 37.0174 22.4005C36.8829 22.535 36.8074 22.7174 36.8074 22.9076C36.8074 23.0978 36.8829 23.2802 37.0174 23.4148C37.1519 23.5493 37.3344 23.6248 37.5246 23.6248V25.0597C37.3347 25.0597 37.1526 25.1351 37.0183 25.2694C36.8841 25.4036 36.8086 25.5857 36.8086 25.7756H35.3738C35.3738 25.5854 35.2982 25.403 35.1637 25.2685C35.0292 25.134 34.8468 25.0584 34.6566 25.0584C34.4664 25.0584 34.2839 25.134 34.1494 25.2685C34.0149 25.403 33.9394 25.5854 33.9394 25.7756H32.4999C32.4999 25.5854 32.4243 25.403 32.2898 25.2685C32.1553 25.134 31.9729 25.0584 31.7827 25.0584C31.5924 25.0584 31.41 25.134 31.2755 25.2685C31.141 25.403 31.0655 25.5854 31.0655 25.7756H29.6306C29.6306 25.5854 29.555 25.403 29.4205 25.2685C29.286 25.134 29.1036 25.0584 28.9134 25.0584C28.7232 25.0584 28.5407 25.134 28.4062 25.2685C28.2717 25.403 28.1962 25.5854 28.1962 25.7756H27.4802V25.0597C27.6704 25.0597 27.8529 24.9841 27.9874 24.8496C28.1219 24.7151 28.1974 24.5327 28.1974 24.3425C28.1974 24.1522 28.1219 23.9698 27.9874 23.8353C27.8529 23.7008 27.6704 23.6252 27.4802 23.6252V22.1904C27.6705 22.1904 27.853 22.1148 27.9875 21.9803C28.1221 21.8457 28.1976 21.6632 28.1976 21.473C28.1976 21.2827 28.1221 21.1002 27.9875 20.9657C27.853 20.8311 27.6705 20.7556 27.4802 20.7556V19.3199C27.6218 19.3199 27.7603 19.2779 27.878 19.1992C27.9957 19.1205 28.0875 19.0087 28.1417 18.8779C28.1959 18.7471 28.21 18.6031 28.1824 18.4642C28.1548 18.3254 28.0866 18.1978 27.9865 18.0977C27.8864 17.9975 27.7588 17.9293 27.6199 17.9017C27.481 17.8741 27.3371 17.8883 27.2063 17.9425C27.0754 17.9967 26.9636 18.0884 26.8849 18.2061C26.8063 18.3239 26.7643 18.4623 26.7643 18.6039H25.3294C25.2158 18.3766 25.0498 18.1796 24.845 18.0291C24.6403 17.8785 24.4027 17.7788 24.1519 17.7381C23.9011 17.6974 23.6442 17.7169 23.4023 17.795C23.1605 17.873 22.9407 18.0075 22.761 18.1871C22.5813 18.3668 22.4469 18.5866 22.3689 18.8285C22.2908 19.0703 22.2713 19.3272 22.312 19.578C22.3527 19.8289 22.4524 20.0664 22.603 20.2711C22.7535 20.4759 22.9505 20.6419 23.1778 20.7556V22.1904C22.9876 22.1904 22.8052 22.266 22.6706 22.4005C22.5361 22.535 22.4606 22.7174 22.4606 22.9076C22.4606 23.0978 22.5361 23.2802 22.6706 23.4148C22.8052 23.5493 22.9876 23.6248 23.1778 23.6248V25.0597C22.9879 25.0597 22.8058 25.1351 22.6715 25.2694C22.5373 25.4036 22.4618 25.5857 22.4618 25.7756H21.027C21.027 25.5854 20.9514 25.403 20.8169 25.2685C20.6824 25.134 20.5 25.0584 20.3098 25.0584C20.1196 25.0584 19.9371 25.134 19.8026 25.2685C19.6681 25.403 19.5926 25.5854 19.5926 25.7756H18.1581C18.1568 25.6509 18.1225 25.5288 18.0588 25.4216C17.995 25.3145 17.9041 25.226 17.7951 25.1654L18.5595 22.1074C18.6569 22.1589 18.7651 22.1868 18.8754 22.1887C19.0652 22.1915 19.2485 22.1187 19.3847 21.9865C19.5209 21.8542 19.599 21.6732 19.6018 21.4833C19.6046 21.2934 19.5319 21.1102 19.3996 20.974C19.2673 20.8377 19.0863 20.7596 18.8964 20.7568L19.294 19.1674C19.4326 19.0737 19.5317 18.9321 19.5723 18.7698C19.6129 18.6075 19.592 18.4359 19.5138 18.2881L19.7042 17.5266C19.7653 17.6337 19.8534 17.723 19.9597 17.7855C20.0661 17.848 20.1869 17.8816 20.3102 17.8829C20.5004 17.8829 20.6828 17.8073 20.8173 17.6728C20.9519 17.5383 21.0274 17.3559 21.0274 17.1657C21.0274 16.9755 20.9519 16.7931 20.8173 16.6585C20.6828 16.524 20.5004 16.4485 20.3102 16.4485C20.1804 16.4517 20.054 16.4912 19.9455 16.5626L20.1535 15.7313H21.0278C21.0278 15.9215 21.1034 16.104 21.238 16.2386C21.3725 16.3731 21.555 16.4487 21.7453 16.4487C21.9355 16.4487 22.118 16.3731 22.2526 16.2386C22.3871 16.104 22.4627 15.9215 22.4627 15.7313H23.8975C23.8975 15.9215 23.9731 16.1039 24.1076 16.2384C24.2421 16.3729 24.4245 16.4485 24.6147 16.4485C24.805 16.4485 24.9874 16.3729 25.1219 16.2384C25.2564 16.1039 25.332 15.9215 25.332 15.7313H26.7668C26.7668 15.9215 26.8424 16.104 26.9769 16.2386C27.1115 16.3731 27.294 16.4487 27.4842 16.4487C27.6745 16.4487 27.857 16.3731 27.9915 16.2386C28.1261 16.104 28.2017 15.9215 28.2017 15.7313H29.6365C29.6365 15.9215 29.7121 16.1039 29.8466 16.2384C29.9811 16.3729 30.1635 16.4485 30.3537 16.4485C30.5439 16.4485 30.7264 16.3729 30.8609 16.2384C30.9954 16.1039 31.0709 15.9215 31.0709 15.7313H32.4999C32.4999 15.9215 32.5754 16.1039 32.71 16.2384C32.8445 16.3729 33.0269 16.4485 33.2171 16.4485C33.4073 16.4485 33.5897 16.3729 33.7242 16.2384C33.8587 16.1039 33.9343 15.9215 33.9343 15.7313H35.3691C35.3691 15.9215 35.4447 16.1039 35.5792 16.2384C35.7137 16.3729 35.8961 16.4485 36.0864 16.4485C36.2766 16.4485 36.459 16.3729 36.5935 16.2384C36.728 16.1039 36.8036 15.9215 36.8036 15.7313H38.2384C38.2384 15.9215 38.314 16.1039 38.4485 16.2384C38.583 16.3729 38.7654 16.4485 38.9556 16.4485C39.1459 16.4485 39.3283 16.3729 39.4628 16.2384C39.5973 16.1039 39.6729 15.9215 39.6729 15.7313H41.1077C41.1077 15.9215 41.1833 16.104 41.3178 16.2386C41.4524 16.3731 41.6348 16.4487 41.8251 16.4487C42.0154 16.4487 42.1979 16.3731 42.3324 16.2386C42.467 16.104 42.5426 15.9215 42.5426 15.7313H43.9774C43.9774 15.9211 44.0528 16.1033 44.1871 16.2375C44.3214 16.3718 44.5035 16.4472 44.6933 16.4472C44.8036 16.4453 44.9118 16.4175 45.0092 16.3659L45.7736 19.4239C45.6646 19.4846 45.5737 19.573 45.5099 19.6801C45.4462 19.7873 45.4119 19.9094 45.4106 20.0341C45.4113 20.2196 45.4841 20.3976 45.6135 20.5305C45.7429 20.6634 45.9188 20.7409 46.1042 20.7467L46.4925 22.3003C46.3839 22.2292 46.2576 22.1897 46.1278 22.1862C45.9376 22.1862 45.7551 22.2617 45.6206 22.3963C45.4861 22.5308 45.4106 22.7132 45.4106 22.9034C45.4106 23.0936 45.4861 23.276 45.6206 23.4105C45.7551 23.5451 45.9376 23.6206 46.1278 23.6206C46.2511 23.6191 46.3718 23.5854 46.4781 23.523C46.5844 23.4605 46.6725 23.3713 46.7338 23.2643L46.9242 24.0258C46.8459 24.1736 46.8251 24.3452 46.8657 24.5075C46.9063 24.6698 47.0054 24.8114 47.144 24.9051L47.3609 25.7731H46.8467V25.776Z" fill="#FBD331"/>
<path d="M27.4781 42.2762C27.8742 42.2762 28.1953 41.9551 28.1953 41.559C28.1953 41.1629 27.8742 40.8418 27.4781 40.8418C27.082 40.8418 26.7609 41.1629 26.7609 41.559C26.7609 41.9551 27.082 42.2762 27.4781 42.2762Z" fill="#FBD331"/>
<path d="M30.3478 42.2762C30.7439 42.2762 31.065 41.9551 31.065 41.559C31.065 41.1629 30.7439 40.8418 30.3478 40.8418C29.9517 40.8418 29.6306 41.1629 29.6306 41.559C29.6306 41.9551 29.9517 42.2762 30.3478 42.2762Z" fill="#FBD331"/>
<path d="M33.2175 42.2762C33.6136 42.2762 33.9347 41.9551 33.9347 41.559C33.9347 41.1629 33.6136 40.8418 33.2175 40.8418C32.8214 40.8418 32.5002 41.1629 32.5002 41.559C32.5002 41.9551 32.8214 42.2762 33.2175 42.2762Z" fill="#FBD331"/>
<path d="M36.0868 42.2762C36.4829 42.2762 36.804 41.9551 36.804 41.559C36.804 41.1629 36.4829 40.8418 36.0868 40.8418C35.6907 40.8418 35.3696 41.1629 35.3696 41.559C35.3696 41.9551 35.6907 42.2762 36.0868 42.2762Z" fill="#FBD331"/>
<path d="M38.9565 42.2762C39.3526 42.2762 39.6737 41.9551 39.6737 41.559C39.6737 41.1629 39.3526 40.8418 38.9565 40.8418C38.5604 40.8418 38.2393 41.1629 38.2393 41.559C38.2393 41.9551 38.5604 42.2762 38.9565 42.2762Z" fill="#FBD331"/>
<path d="M26.0433 43.711C26.4394 43.711 26.7605 43.3899 26.7605 42.9938C26.7605 42.5977 26.4394 42.2766 26.0433 42.2766C25.6472 42.2766 25.326 42.5977 25.326 42.9938C25.326 43.3899 25.6472 43.711 26.0433 43.711Z" fill="#FBD331"/>
<path d="M28.913 43.711C29.3091 43.711 29.6302 43.3899 29.6302 42.9938C29.6302 42.5977 29.3091 42.2766 28.913 42.2766C28.5168 42.2766 28.1957 42.5977 28.1957 42.9938C28.1957 43.3899 28.5168 43.711 28.913 43.711Z" fill="#FBD331"/>
<path d="M31.7826 43.711C32.1787 43.711 32.4999 43.3899 32.4999 42.9938C32.4999 42.5977 32.1787 42.2766 31.7826 42.2766C31.3865 42.2766 31.0654 42.5977 31.0654 42.9938C31.0654 43.3899 31.3865 43.711 31.7826 43.711Z" fill="#FBD331"/>
<path d="M34.6519 43.711C35.048 43.711 35.3691 43.3899 35.3691 42.9938C35.3691 42.5977 35.048 42.2766 34.6519 42.2766C34.2558 42.2766 33.9347 42.5977 33.9347 42.9938C33.9347 43.3899 34.2558 43.711 34.6519 43.711Z" fill="#FBD331"/>
<path d="M37.5217 43.711C37.9178 43.711 38.2389 43.3899 38.2389 42.9938C38.2389 42.5977 37.9178 42.2766 37.5217 42.2766C37.1256 42.2766 36.8044 42.5977 36.8044 42.9938C36.8044 43.3899 37.1256 43.711 37.5217 43.711Z" fill="#FBD331"/>
<path d="M27.4781 45.1454C27.8742 45.1454 28.1953 44.8243 28.1953 44.4282C28.1953 44.0321 27.8742 43.711 27.4781 43.711C27.082 43.711 26.7609 44.0321 26.7609 44.4282C26.7609 44.8243 27.082 45.1454 27.4781 45.1454Z" fill="#FBD331"/>
<path d="M30.3478 45.1454C30.7439 45.1454 31.065 44.8243 31.065 44.4282C31.065 44.0321 30.7439 43.711 30.3478 43.711C29.9517 43.711 29.6306 44.0321 29.6306 44.4282C29.6306 44.8243 29.9517 45.1454 30.3478 45.1454Z" fill="#FBD331"/>
<path d="M33.2175 45.1454C33.6136 45.1454 33.9347 44.8243 33.9347 44.4282C33.9347 44.0321 33.6136 43.711 33.2175 43.711C32.8214 43.711 32.5002 44.0321 32.5002 44.4282C32.5002 44.8243 32.8214 45.1454 33.2175 45.1454Z" fill="#FBD331"/>
<path d="M36.0868 45.1454C36.4829 45.1454 36.804 44.8243 36.804 44.4282C36.804 44.0321 36.4829 43.711 36.0868 43.711C35.6907 43.711 35.3696 44.0321 35.3696 44.4282C35.3696 44.8243 35.6907 45.1454 36.0868 45.1454Z" fill="#FBD331"/>
<path d="M38.9565 45.1454C39.3526 45.1454 39.6737 44.8243 39.6737 44.4282C39.6737 44.0321 39.3526 43.711 38.9565 43.711C38.5604 43.711 38.2393 44.0321 38.2393 44.4282C38.2393 44.8243 38.5604 45.1454 38.9565 45.1454Z" fill="#FBD331"/>
<path d="M41.7895 34.8753C41.7417 34.7326 41.6502 34.6085 41.528 34.5206C41.4058 34.4326 41.2591 34.3852 41.1085 34.3851H23.8912C23.7407 34.3852 23.594 34.4326 23.4718 34.5206C23.3496 34.6085 23.2581 34.7326 23.2102 34.8753L21.7754 39.1799C21.7397 39.2878 21.7301 39.4026 21.7474 39.5149C21.7646 39.6272 21.8083 39.7338 21.8747 39.826C21.9412 39.9182 22.0286 39.9933 22.1297 40.0452C22.2308 40.0971 22.3427 40.1243 22.4564 40.1245H23.1723V46.5811C23.1723 46.771 23.2477 46.9531 23.382 47.0874C23.5163 47.2216 23.6984 47.2971 23.8883 47.2971H41.1081C41.298 47.2971 41.4801 47.2216 41.6144 47.0874C41.7486 46.9531 41.8241 46.771 41.8241 46.5811V40.1245H42.54C42.6537 40.1243 42.7656 40.0971 42.8667 40.0452C42.9678 39.9933 43.0552 39.9182 43.1216 39.826C43.1881 39.7338 43.2317 39.6272 43.249 39.5149C43.2663 39.4026 43.2567 39.2878 43.221 39.1799L41.7895 34.8753ZM40.3913 42.2761C40.2011 42.2761 40.0187 42.3517 39.8842 42.4862C39.7497 42.6207 39.6741 42.8031 39.6741 42.9934C39.6741 43.1836 39.7497 43.366 39.8842 43.5005C40.0187 43.635 40.2011 43.7106 40.3913 43.7106V45.1454C40.2014 45.1454 40.0193 45.2208 39.8851 45.3551C39.7508 45.4894 39.6754 45.6715 39.6754 45.8614H38.2405C38.2405 45.6712 38.165 45.4887 38.0305 45.3542C37.896 45.2197 37.7135 45.1442 37.5233 45.1442C37.3331 45.1442 37.1507 45.2197 37.0162 45.3542C36.8817 45.4887 36.8061 45.6712 36.8061 45.8614H35.3713C35.3713 45.6712 35.2957 45.4887 35.1612 45.3542C35.0267 45.2197 34.8443 45.1442 34.654 45.1442C34.4638 45.1442 34.2814 45.2197 34.1469 45.3542C34.0124 45.4887 33.9368 45.6712 33.9368 45.8614H32.4999C32.4999 45.6712 32.4243 45.4887 32.2898 45.3542C32.1553 45.2197 31.9729 45.1442 31.7827 45.1442C31.5924 45.1442 31.41 45.2197 31.2755 45.3542C31.141 45.4887 31.0654 45.6712 31.0654 45.8614H29.6306C29.6306 45.6712 29.555 45.4887 29.4205 45.3542C29.286 45.2197 29.1036 45.1442 28.9134 45.1442C28.7232 45.1442 28.5407 45.2197 28.4062 45.3542C28.2717 45.4887 28.1962 45.6712 28.1962 45.8614H26.7613C26.7613 45.6712 26.6858 45.4887 26.5513 45.3542C26.4168 45.2197 26.2343 45.1442 26.0441 45.1442C25.8539 45.1442 25.6715 45.2197 25.537 45.3542C25.4025 45.4887 25.3269 45.6712 25.3269 45.8614H24.611V45.1454C24.8012 45.1454 24.9836 45.0699 25.1181 44.9354C25.2526 44.8009 25.3282 44.6184 25.3282 44.4282C25.3282 44.238 25.2526 44.0556 25.1181 43.9211C24.9836 43.7866 24.8012 43.711 24.611 43.711V42.2761C24.8012 42.2761 24.9836 42.2006 25.1181 42.0661C25.2526 41.9316 25.3282 41.7491 25.3282 41.5589C25.3282 41.3687 25.2526 41.1863 25.1181 41.0518C24.9836 40.9173 24.8012 40.8417 24.611 40.8417V40.1258H25.3269C25.3269 40.316 25.4025 40.4984 25.537 40.6329C25.6715 40.7674 25.8539 40.843 26.0441 40.843C26.2343 40.843 26.4168 40.7674 26.5513 40.6329C26.6858 40.4984 26.7613 40.316 26.7613 40.1258H28.1962C28.1962 40.316 28.2717 40.4984 28.4062 40.6329C28.5407 40.7674 28.7232 40.843 28.9134 40.843C29.1036 40.843 29.286 40.7674 29.4205 40.6329C29.555 40.4984 29.6306 40.316 29.6306 40.1258H31.0654C31.0654 40.316 31.141 40.4984 31.2755 40.6329C31.41 40.7674 31.5924 40.843 31.7827 40.843C31.9729 40.843 32.1553 40.7674 32.2898 40.6329C32.4243 40.4984 32.4999 40.316 32.4999 40.1258H33.9347C33.9347 40.316 34.0103 40.4984 34.1448 40.6329C34.2793 40.7674 34.4617 40.843 34.6519 40.843C34.8421 40.843 35.0246 40.7674 35.1591 40.6329C35.2936 40.4984 35.3691 40.316 35.3691 40.1258H36.804C36.804 40.316 36.8796 40.4984 37.0141 40.6329C37.1486 40.7674 37.331 40.843 37.5212 40.843C37.7114 40.843 37.8939 40.7674 38.0284 40.6329C38.1629 40.4984 38.2384 40.316 38.2384 40.1258H39.6733C39.6733 40.3157 39.7487 40.4978 39.883 40.632C40.0172 40.7663 40.1993 40.8417 40.3892 40.8417V42.2761H40.3913ZM41.1073 38.6892H23.4511L24.408 35.8195H40.5914L41.5482 38.6892H41.1073Z" fill="#FBD331"/>
</svg>
