<svg width="64" height="64" viewBox="0 0 64 64" fill="none" xmlns="http://www.w3.org/2000/svg">
<circle cx="32" cy="32" r="32" fill="#1E1E1E"/>
<path d="M22.094 30.7685C20.2196 28.994 19.0462 26.5055 19.0462 23.75C19.0462 18.374 23.4898 14 28.9514 14C34.413 14 38.8567 18.374 38.8567 23.75C38.8567 26.507 37.6833 28.994 35.8089 30.7685V28.478C36.7659 27.137 37.3328 25.508 37.3328 23.75C37.3328 19.2005 33.5734 15.5 28.9514 15.5C24.3295 15.5 20.5701 19.2005 20.5701 23.75C20.5701 25.5095 21.137 27.1385 22.094 28.478V30.7685ZM32.7612 32.147V22.409C32.7612 20.4995 31.3958 18.8405 29.5854 18.5495C28.4714 18.374 27.3377 18.677 26.4843 19.3925C25.6309 20.1065 25.1417 21.1475 25.1417 22.25V41.1515L22.4048 39.0095C20.8703 37.5995 18.458 37.6805 17.0255 39.188C15.5916 40.6985 15.6723 43.0775 17.1993 44.4875L23.0814 50H25.2911L18.2446 43.397C17.3242 42.548 17.277 41.12 18.138 40.2125C18.9974 39.308 20.4451 39.26 21.4082 40.145L26.6641 44.264V22.25C26.6641 21.59 26.9582 20.9645 27.4702 20.5355C27.9899 20.1005 28.6543 19.925 29.34 20.0315C30.4205 20.204 31.2373 21.227 31.2373 22.4105V33.3515L46.4761 36.6785V50H48V35.474L32.7612 32.147Z" fill="#FBD331"/>
</svg>
