<svg width="64" height="64" viewBox="0 0 64 64" fill="none" xmlns="http://www.w3.org/2000/svg">
<circle cx="32" cy="32" r="32" fill="#1E1E1E"/>
<path d="M30.381 21.0421V23.5625C30.381 24.011 30.7436 24.375 31.1905 24.375C31.6373 24.375 32 24.011 32 23.5625V21.0421C33.8457 20.6651 35.2381 19.0239 35.2381 17.0625C35.2381 14.8216 33.4231 13 31.1905 13C28.9578 13 27.1429 14.8216 27.1429 17.0625C27.1429 19.0255 28.5352 20.6651 30.381 21.0421ZM31.1905 14.625C32.5294 14.625 33.619 15.7186 33.619 17.0625C33.619 18.4064 32.5294 19.5 31.1905 19.5C29.8515 19.5 28.7619 18.4064 28.7619 17.0625C28.7619 15.7186 29.8515 14.625 31.1905 14.625ZM49 51.1875C49 51.636 48.6373 52 48.1905 52C47.7436 52 47.381 51.636 47.381 51.1875C47.381 48.5274 45.7716 46.2702 43.1779 45.2936L34.1679 42.2078C33.8392 42.0956 33.619 41.7853 33.619 41.4375V31.8614C33.619 30.5793 32.7529 29.471 31.605 29.2825C30.8748 29.1688 30.1705 29.3572 29.6184 29.8285C29.0728 30.2932 28.7619 30.9709 28.7619 31.6875V45.3765C28.7619 46.0606 28.3814 46.67 27.7662 46.9674C27.1526 47.2599 26.4402 47.1819 25.9108 46.7561C25.9108 46.7561 23.1325 44.5348 23.1276 44.5283C22.1465 43.615 20.6132 43.6686 19.7033 44.6469C18.7886 45.6284 18.8388 47.177 19.807 48.0886L22.4509 50.609C22.977 51.1111 22.6241 52 21.8971 52C21.6915 52 21.494 51.922 21.345 51.7806L18.6898 49.2651C17.0708 47.7425 16.993 45.1734 18.5182 43.5386C20.0207 41.9234 22.5367 41.8259 24.1687 43.2965C24.1735 43.2997 26.9178 45.4854 26.9178 45.4854L27.1412 45.3781V31.6891C27.1412 30.4964 27.661 29.367 28.5676 28.5935C29.4759 27.82 30.6837 27.4885 31.8624 27.6819C33.7858 27.9955 35.2365 29.7944 35.2365 31.863V40.8574L43.7219 43.7645C46.9859 44.993 49 47.8335 49 51.1875ZM37.7913 28.1044C37.9484 28.1044 38.1038 28.0605 38.2414 27.9663L40.4919 26.4501C41.2237 27.1749 42.2259 27.625 43.3333 27.625C45.566 27.625 47.381 25.8034 47.381 23.5625C47.381 21.3216 45.566 19.5 43.3333 19.5C41.1007 19.5 39.2857 21.3216 39.2857 23.5625C39.2857 24.1085 39.3974 24.6269 39.5917 25.1014L37.3412 26.6175C36.9705 26.8661 36.8701 27.3715 37.1194 27.7436C37.2765 27.9792 37.5323 28.1044 37.7913 28.1044ZM43.3333 21.125C44.6723 21.125 45.7619 22.2186 45.7619 23.5625C45.7619 24.9064 44.6723 26 43.3333 26C41.8859 26 40.9048 25.0153 40.9048 23.5625C40.9048 22.2186 41.9944 21.125 43.3333 21.125ZM21.889 26.4501L24.1395 27.9663C24.2771 28.0605 24.4342 28.1044 24.5896 28.1044C24.8487 28.1044 25.1045 27.9792 25.2615 27.7436C25.5109 27.3715 25.4121 26.8661 25.0397 26.6175L22.7892 25.1014C22.9835 24.6252 23.0952 24.1069 23.0952 23.5625C23.0952 21.3216 21.2803 19.5 19.0476 19.5C16.815 19.5 15 21.3216 15 23.5625C15 25.8034 16.815 27.625 19.0476 27.625C20.155 27.625 21.1572 27.1749 21.889 26.4501ZM16.619 23.5625C16.619 22.2186 17.7087 21.125 19.0476 21.125C20.3866 21.125 21.4762 22.2186 21.4762 23.5625C21.4762 24.765 20.8529 26 19.0476 26C17.7087 26 16.619 24.9064 16.619 23.5625Z" fill="#FBD331"/>
</svg>
