<svg width="64" height="64" viewBox="0 0 64 64" fill="none" xmlns="http://www.w3.org/2000/svg">
<circle cx="32" cy="32" r="32" fill="#1E1E1E"/>
<path d="M48.6191 32.7942H44.8117V27.4081C44.8117 24.1549 42.1652 21.5082 38.9118 21.5082H33.9844C30.7312 21.5082 28.0845 24.1547 28.0845 27.4081V28.6564H25.9455L25.9416 27.8728C25.93 25.0882 23.6549 22.8246 20.8721 22.8246C18.0758 22.8246 15.8025 25.0997 15.8025 27.8942V37.9278C15.8025 39.6157 17.1753 40.9885 18.8632 40.9885H19.7712L17.9103 51.8838C17.8442 52.2727 18.1048 52.6402 18.4937 52.7063C18.5345 52.7141 18.5754 52.718 18.6142 52.718C18.9565 52.718 19.256 52.4729 19.3162 52.1249L21.218 40.9906H25.4512V52.3195C25.4512 52.7123 25.7701 53.0312 26.1629 53.0312H46.7299C46.9205 53.0312 47.0994 52.9573 47.2335 52.8212C47.3658 52.689 47.4435 52.5062 47.4435 52.3176V38.0547H48.618C49.0108 38.0547 49.3297 37.7358 49.3297 37.343V33.5045C49.3317 33.1137 49.0147 32.7948 48.618 32.7948L48.6191 32.7942ZM29.5121 27.4081C29.5121 24.9424 31.5188 22.9337 33.9865 22.9337H38.9139C41.3795 22.9337 43.3882 24.9404 43.3882 27.4081V32.7942H41.0664V29.9902C41.0664 29.5974 40.7475 29.2785 40.3547 29.2785C39.9619 29.2785 39.643 29.5974 39.643 29.9902V32.7942H32.8023C33.0395 32.3353 33.1601 31.7986 33.1212 31.227C33.024 29.7861 31.7756 28.6563 30.2783 28.6563H29.5141L29.5121 27.4081ZM18.8657 39.5653C17.9634 39.5653 17.2303 38.8302 17.2303 37.9299V27.8983C17.2303 25.8876 18.8637 24.2543 20.8744 24.2543C22.8753 24.2543 24.5106 25.8818 24.5184 27.8828L24.5242 29.3762C24.5242 29.7689 24.8431 30.0859 25.2359 30.0859H30.2761C31.0112 30.0859 31.6489 30.6421 31.6956 31.3246C31.7462 32.0713 31.3184 32.6858 30.6786 32.781C30.6631 32.783 30.6534 32.7927 30.6398 32.7966H24.2814C24.2697 32.7966 24.2619 32.8024 24.2503 32.8024H22.6947V27.0389C22.6947 26.6461 22.3758 26.3272 21.983 26.3272C21.5882 26.3272 21.2712 26.6461 21.2712 27.0389V33.5143C21.2712 33.9071 21.5901 34.226 21.983 34.226H23.5697V37.345C23.5697 37.7378 23.8886 38.0567 24.2814 38.0567H25.4559V39.5656L18.8657 39.5653ZM46.0211 51.6075H26.8792V38.0579H46.0211V51.6075ZM47.9073 36.6328H24.9911V34.2215H44.0668C44.0784 34.2215 44.0862 34.2274 44.0979 34.2274C44.1095 34.2274 44.1173 34.2215 44.129 34.2215H47.9052L47.9073 36.6328Z" fill="#FBD331"/>
<path d="M36.4504 19.1496C39.1144 19.1496 41.2845 16.9814 41.2845 14.3155C41.2845 11.6515 39.1163 9.48148 36.4504 9.48148C33.7864 9.48148 31.6163 11.6496 31.6163 14.3155C31.6163 16.9815 33.7845 19.1496 36.4504 19.1496ZM36.4504 10.9086C38.3288 10.9086 39.8572 12.437 39.8572 14.3154C39.8572 16.1938 38.3288 17.7222 36.4504 17.7222C34.572 17.7222 33.0436 16.1938 33.0436 14.3154C33.0416 12.437 34.57 10.9086 36.4504 10.9086Z" fill="#FBD331"/>
<path d="M20.8728 21.6714C23.4318 21.6714 25.5125 19.5908 25.5125 17.0318C25.5125 14.4728 23.4318 12.3922 20.8728 12.3922C18.3139 12.3922 16.2332 14.4728 16.2332 17.0318C16.2313 19.5908 18.3139 21.6714 20.8728 21.6714ZM20.8728 13.8177C22.6462 13.8177 24.0871 15.2605 24.0871 17.032C24.0871 18.8054 22.6443 20.2462 20.8728 20.2462C19.1014 20.2462 17.6586 18.8034 17.6586 17.032C17.6586 15.2586 19.1014 13.8177 20.8728 13.8177Z" fill="#FBD331"/>
<path d="M29.4752 48.8054C29.4947 48.8093 29.5141 48.8151 29.5336 48.8171C29.555 48.819 29.5725 48.8287 29.5938 48.8287C29.6288 48.8287 29.658 48.8132 29.6911 48.8093C29.7261 48.8054 29.7611 48.8132 29.7961 48.8054C30.0605 48.8054 30.2744 49.0154 30.2744 49.276C30.2744 49.6688 30.5933 49.9877 30.9861 49.9877H42.1129C42.5057 49.9877 42.8246 49.6688 42.8246 49.276C42.8246 49.0174 43.0385 48.8054 43.303 48.8054C43.6957 48.8054 44.0147 48.4865 44.0147 48.0937V41.8752C44.0147 41.4824 43.6958 41.1635 43.303 41.1635C43.0385 41.1635 42.8246 40.9535 42.8246 40.6929C42.8246 40.3001 42.5057 39.9812 42.1129 39.9812L30.784 39.9793C30.3912 39.9793 30.0723 40.2982 30.0723 40.691C30.0723 40.9496 29.8584 41.1616 29.594 41.1616C29.2012 41.1616 28.8823 41.4805 28.8823 41.8733V48.1171C28.8823 48.4691 29.1388 48.7471 29.4752 48.8054ZM31.3517 41.4046H41.5451C41.7395 41.8772 42.1167 42.2524 42.5912 42.443V47.524C42.1168 47.7165 41.7396 48.0918 41.5451 48.5624L31.5543 48.5643C31.3365 48.0296 30.8698 47.6465 30.3078 47.4851V42.4449C30.7823 42.2504 31.1591 41.8752 31.3517 41.4046Z" fill="#FBD331"/>
</svg>
