<svg width="64" height="64" viewBox="0 0 64 64" fill="none" xmlns="http://www.w3.org/2000/svg">
<circle cx="32" cy="32" r="32" fill="#1E1E1E"/>
<path d="M27.6494 21.474C27.8654 21.2582 27.9425 20.9192 27.8191 20.6418C27.6957 20.3644 27.4181 20.1641 27.1096 20.1641H22.4827C21.2026 20.1641 20.1692 21.1966 20.1692 22.4756V39.4269C20.1692 40.706 21.2026 41.7384 22.4827 41.7384H28.6519C29.0838 41.7384 29.4231 41.3994 29.4231 40.9679C29.4231 40.5364 29.0838 40.1974 28.6519 40.1974H22.4827C22.0509 40.1974 21.7115 39.8584 21.7115 39.4269V27.4223L27.6494 21.4894V21.474ZM21.7115 22.4756C21.7115 22.0441 22.0509 21.7051 22.4827 21.7051H25.2434L21.7115 25.2341V22.4756ZM40.2193 28.6397V22.4756C40.2193 22.0441 39.8799 21.7051 39.4481 21.7051H36.1013C35.4998 21.7051 34.8983 21.9517 34.4664 22.3832L28.5594 28.2853C28.1276 28.7168 27.8808 29.3024 27.8808 29.9188V33.2628C27.8808 33.6943 28.2201 34.0333 28.6519 34.0333H30.1942C30.6261 34.0333 30.9654 34.3723 30.9654 34.8038C30.9654 35.2353 30.6261 35.5743 30.1942 35.5743H28.6519C27.3718 35.5743 26.3385 34.5419 26.3385 33.2628V29.9188C26.3385 28.8863 26.7395 27.9155 27.4644 27.1912L33.3714 21.289C34.0963 20.5648 35.0679 20.1641 36.1013 20.1641H39.4481C40.7282 20.1641 41.7616 21.1966 41.7616 22.4756V28.6397C41.7616 29.0712 41.4223 29.4102 40.9904 29.4102C40.5586 29.4102 40.2193 29.0712 40.2193 28.6397ZM34.8212 27.8692C35.253 27.8692 35.5923 28.2082 35.5923 28.6397V30.1808C35.5923 30.6122 35.253 30.9513 34.8212 30.9513C34.3893 30.9513 34.05 30.6122 34.05 30.1808V28.6397C34.05 28.2082 34.3893 27.8692 34.8212 27.8692ZM32.5077 47.132C32.5077 47.5635 32.1684 47.9025 31.7366 47.9025H20.9404C17.1155 47.9025 14 44.7897 14 40.9679V20.9346C14 17.1129 17.1155 14 20.9404 14H40.9904C44.8153 14 47.9308 17.1129 47.9308 20.9346V31.7218C47.9308 32.1533 47.5915 32.4923 47.1597 32.4923C46.7278 32.4923 46.3885 32.1533 46.3885 31.7218V20.9346C46.3885 17.9604 43.9671 15.541 40.9904 15.541H20.9404C17.9637 15.541 15.5423 17.9604 15.5423 20.9346V40.9679C15.5423 43.9421 17.9637 46.3615 20.9404 46.3615H31.7366C32.1684 46.3615 32.5077 46.7005 32.5077 47.132ZM50.7841 49.6747L46.188 45.0825C47.283 43.7572 47.9308 42.0621 47.9308 40.2128C47.9308 35.9596 44.476 32.5077 40.2193 32.5077C35.9625 32.5077 32.5077 35.9596 32.5077 40.2128C32.5077 44.4661 35.9625 47.918 40.2193 47.918C42.07 47.918 43.7666 47.2707 45.093 46.1766L49.689 50.7688C49.8433 50.9229 50.0438 51 50.2288 51C50.4139 51 50.6298 50.9229 50.7687 50.7688C51.0771 50.4606 51.0771 49.9829 50.7687 49.6747H50.7841ZM40.2193 46.3615C36.8108 46.3615 34.05 43.6031 34.05 40.1974C34.05 36.7918 36.8108 34.0333 40.2193 34.0333C43.6278 34.0333 46.3885 36.7918 46.3885 40.1974C46.3885 43.6031 43.6278 46.3615 40.2193 46.3615Z" fill="#FBD331"/>
</svg>
