<svg width="64" height="64" viewBox="0 0 64 64" fill="none" xmlns="http://www.w3.org/2000/svg">
<circle cx="32" cy="32" r="32" fill="#1E1E1E"/>
<path d="M51.9826 49.8432L45.7511 43.9106C46.8273 42.6381 47.4695 41.0186 47.4695 39.2669C47.4695 35.1686 43.9632 31.8305 39.6583 31.8305C35.3535 31.8305 31.8472 35.1686 31.8472 39.2669C31.8472 43.3653 35.3535 46.7034 39.6583 46.7034C41.4983 46.7034 43.1994 46.0919 44.536 45.0674L50.7676 51L52 49.8267L51.9826 49.8432ZM39.641 45.0508C36.2909 45.0508 33.5656 42.4564 33.5656 39.2669C33.5656 36.0775 36.2909 33.4831 39.641 33.4831C42.9911 33.4831 45.7163 36.0775 45.7163 39.2669C45.7163 42.4564 42.9911 45.0508 39.641 45.0508ZM31.8298 47.0174C32.3853 47.5131 32.9754 47.9758 33.6351 48.3559H11V16.1314C11 13.8508 12.9441 12 15.3395 12H44.8484C47.2439 12 49.188 13.8508 49.188 16.1314V33.5492C48.7019 32.8055 48.1118 32.128 47.4522 31.5165V16.1314C47.4522 14.7597 46.2892 13.6525 44.8484 13.6525H15.3395C13.8988 13.6525 12.7358 14.7597 12.7358 16.1314V46.7034H31.8298V47.0174ZM26.9869 18.6102H17.9433V41.7458H28.6533C28.5144 41.2169 28.4276 40.6551 28.3755 40.0932H19.6791V25.5674L26.9869 18.6102ZM19.6791 20.2627H22.7862L19.6791 23.2208V20.2627ZM40.5089 20.2627H33.9301L26.6224 27.2199V33.4831H30.1287C29.7815 34.0119 29.4691 34.5572 29.2261 35.1356H24.8865V26.5258L33.2011 18.6102H42.2447V28.8064C41.6892 28.6742 41.0991 28.5915 40.5089 28.542V20.2627Z" fill="#FBD331"/>
</svg>
