<svg width="64" height="64" viewBox="0 0 64 64" fill="none" xmlns="http://www.w3.org/2000/svg">
<circle cx="32" cy="32" r="32" fill="#1E1E1E"/>
<path d="M41.8947 48.8733H22.8475C22.4654 48.8734 22.0876 48.7934 21.7383 48.6385C21.3891 48.4835 21.0762 48.2571 20.8199 47.9737C20.5636 47.6904 20.3695 47.3565 20.2502 46.9935C20.131 46.6305 20.0891 46.2465 20.1274 45.8664L21.6776 30.3515C21.7449 29.6765 22.061 29.0507 22.5645 28.5961C23.0679 28.1415 23.7226 27.8907 24.4009 27.8924H40.3445C41.0237 27.8902 41.6792 28.1418 42.1824 28.5979C42.6857 29.0541 43.0003 29.6818 43.0646 30.3579L44.618 45.8728C44.6553 46.253 44.6127 46.6369 44.4928 46.9996C44.373 47.3624 44.1786 47.6961 43.9221 47.9793C43.6657 48.2624 43.3528 48.4888 43.0036 48.6439C42.6545 48.799 42.2767 48.8793 41.8947 48.8798V48.8733ZM24.4009 28.8593C23.9621 28.858 23.5385 29.0205 23.2131 29.3149C22.8877 29.6093 22.6838 30.0146 22.6413 30.4514L21.0878 45.9631C21.065 46.208 21.0935 46.4551 21.1715 46.6884C21.2495 46.9218 21.3753 47.1363 21.5409 47.3183C21.7065 47.5003 21.9082 47.6457 22.1332 47.7453C22.3582 47.8449 22.6015 47.8965 22.8475 47.8968H41.8947C42.1407 47.8965 42.384 47.8449 42.609 47.7453C42.834 47.6457 43.0357 47.5003 43.2013 47.3183C43.3669 47.1363 43.4927 46.9218 43.5707 46.6884C43.6488 46.4551 43.6772 46.208 43.6544 45.9631L42.1042 30.4449C42.0602 30.0093 41.8556 29.6056 41.5303 29.3125C41.205 29.0194 40.7823 28.8579 40.3445 28.8593H24.4009Z" fill="#FBD331"/>
<path d="M32.3711 44.8705C31.0873 44.8705 29.8324 44.4898 28.765 43.7766C27.6976 43.0634 26.8656 42.0496 26.3743 40.8636C25.8831 39.6775 25.7545 38.3724 26.005 37.1133C26.2554 35.8542 26.8736 34.6977 27.7814 33.7899C28.6891 32.8821 29.8457 32.2639 31.1048 32.0135C32.3639 31.763 33.669 31.8916 34.8551 32.3829C36.0411 32.8741 37.0548 33.7061 37.7681 34.7735C38.4813 35.8409 38.862 37.0959 38.862 38.3796C38.8603 40.1006 38.1759 41.7506 36.959 42.9675C35.7421 44.1844 34.0921 44.8688 32.3711 44.8705ZM32.3711 32.8589C31.2784 32.8589 30.2103 33.1829 29.3018 33.79C28.3933 34.3972 27.6853 35.2601 27.2673 36.2697C26.8493 37.2792 26.7401 38.3901 26.9535 39.4617C27.1669 40.5334 27.6933 41.5176 28.4662 42.2901C29.2391 43.0625 30.2237 43.5883 31.2954 43.8011C32.3672 44.0139 33.478 43.904 34.4873 43.4855C35.4966 43.0669 36.3591 42.3583 36.9657 41.4495C37.5723 40.5406 37.8958 39.4723 37.8951 38.3796C37.8943 36.9151 37.3119 35.5109 36.276 34.4757C35.2402 33.4404 33.8356 32.8589 32.3711 32.8589Z" fill="#FBD331"/>
<path d="M32.4968 38.7374C32.3686 38.7374 32.2456 38.6864 32.155 38.5958C32.0643 38.5051 32.0134 38.3822 32.0134 38.2539V34.2511C32.0134 34.1229 32.0643 34 32.155 33.9093C32.2456 33.8186 32.3686 33.7677 32.4968 33.7677C32.625 33.7677 32.748 33.8186 32.8386 33.9093C32.9293 34 32.9802 34.1229 32.9802 34.2511V38.2539C32.9802 38.3822 32.9293 38.5051 32.8386 38.5958C32.748 38.6864 32.625 38.7374 32.4968 38.7374Z" fill="#FBD331"/>
<path d="M32.4968 26.9771C29.3085 26.9769 26.2 25.9807 23.6055 24.1276C21.0111 22.2745 19.0604 19.6572 18.0261 16.6414C18.0011 16.5685 17.9939 16.4906 18.0051 16.4144C18.0164 16.3381 18.0456 16.2657 18.0905 16.203C18.1342 16.1408 18.192 16.09 18.2593 16.0547C18.3266 16.0193 18.4013 16.0006 18.4773 16H46.5163C46.5933 15.9996 46.6694 16.0178 46.7378 16.0532C46.8063 16.0885 46.8652 16.14 46.9095 16.203C46.9544 16.2657 46.9836 16.3381 46.9949 16.4144C47.0061 16.4906 46.9989 16.5685 46.9739 16.6414C45.9392 19.6582 43.9876 22.2763 41.3919 24.1295C38.7961 25.9827 35.6861 26.9783 32.4968 26.9771ZM19.1766 16.9669C20.2361 19.6346 22.0722 21.9228 24.4471 23.5349C26.8221 25.1471 29.6264 26.009 32.4968 26.009C35.3672 26.009 38.1715 25.1471 40.5464 23.5349C42.9213 21.9228 44.7574 19.6346 45.8169 16.9669H19.1766Z" fill="#FBD331"/>
<path d="M36.4996 38.7374H32.4968C32.3686 38.7374 32.2456 38.6864 32.155 38.5958C32.0643 38.5051 32.0134 38.3822 32.0134 38.2539C32.0134 38.1257 32.0643 38.0028 32.155 37.9121C32.2456 37.8214 32.3686 37.7705 32.4968 37.7705H36.4996C36.6278 37.7705 36.7508 37.8214 36.8414 37.9121C36.9321 38.0028 36.983 38.1257 36.983 38.2539C36.983 38.3822 36.9321 38.5051 36.8414 38.5958C36.7508 38.6864 36.6278 38.7374 36.4996 38.7374Z" fill="#FBD331"/>
</svg>
