<svg width="64" height="64" viewBox="0 0 64 64" fill="none" xmlns="http://www.w3.org/2000/svg">
<circle cx="32" cy="32" r="32" fill="#1E1E1E"/>
<path d="M37.3525 44.5447C37.1728 44.5447 37.0005 44.4733 36.8735 44.3463C36.7465 44.2193 36.6751 44.047 36.6751 43.8673V16.0961C36.6751 14.4793 37.3174 12.9288 38.4606 11.7855C39.6039 10.6423 41.1544 10 42.7712 10C44.388 10 45.9386 10.6423 47.0818 11.7855C48.2251 12.9288 48.8674 14.4793 48.8674 16.0961V18.8055C48.8674 18.9852 48.796 19.1574 48.669 19.2845C48.5419 19.4115 48.3696 19.4829 48.19 19.4829C48.0104 19.4829 47.8381 19.4115 47.711 19.2845C47.584 19.1574 47.5127 18.9852 47.5127 18.8055V16.0961C47.5127 14.8386 47.0131 13.6326 46.1239 12.7434C45.2347 11.8542 44.0287 11.3547 42.7712 11.3547C41.5137 11.3547 40.3077 11.8542 39.4185 12.7434C38.5293 13.6326 38.0298 14.8386 38.0298 16.0961V43.8673C38.0298 44.047 37.9584 44.2193 37.8314 44.3463C37.7044 44.4733 37.5321 44.5447 37.3525 44.5447Z" fill="#FBD331"/>
<path d="M26.5149 54.7049C23.4621 54.7013 20.5353 53.487 18.3766 51.3283C16.2179 49.1696 15.0036 46.2428 15 43.19C15 43.0103 15.0714 42.8381 15.1984 42.711C15.3254 42.584 15.4977 42.5126 15.6773 42.5126H37.3524C37.5321 42.5126 37.7044 42.584 37.8314 42.711C37.9584 42.8381 38.0298 43.0103 38.0298 43.19C38.0262 46.2428 36.8119 49.1696 34.6532 51.3283C32.4945 53.487 29.5677 54.7013 26.5149 54.7049ZM16.3773 43.8673C16.549 46.4391 17.6917 48.8494 19.574 50.6102C21.4563 52.371 23.9374 53.3506 26.5149 53.3506C29.0924 53.3506 31.5735 52.371 33.4558 50.6102C35.3381 48.8494 36.4808 46.4391 36.6525 43.8673H16.3773Z" fill="#FBD331"/>
<path d="M29.1294 38.6247C29.0302 38.6314 28.9306 38.6314 28.8314 38.6247C28.6518 38.5995 28.4895 38.504 28.3802 38.3592C28.271 38.2144 28.2237 38.0321 28.2489 37.8525C28.274 37.6729 28.3695 37.5106 28.5143 37.4013C28.6591 37.2921 28.8414 37.2448 29.0211 37.27C29.1537 37.2848 29.288 37.2729 29.416 37.2349C29.544 37.1969 29.6631 37.1336 29.7661 37.0487C30.1242 36.7541 30.3527 36.3311 30.4028 35.8701C30.4886 34.9399 29.9964 33.9961 29.4997 33.1924C29.4139 33.0524 29.3281 32.9079 29.2378 32.7679C28.6532 31.9466 28.2162 31.0298 27.9463 30.0585C27.763 29.1142 27.8663 28.1367 28.2429 27.2515C28.6195 26.3664 29.2522 25.6141 30.0596 25.0913C30.132 25.0225 30.2186 24.9706 30.3133 24.9392C30.4081 24.9078 30.5086 24.8977 30.6076 24.9097C30.7067 24.9216 30.8019 24.9554 30.8865 25.0084C30.971 25.0615 31.0428 25.1325 31.0966 25.2165C31.1505 25.3006 31.1851 25.3954 31.1981 25.4944C31.211 25.5934 31.2019 25.694 31.1714 25.789C31.1409 25.884 31.0898 25.9711 31.0217 26.0441C30.9537 26.1171 30.8703 26.1742 30.7776 26.2112C30.2016 26.5831 29.7504 27.1194 29.4823 27.7505C29.2143 28.3816 29.1417 29.0786 29.2739 29.7514C29.5134 30.575 29.8905 31.3522 30.3893 32.0499C30.4796 32.1944 30.5744 32.3389 30.6602 32.5015C31.2563 33.4362 31.8749 34.6464 31.753 35.9695C31.6663 36.8007 31.2539 37.5638 30.606 38.0918C30.1877 38.4304 29.6675 38.6181 29.1294 38.6247Z" fill="#FBD331"/>
<path d="M22.5231 38.1099C22.3672 38.1091 22.2165 38.0546 22.0961 37.9555C21.9758 37.8565 21.8933 37.719 21.8626 37.5663C21.8318 37.4135 21.8547 37.2548 21.9273 37.117C21.9999 36.9791 22.1178 36.8705 22.2611 36.8094C23.2185 36.403 23.6565 35.2018 23.661 34.258C23.661 33.1201 23.2094 31.9686 22.785 30.8532L22.7534 30.7765C22.3424 29.7063 21.7735 28.2432 21.8502 26.7485C21.927 25.2538 22.7534 23.6327 24.37 23.136C24.4577 23.0888 24.5547 23.0615 24.6542 23.056C24.7537 23.0506 24.8532 23.0672 24.9455 23.1046C25.0378 23.1421 25.1208 23.1994 25.1884 23.2726C25.2561 23.3457 25.3067 23.4329 25.3368 23.5279C25.3669 23.6229 25.3757 23.7233 25.3625 23.8221C25.3493 23.9208 25.3145 24.0155 25.2605 24.0992C25.2066 24.183 25.1348 24.2538 25.0503 24.3066C24.9659 24.3595 24.8708 24.393 24.7718 24.4049C23.7694 24.7165 23.2591 25.8635 23.2094 26.8027C23.1507 27.9181 23.5391 29.0334 24.0177 30.2707L24.0493 30.343C24.5235 31.5758 25.0202 32.8537 25.0157 34.2445C25.0112 35.6353 24.3203 37.4055 22.7895 38.0376C22.7065 38.0795 22.6158 38.1041 22.5231 38.1099Z" fill="#FBD331"/>
</svg>
