<svg width="64" height="64" viewBox="0 0 64 64" fill="none" xmlns="http://www.w3.org/2000/svg">
<circle cx="32" cy="32" r="32" fill="#1E1E1E"/>
<path d="M20.6667 39.7917V18.5417C20.6667 16.5881 19.0772 15 17.125 15H15V16.4167H17.125C18.2966 16.4167 19.25 17.3701 19.25 18.5417V39.7917C19.25 41.7453 20.8395 43.3333 22.7917 43.3333H23.5V44.75C23.5 47.0932 25.4068 49 27.75 49C30.0932 49 32 47.0932 32 44.75V43.3333H37.6667V44.75C37.6667 47.0932 39.5735 49 41.9167 49C44.2598 49 46.1667 47.0932 46.1667 44.75V43.3333H49V41.9167H22.7917C21.6201 41.9167 20.6667 40.9633 20.6667 39.7917ZM30.5833 44.75C30.5833 46.3126 29.3126 47.5833 27.75 47.5833C26.1874 47.5833 24.9167 46.3126 24.9167 44.75V43.3333H30.5833V44.75ZM44.75 44.75C44.75 46.3126 43.4793 47.5833 41.9167 47.5833C40.3541 47.5833 39.0833 46.3126 39.0833 44.75V43.3333H44.75V44.75ZM23.5 39.0833H49V29.1667H23.5V39.0833ZM24.9167 30.5833H47.5833V37.6667H24.9167V30.5833ZM34.8333 15H23.5V26.3333H34.8333V15ZM33.4167 24.9167H24.9167V16.4167H33.4167V24.9167ZM37.6667 17.8333V26.3333H49V17.8333H37.6667ZM47.5833 24.9167H39.0833V19.25H47.5833V24.9167Z" fill="#FBD331"/>
</svg>
