<svg width="64" height="64" viewBox="0 0 64 64" fill="none" xmlns="http://www.w3.org/2000/svg">
<circle cx="32" cy="32" r="32" fill="#1E1E1E"/>
<path d="M18.0011 23.3349C17.3112 23.3367 16.6278 23.2033 15.9904 22.9424C15.353 22.6815 14.7743 22.2983 14.2878 21.815L11.5859 19.4393C11.2392 19.1339 11.0295 18.7049 11.0029 18.2467C10.9763 17.7885 11.135 17.3386 11.4441 16.9961C11.7532 16.6535 12.1874 16.4463 12.6511 16.4201C13.1148 16.3938 13.5701 16.5506 13.9168 16.856L16.6904 19.3009C16.8492 19.4771 17.0428 19.6193 17.2593 19.7188C17.4758 19.8183 17.7106 19.873 17.9493 19.8795C18.1879 19.886 18.4254 19.8441 18.6471 19.7565C18.8688 19.6689 19.07 19.5374 19.2384 19.3701L25.5451 13.4376C25.8843 13.1393 26.3275 12.9829 26.7811 13.0015C27.2348 13.02 27.6634 13.2121 27.9764 13.5371C28.2894 13.8621 28.4623 14.2946 28.4586 14.7432C28.4549 15.1918 28.2749 15.6214 27.9566 15.9413L21.676 21.8444C21.1926 22.3193 20.6193 22.6953 19.9887 22.951C19.3582 23.2068 18.6828 23.3372 18.0011 23.3349ZM53 19.8767C53 19.4181 52.8156 18.9783 52.4875 18.6541C52.1593 18.3298 51.7142 18.1476 51.2501 18.1476H33.7506C33.2865 18.1476 32.8414 18.3298 32.5132 18.6541C32.1851 18.9783 32.0007 19.4181 32.0007 19.8767C32.0007 20.3353 32.1851 20.7751 32.5132 21.0994C32.8414 21.4236 33.2865 21.6058 33.7506 21.6058H51.2501C51.7142 21.6058 52.1593 21.4236 52.4875 21.0994C52.8156 20.7751 53 20.3353 53 19.8767ZM21.676 35.677L27.9566 29.774C28.1319 29.6198 28.274 29.4323 28.3744 29.2227C28.4749 29.0132 28.5317 28.7857 28.5414 28.554C28.5511 28.3223 28.5136 28.0911 28.431 27.874C28.3484 27.657 28.2224 27.4585 28.0606 27.2905C27.8988 27.1225 27.7045 26.9884 27.4892 26.8962C27.2738 26.8039 27.0419 26.7554 26.8072 26.7535C26.5725 26.7516 26.3399 26.7964 26.123 26.8852C25.9062 26.9739 25.7097 27.1049 25.5451 27.2703L19.2454 33.2027C18.9122 33.5175 18.4691 33.6931 18.0081 33.6931C17.5472 33.6931 17.1041 33.5175 16.7709 33.2027L13.9885 30.4621C13.6585 30.1472 13.2164 29.9729 12.7576 29.9768C12.2988 29.9808 11.8599 30.1626 11.5354 30.4832C11.211 30.8038 11.0269 31.2375 11.0229 31.6908C11.019 32.1442 11.1953 32.581 11.5141 32.9071L14.2878 35.6476C15.2672 36.6156 16.594 37.1618 17.9793 37.1673C19.3645 37.1728 20.6958 36.6372 21.683 35.677H21.676ZM53 33.7093C53 33.2508 52.8156 32.811 52.4875 32.4867C52.1593 32.1624 51.7142 31.9803 51.2501 31.9803H33.7506C33.2865 31.9803 32.8414 32.1624 32.5132 32.4867C32.1851 32.811 32.0007 33.2508 32.0007 33.7093C32.0007 34.1679 32.1851 34.6077 32.5132 34.932C32.8414 35.2563 33.2865 35.4384 33.7506 35.4384H51.2501C51.7142 35.4384 52.1593 35.2563 52.4875 34.932C52.8156 34.6077 53 34.1679 53 33.7093ZM21.676 49.5097L27.9496 43.6066C28.1249 43.4524 28.267 43.2649 28.3674 43.0554C28.4679 42.8458 28.5247 42.6184 28.5344 42.3867C28.5441 42.155 28.5065 41.9237 28.424 41.7066C28.3414 41.4896 28.2154 41.2911 28.0536 41.1232C27.8918 40.9552 27.6975 40.8211 27.4822 40.7288C27.2668 40.6365 27.0349 40.588 26.8002 40.5861C26.5655 40.5842 26.3329 40.629 26.116 40.7178C25.8992 40.8066 25.7027 40.9375 25.5381 41.1029L19.2384 47.0354C19.07 47.2027 18.8688 47.3342 18.6471 47.4218C18.4254 47.5094 18.1879 47.5512 17.9493 47.5447C17.7106 47.5383 17.4758 47.4836 17.2593 47.3841C17.0428 47.2846 16.8492 47.1424 16.6904 46.9662L13.9168 44.5213C13.5701 44.2159 13.1148 44.059 12.6511 44.0853C12.1874 44.1116 11.7532 44.3188 11.4441 44.6613C11.135 45.0039 10.9763 45.4537 11.0029 45.9119C11.0295 46.3701 11.2392 46.7991 11.5859 47.1045L14.2878 49.4803C15.2672 50.4482 16.594 50.9945 17.9793 51C19.3645 51.0055 20.6958 50.4698 21.683 49.5097H21.676ZM53 47.542C53 47.0834 52.8156 46.6436 52.4875 46.3193C52.1593 45.9951 51.7142 45.8129 51.2501 45.8129H33.7506C33.2865 45.8129 32.8414 45.9951 32.5132 46.3193C32.1851 46.6436 32.0007 47.0834 32.0007 47.542C32.0007 48.0006 32.1851 48.4404 32.5132 48.7646C32.8414 49.0889 33.2865 49.2711 33.7506 49.2711H51.2501C51.7142 49.2711 52.1593 49.0889 52.4875 48.7646C52.8156 48.4404 53 48.0006 53 47.542Z" fill="#FBD331"/>
</svg>
