<svg width="64" height="64" viewBox="0 0 64 64" fill="none" xmlns="http://www.w3.org/2000/svg">
<circle cx="32" cy="32" r="32" fill="#1E1E1E"/>
<g clip-path="url(#clip0_116_3)">
<path d="M25.95 43.4083L26.3233 45.15C18.2417 44.0033 12 37.0583 12 28.6667C12 19.4767 19.4767 12 28.6667 12C37.6783 12 45.025 19.195 45.3067 28.14C44.8083 27.3183 44.175 26.6467 43.4433 26.1867C42.2567 19.095 36.0917 13.6667 28.6667 13.6667C20.395 13.6667 13.6667 20.3967 13.6667 28.6667C13.6667 36.01 18.9733 42.125 25.95 43.4083ZM52 40.3333V48.6667C52 50.505 50.505 52 48.6667 52H31.2017L28.6667 40.175L28.6817 37H38.99L38.0233 31.5583C37.9867 30.85 37.9717 30.5917 38.0583 30.41C38.28 29.7417 38.7267 29.2167 39.3317 28.92C39.985 28.6 40.7417 28.5883 41.465 28.8867C41.8867 29.06 42.3017 29.4967 42.6033 30.0833L46.2567 36.9983H48.6683C50.5067 36.9983 52.0017 38.4933 52.0017 40.3317L52 40.3333ZM32.545 50.3333H45.3483V38.6667H45.25L41.12 30.8533C40.9467 30.5167 40.7933 30.4117 40.7917 30.41C40.55 30.3133 40.28 30.3083 40.0617 30.415C39.8783 30.505 39.735 30.6717 39.6517 30.89L39.6733 31.3717L40.9767 38.665H30.34L30.3317 40.09L32.5433 50.3317L32.545 50.3333ZM50.3333 40.3333C50.3333 39.4133 49.5867 38.6667 48.6667 38.6667H47.015V50.3333H48.6667C49.5867 50.3333 50.3333 49.5867 50.3333 48.6667V40.3333ZM35.9033 22.6567L27.4683 30.965C27.2117 31.225 26.77 31.2333 26.4967 30.9583L21.7483 26.3083L20.5833 27.5L25.3233 32.1417C25.7683 32.5867 26.3583 32.8333 26.9867 32.8333C27.615 32.8333 28.205 32.5883 28.6433 32.1467L37.0717 23.8433L35.9033 22.6567Z" fill="#FBD331"/>
</g>
<defs>
<clipPath id="clip0_116_3">
<rect width="40" height="40" fill="white" transform="translate(12 12)"/>
</clipPath>
</defs>
</svg>
