<svg width="64" height="64" viewBox="0 0 64 64" fill="none" xmlns="http://www.w3.org/2000/svg">
<circle cx="32" cy="32" r="32" fill="#1E1E1E"/>
<path d="M23.25 19.1667V13H18.625C16.0751 13 14 15.0751 14 17.625V45.375C14 47.9249 16.0751 50 18.625 50H51V19.1667H23.25ZM15.5417 17.625C15.5417 15.9245 16.9245 14.5417 18.625 14.5417H21.7083V40.75H18.625C17.441 40.75 16.3603 41.1971 15.5417 41.9309V17.625ZM49.4583 48.4583H18.625C16.9245 48.4583 15.5417 47.0755 15.5417 45.375C15.5417 43.6745 16.9245 42.2917 18.625 42.2917H23.25V20.7083H49.4583V48.4583ZM46.375 45.375H26.3333V23.7917H30.9583V25.3333H27.875V29.9583H30.9583V31.5H27.875V43.8333H35.5833V36.125H32.5V34.5833H40.2083V36.125H37.125V43.8333H44.8333V25.3333H37.125V29.9583H35.5833V23.7917H46.375V45.375Z" fill="#FBD331"/>
</svg>
