<svg width="64" height="64" viewBox="0 0 64 64" fill="none" xmlns="http://www.w3.org/2000/svg">
<circle cx="32" cy="32" r="32" fill="#1E1E1E"/>
<path d="M52 18.6667V17H12V18.6667H13.6667V45.3333H12V47H52V45.3333H50.3333V18.6667H52ZM48.6667 45.3333H15.3333V18.6667H48.6667V45.3333ZM35.3333 42H33.6667V22H35.3333V42ZM40.3333 42H38.6667V22H40.3333V42ZM45.3333 42H43.6667V22H45.3333V42ZM30.3333 42H28.6667V22H30.3333V42ZM25.3333 42H23.6667V22H25.3333V42ZM18.6667 42V22H20.3333V42H18.6667Z" fill="#FBD331"/>
</svg>
