<svg width="73" height="73" viewBox="0 0 73 73" fill="none" xmlns="http://www.w3.org/2000/svg">
<circle cx="36.5" cy="36.5" r="36.5" fill="#1E1E1E"/>
<path d="M55.7771 46.2669C55.7771 46.2669 52.6097 45.5719 51.8072 45.3247C51.0179 45.0811 50.3892 44.5342 50.0064 43.7663C52.8412 42.3931 54.3453 39.1294 54.5907 35.8432V35.5971H55.5795C56.0858 35.5971 56.4966 35.1864 56.4966 34.68C56.4966 34.1737 56.0858 33.7629 55.5795 33.7629H54.9609L54.8887 33.0369C54.6589 30.7131 53.0622 28.781 50.8221 28.1171L49.7712 27.8054V27.5284C49.7712 27.022 49.3605 26.6113 48.8541 26.6113H45.0263C44.5205 26.6113 44.1104 27.0208 44.1092 27.526L44.1086 27.8006L43.029 28.1206C40.7983 28.7833 39.203 30.7059 38.9653 33.019L38.889 33.7629H38.2859C37.7789 33.7629 37.3688 34.1737 37.3688 34.68C37.3688 35.1864 37.7789 35.5971 38.2859 35.5971H39.3069L39.3081 35.9124C39.5505 39.139 41.0473 42.3829 43.8697 43.7585C43.5072 44.5012 42.8701 45.0739 42.0582 45.3246C41.2557 45.5718 38.0883 46.2668 38.0883 46.2668C38.0877 46.2668 38.0859 46.2674 38.0852 46.2674L38.0828 46.268C37.61 46.3725 33.6263 47.3517 33.1588 50.623C32.8913 52.4919 32.5791 54.2663 32.5785 54.2711C32.5313 54.5374 32.6053 54.8121 32.7791 55.0199C32.9535 55.2277 33.2108 55.3471 33.4819 55.3471H60.3835C60.6546 55.3471 60.9119 55.2277 61.0857 55.0199C61.2601 54.8121 61.334 54.5375 61.2869 54.2711C61.2857 54.2664 60.9735 52.4919 60.706 50.623C60.2378 47.3429 56.2327 46.3672 55.7771 46.2669ZM55.6231 48.1227V53.513H51.9798L53.4259 47.6235C53.9406 47.7411 55.4804 48.0814 55.6231 48.1227ZM50.3008 29.8749C51.8228 30.3263 52.9071 31.6387 53.0634 33.2185L53.1172 33.763H49.7712V29.7178L50.3008 29.8749ZM47.937 28.4456V33.7631H45.9302L45.9416 28.4456H47.937ZM40.7901 33.2066C40.9513 31.6351 42.0355 30.3286 43.551 29.8785L44.1044 29.7143L44.0961 33.763H40.7327L40.7901 33.2066ZM41.14 35.8433V35.5973H52.7583L52.7589 35.774C52.5028 39.1785 50.6065 42.6128 46.9482 42.6128C43.2895 42.6128 41.3931 39.1786 41.14 35.8433ZM46.9482 44.4471C47.3966 44.4471 47.8182 44.3987 48.2272 44.3282C48.447 44.8501 48.7521 45.3223 49.1282 45.7296L46.9656 47.4861L44.7547 45.7003C45.1141 45.302 45.4091 44.8381 45.63 44.3216C46.0503 44.3963 46.485 44.4471 46.9482 44.4471ZM40.4449 47.6222L41.9448 53.5129H38.2417V48.1227C38.3851 48.0814 39.9291 47.7405 40.4449 47.6222ZM34.9746 50.8834C35.0987 50.0129 35.7215 49.3824 36.4075 48.9382V53.513H34.5673C34.6821 52.818 34.8343 51.8639 34.9746 50.8834ZM43.837 53.5129L42.2266 47.1858C42.3616 47.1482 43.0297 46.9249 43.2339 46.8294L46.3912 49.3789C46.5589 49.515 46.7632 49.583 46.9674 49.583C47.1721 49.583 47.3769 49.515 47.5454 49.3777L50.6627 46.8461C50.8567 46.9351 51.5075 47.1494 51.6443 47.187L50.0913 53.513H43.837V53.5129ZM58.8908 50.8834C59.0305 51.8639 59.1833 52.818 59.2981 53.5129H57.4573V48.9387C58.144 49.3824 58.7666 50.0135 58.8908 50.8834Z" fill="#FBD331"/>
<path d="M28.285 59.0829C28.285 58.5765 27.8742 58.1658 27.3679 58.1658H15.4575C15.1136 58.1658 14.8341 57.8863 14.8341 57.5424V25.9718C14.8341 25.8393 14.861 25.6553 14.9882 25.5275L26.5678 13.9934C26.8078 13.7522 27.1458 13.7569 27.3762 13.9887L38.6872 25.4238C38.6961 25.4667 38.6788 30.9586 38.6788 30.9586C38.6788 31.465 39.0896 31.8758 39.5959 31.8758C40.1023 31.8758 40.513 31.465 40.513 30.9586L40.519 25.7737C40.5357 25.3904 40.5631 24.7479 40.0484 24.2344L28.6778 12.6965C27.7487 11.7674 26.1994 11.7686 25.2721 12.6953L13.6932 24.2295C13.246 24.6761 13 25.2947 13 25.9718V57.5425C13 58.8978 14.1028 60 15.4575 60H27.3679C27.8742 60 28.285 59.5892 28.285 59.0829Z" fill="#FBD331"/>
<path d="M32.2592 39.1353H28.8887C28.3823 39.1353 27.9716 39.546 27.9716 40.0524C27.9716 40.5587 28.3823 40.9695 28.8887 40.9695H32.2592C32.7655 40.9695 33.1763 40.5587 33.1763 40.0524C33.1763 39.546 32.7654 39.1353 32.2592 39.1353Z" fill="#FBD331"/>
<path d="M23.6995 32.8733H20.329C19.8227 32.8733 19.4119 33.284 19.4119 33.7904C19.4119 34.2967 19.8227 34.7075 20.329 34.7075H23.6995C24.2059 34.7075 24.6166 34.2967 24.6166 33.7904C24.6166 33.284 24.2058 32.8733 23.6995 32.8733Z" fill="#FBD331"/>
<path d="M32.2592 47.4846H28.8887C28.3823 47.4846 27.9716 47.8953 27.9716 48.4017C27.9716 48.908 28.3823 49.3188 28.8887 49.3188H32.2592C32.7655 49.3188 33.1763 48.908 33.1763 48.4017C33.1763 47.8953 32.7654 47.4846 32.2592 47.4846Z" fill="#FBD331"/>
<path d="M23.6995 41.2226H20.329C19.8227 41.2226 19.4119 41.6333 19.4119 42.1397C19.4119 42.6461 19.8227 43.0568 20.329 43.0568H23.6995C24.2059 43.0568 24.6166 42.6461 24.6166 42.1397C24.6166 41.6333 24.2058 41.2226 23.6995 41.2226Z" fill="#FBD331"/>
<path d="M32.2592 51.6592H28.8887C28.3823 51.6592 27.9716 52.07 27.9716 52.5763C27.9716 53.0827 28.3823 53.4934 28.8887 53.4934H32.2592C32.7655 53.4934 33.1763 53.0827 33.1763 52.5763C33.1763 52.07 32.7654 51.6592 32.2592 51.6592Z" fill="#FBD331"/>
<path d="M23.6995 45.3972H20.329C19.8227 45.3972 19.4119 45.808 19.4119 46.3143C19.4119 46.8207 19.8227 47.2315 20.329 47.2315H23.6995C24.2059 47.2315 24.6166 46.8207 24.6166 46.3143C24.6166 45.808 24.2058 45.3972 23.6995 45.3972Z" fill="#FBD331"/>
<path d="M32.2592 24.8698H28.8887C28.3823 24.8698 27.9716 25.2805 27.9716 25.7869C27.9716 26.2932 28.3823 26.704 28.8887 26.704H32.2592C32.7655 26.704 33.1763 26.2932 33.1763 25.7869C33.1763 25.2805 32.7654 24.8698 32.2592 24.8698Z" fill="#FBD331"/>
<path d="M23.6995 18.262H20.329C19.8227 18.262 19.4119 18.6727 19.4119 19.1791C19.4119 19.6855 19.8227 20.0962 20.329 20.0962H23.6995C24.2059 20.0962 24.6166 19.6855 24.6166 19.1791C24.6166 18.6727 24.2058 18.262 23.6995 18.262Z" fill="#FBD331"/>
</svg>
