<svg width="73" height="73" viewBox="0 0 73 73" fill="none" xmlns="http://www.w3.org/2000/svg">
<circle cx="36.5" cy="36.5" r="36.5" fill="#1E1E1E"/>
<path d="M33.5062 40.3669H59.1264C59.3846 40.3669 59.6296 40.2532 59.7951 40.0553C59.9612 39.8574 60.0316 39.5959 59.9868 39.3422C59.9856 39.3377 59.6882 37.6477 59.4335 35.8678C58.9877 32.7438 55.1733 31.8147 54.7395 31.7191L54.2175 31.6042C53.3458 31.4131 51.723 31.0572 50.9587 30.8217C50.1888 30.5841 49.5838 30.0433 49.2374 29.3404C51.9413 28.0343 53.3753 24.9239 53.6096 21.7919V21.5578H54.5513C55.0335 21.5578 55.4247 21.1666 55.4247 20.6844C55.4247 20.2022 55.0335 19.811 54.5513 19.811H53.9616L53.8934 19.1207C53.6745 16.9065 52.1545 15.0664 50.0205 14.4341L49.0197 14.1373V13.8734C49.0197 13.3912 48.6285 13 48.1463 13H44.5013C44.0191 13 43.6285 13.39 43.6279 13.8711L43.6268 14.1327L42.5987 14.4374C40.4742 15.0686 38.9549 16.8996 38.7285 19.1025L38.6558 19.811H38.0815C37.5992 19.811 37.208 20.2022 37.208 20.6844C37.208 21.1666 37.5992 21.5578 38.0815 21.5578H39.0544L39.0549 21.8581C39.2864 24.931 40.7113 28.0203 43.3993 29.3304C43.0541 30.0383 42.4474 30.5831 41.6741 30.8219C40.9098 31.0573 39.2881 31.4133 38.4164 31.6033L37.8933 31.7192C37.8927 31.7192 37.8915 31.7198 37.8904 31.7198L37.8881 31.7204C37.4378 31.8198 33.6438 32.7524 33.1991 35.8679C32.9444 37.6478 32.6471 39.3377 32.6459 39.3423C32.601 39.5959 32.6715 39.8575 32.8376 40.0554C33.003 40.2533 33.2481 40.3669 33.5062 40.3669ZM57.7048 36.1159C57.8378 37.0496 57.9834 37.9583 58.0926 38.6201H56.3401V34.2638C56.9935 34.6869 57.5865 35.2874 57.7048 36.1159ZM49.524 16.1082C50.9735 16.5381 52.0061 17.7879 52.155 19.2937L52.2062 19.8112H49.0196V15.9587L49.524 16.1082ZM47.2728 14.7469V19.8111H45.3615L45.3724 14.7469H47.2728ZM40.4663 19.2811C40.6198 17.7845 41.6524 16.5403 43.0957 16.1116L43.6233 15.9552L43.6148 19.8111H40.4117L40.4663 19.2811ZM40.7995 21.7921V21.5578H44.4842H44.4865H51.8644L51.865 21.7261C51.6211 24.9684 49.8157 28.2392 46.3311 28.2392C42.8465 28.2392 41.0406 24.9685 40.7995 21.7921ZM46.3311 29.9861C46.7581 29.9861 47.1601 29.94 47.5491 29.8729C47.7584 30.3699 48.049 30.8196 48.4072 31.2075L46.3477 32.8803L44.242 31.1796C44.5843 30.8003 44.8652 30.3585 45.0757 29.8667C45.4759 29.9378 45.8899 29.9861 46.3311 29.9861ZM42.1892 32.4914C42.3985 32.4267 42.5997 32.3459 42.7942 32.2549L45.8006 34.683C45.9603 34.8126 46.1549 34.8774 46.3493 34.8774C46.5443 34.8774 46.7393 34.8126 46.8998 34.6818L49.8686 32.2708C50.0534 32.3556 50.245 32.43 50.4435 32.4914C51.2782 32.7485 52.8841 33.0999 53.8439 33.3102C53.8439 33.3102 54.4568 33.4473 54.5933 33.4865V38.6201H38.0394V33.4865C38.1759 33.4473 38.79 33.3102 38.79 33.3102C39.7493 33.0999 41.3545 32.7485 42.1892 32.4914ZM34.9278 36.1159C35.0466 35.2868 35.6392 34.6863 36.2925 34.2633V38.6202H34.54C34.6492 37.9583 34.7948 37.0496 34.9278 36.1159Z" fill="#FBD331"/>
<path d="M15.1066 58.9998H47.2477C47.8579 58.9998 48.3543 58.504 48.3543 57.8944V53.7013C48.3543 53.0905 47.8579 52.5947 47.2477 52.5947H43.6961V49.043C43.6961 48.4323 43.1996 47.9364 42.5895 47.9364H32.0506V44.3847C32.0506 43.774 31.5542 43.2782 30.944 43.2782H15.1066C14.4964 43.2782 14 43.774 14 44.3847V57.8943C14 58.504 14.4964 58.9998 15.1066 58.9998ZM23.3164 49.6834V52.5948H15.7468V49.6834H23.3164ZM15.7468 54.3416H18.6583V57.253H15.7468V54.3416ZM20.405 54.3416H27.9746V57.253H20.405V54.3416ZM29.7215 54.3416H37.291V57.253H29.7215V54.3416ZM46.6075 57.253H39.0379V54.3415H46.6075V57.253ZM41.9492 52.5948H34.3796V49.6834H41.9492V52.5948ZM32.6329 52.5948H25.0633V49.6834H30.944H32.6329V52.5948ZM30.3037 47.9365H22.7342V45.0251H30.3037V47.9365ZM15.7468 45.0252H20.9873V47.9366H15.7468V45.0252Z" fill="#FBD331"/>
</svg>
