<svg width="64" height="64" viewBox="0 0 64 64" fill="none" xmlns="http://www.w3.org/2000/svg">
<circle cx="32" cy="32" r="32" fill="#1E1E1E"/>
<path d="M48.5661 26.0209L34.3167 14.807C32.9517 13.7302 31.0453 13.7317 29.6818 14.807L15.4324 26.0209C14.522 26.7388 14 27.8125 14 28.9734V49.9985H28.1699L31.9633 40.9878H26.4735C26.2185 40.9878 26.0985 40.8135 26.058 40.7385C26.0175 40.6634 25.9395 40.4666 26.0835 40.2519L33.4857 28.9734H33.6927L30.9928 37.9842H37.4995C37.657 37.9842 37.8025 38.0578 37.897 38.1854C37.9915 38.3131 38.02 38.4723 37.9855 38.5909L33.9387 50H50V28.9734C50 27.814 49.4765 26.7388 48.5661 26.0209ZM48.4986 48.4967H36.0611L39.4089 39.058C39.5934 38.4482 39.4809 37.8025 39.1015 37.2903C38.722 36.7767 38.137 36.4824 37.4995 36.4824H33.0072L35.7071 27.4716H32.6757L24.831 39.4244C24.4276 40.0296 24.3931 40.806 24.7366 41.4488C25.08 42.0916 25.746 42.4895 26.475 42.4895H29.7043L27.1755 48.4967H15.4999V28.9734C15.4999 28.2781 15.8134 27.6323 16.3594 27.2028L30.6088 15.9874C31.4278 15.3447 32.5707 15.3432 33.3897 15.9874L47.6391 27.2028C48.1851 27.6323 48.4986 28.2781 48.4986 28.9734V48.4967Z" fill="#FBD331"/>
</svg>
