<svg width="64" height="64" viewBox="0 0 64 64" fill="none" xmlns="http://www.w3.org/2000/svg">
<circle cx="32" cy="32" r="32" fill="#1E1E1E"/>
<path d="M13 31.8143C13.0001 31.3831 13.1714 30.9696 13.4764 30.6648L26.7627 17.3801C28.2871 15.8561 30.3544 15 32.51 15C34.6656 15 36.7329 15.8561 38.2573 17.3801L51.5436 30.6648C51.8398 30.9714 52.0036 31.3821 51.9999 31.8084C51.9962 32.2347 51.8252 32.6425 51.5238 32.9439C51.2224 33.2454 50.8146 33.4163 50.3883 33.42C49.962 33.4237 49.5513 33.2599 49.2447 32.9637L35.9584 19.679C35.0437 18.7646 33.8033 18.251 32.51 18.251C31.2167 18.251 29.9763 18.7646 29.0616 19.679L15.7753 32.9637C15.5479 33.191 15.2583 33.3458 14.9429 33.4085C14.6276 33.4712 14.3007 33.439 14.0037 33.316C13.7067 33.193 13.4528 32.9846 13.2741 32.7173C13.0955 32.45 13.0001 32.1358 13 31.8143Z" fill="#FBD331"/>
<path d="M13 48.0726C13.0001 47.6414 13.1714 47.228 13.4764 46.9231L29.0616 31.3379C29.9763 30.4235 31.2167 29.9098 32.51 29.9098C33.8033 29.9098 35.0437 30.4235 35.9584 31.3379L51.5436 46.9231C51.8398 47.2298 52.0036 47.6405 51.9999 48.0667C51.9962 48.493 51.8252 48.9008 51.5238 49.2023C51.2224 49.5037 50.8146 49.6747 50.3883 49.6784C49.962 49.6821 49.5513 49.5182 49.2447 49.2221L33.6595 33.6368C33.3546 33.332 32.9411 33.1608 32.51 33.1608C32.0789 33.1608 31.6654 33.332 31.3605 33.6368L15.7753 49.2221C15.5479 49.4494 15.2583 49.6042 14.9429 49.6669C14.6276 49.7296 14.3007 49.6974 14.0037 49.5743C13.7067 49.4513 13.4528 49.243 13.2741 48.9757C13.0955 48.7084 13.0001 48.3941 13 48.0726Z" fill="#FBD331"/>
</svg>
