<svg width="64" height="64" viewBox="0 0 64 64" fill="none" xmlns="http://www.w3.org/2000/svg">
<circle cx="32" cy="32" r="32" fill="#1E1E1E"/>
<path d="M41.8986 46.1246C41.9486 46.6401 42.0003 47.1572 42.0003 47.6777V52H12.0011V47.6777C12.0011 42.0676 14.9193 36.7911 20.6792 31.9816C14.8543 27.1205 11.9361 21.789 12.0011 16.1238C12.0277 13.8534 13.8943 12.0067 16.161 12.0067L37.8304 12C40.1053 12 41.9753 13.85 42.0003 16.1254C42.0069 16.701 41.9603 17.2715 41.9053 17.8404C41.6586 17.827 41.4169 17.8037 41.167 17.8037C40.8503 17.8037 40.542 17.8303 40.2303 17.8504C40.2936 17.2832 40.3386 16.716 40.3336 16.1438C40.3186 14.7792 39.1953 13.6682 37.8304 13.6682L16.161 13.6749C14.8027 13.6749 13.6844 14.7826 13.6677 16.1438C13.606 21.5204 16.5843 26.6284 22.5191 31.3277L23.3441 31.9816L22.5191 32.6356C16.6476 37.2865 13.6677 42.3478 13.6677 47.6777V50.3318H40.3336V47.6777C40.3336 47.1539 40.282 46.6334 40.2236 46.1129C40.537 46.133 40.8486 46.1613 41.167 46.1613C41.4136 46.1613 41.6553 46.1363 41.8986 46.1246ZM27.1557 36.4925C27.339 36.3507 27.4973 36.2272 27.639 36.1171C27.4823 35.6066 27.344 35.0878 27.2457 34.5523L27.1523 34.4923L26.6973 34.7926C23.9107 36.6226 19.1042 40.5161 18.2209 46.0295L18.0659 46.9954H36.1954L36.0438 46.0312C36.0054 45.7876 35.9321 45.5591 35.8688 45.3272H20.0725C21.1608 41.2118 24.7474 38.149 27.1557 36.4925ZM52 31.9816C52 37.9605 47.1401 42.8249 41.167 42.8249C35.1938 42.8249 30.3339 37.9605 30.3339 31.9816C30.3339 26.0028 35.1938 21.1384 41.167 21.1384C47.1401 21.1384 52 26.0028 52 31.9816ZM50.3334 31.9816C50.3334 26.922 46.2202 22.8066 41.167 22.8066C36.1138 22.8066 32.0005 26.922 32.0005 31.9816C32.0005 37.0413 36.1138 41.1567 41.167 41.1567C46.2202 41.1567 50.3334 37.0413 50.3334 31.9816ZM42.0003 26.143H40.3336V32.327L43.9102 35.9069L45.0885 34.7275L41.9986 31.6347V26.1413L42.0003 26.143Z" fill="#FBD331"/>
</svg>
