<svg width="64" height="64" viewBox="0 0 64 64" fill="none" xmlns="http://www.w3.org/2000/svg">
<circle cx="32" cy="32" r="32" fill="#1E1E1E"/>
<path d="M52.9977 40.9463L37.5883 16.1142C36.3419 14.1056 34.366 13 32.0235 13C29.6535 13 27.6611 14.1056 26.4147 16.1142L11.0034 40.9463C9.71298 43.0254 9.66533 45.537 10.8714 47.665C12.0555 49.7532 14.1982 51 16.603 51H47.3963C49.8011 51 51.942 49.7532 53.1279 47.665C54.3358 45.537 54.2881 43.0254 52.9977 40.9463ZM51.5296 46.7802C50.6736 48.2893 49.1284 49.1905 47.3981 49.1905H16.6048C14.8745 49.1905 13.3294 48.2893 12.4734 46.7802C11.5954 45.2312 11.6302 43.4036 12.5687 41.8909L20.0856 29.7779L36.2227 40.2424L35.1505 41.8691C34.6647 42.6056 34.6262 43.5448 35.0515 44.3174C35.4767 45.0901 36.2942 45.5696 37.185 45.5696H44.2528C45.0996 45.5696 45.8713 45.1444 46.3167 44.4332C46.7621 43.7221 46.8024 42.8499 46.423 42.1026L43.351 36.037C42.9569 35.259 42.1963 34.765 41.3165 34.7161C40.4403 34.66 39.6265 35.0726 39.1463 35.8036L37.2217 38.726L27.5786 32.4723L28.924 28.647C29.0963 28.171 29.4665 27.791 29.9449 27.6029C30.4197 27.4147 30.9549 27.4364 31.4113 27.659L31.9318 27.9159C32.698 28.2923 33.2827 28.9383 33.5705 29.72L35.0936 34.1009C35.2238 34.4772 35.5812 34.7125 35.9606 34.7125C36.0596 34.7125 36.1586 34.6962 36.2576 34.6636C36.7359 34.5008 36.9907 33.985 36.8276 33.5146L35.2989 29.1192C34.8444 27.8833 33.9389 26.8827 32.7493 26.2964L32.2288 26.0394C31.2995 25.5834 30.218 25.5418 29.2612 25.9236C28.2989 26.3036 27.5474 27.0745 27.1955 28.0462L25.9986 31.4481L21.0424 28.2344L27.9782 17.0588C28.8928 15.5876 30.2913 14.8077 32.0235 14.8077C33.7556 14.8077 35.0991 15.5641 36.0266 17.0588L51.4361 41.8909C52.3746 43.4036 52.4075 45.2312 51.5296 46.7802ZM36.6846 42.8571L40.6804 36.7916C40.8326 36.5582 41.0598 36.5256 41.1772 36.5256C41.19 36.5256 41.201 36.5256 41.2101 36.5256C41.3128 36.531 41.5694 36.5745 41.7069 36.8495L44.7789 42.915C44.9127 43.1792 44.8064 43.4018 44.7532 43.485C44.7019 43.5683 44.5479 43.7637 44.2492 43.7637H37.1814C36.8624 43.7637 36.7103 43.5484 36.659 43.4579C36.6095 43.3656 36.5087 43.1231 36.6828 42.859L36.6846 42.8571ZM33.8362 22.0476C33.8362 23.0465 33.0151 23.8571 32.0033 23.8571C30.9915 23.8571 30.1704 23.0465 30.1704 22.0476C30.1704 21.0488 30.9915 20.2381 32.0033 20.2381C33.0151 20.2381 33.8362 21.0488 33.8362 22.0476ZM32.0033 41.9524V44.6667C32.0033 45.1661 31.5927 45.5714 31.0868 45.5714C30.581 45.5714 30.1704 45.1661 30.1704 44.6667V41.9524C30.1704 41.453 30.581 41.0476 31.0868 41.0476C31.5927 41.0476 32.0033 41.453 32.0033 41.9524ZM25.8465 37.747L23.0971 44.9851C22.9596 45.3489 22.6095 45.5714 22.2393 45.5714C22.1311 45.5714 22.023 45.5533 21.9167 45.5135C21.4438 45.338 21.2037 44.8169 21.3814 44.3482L24.1309 37.1101C24.3086 36.6414 24.8365 36.408 25.3113 36.5817C25.7842 36.7572 26.0243 37.2784 25.8465 37.747Z" fill="#FBD331"/>
</svg>
