<svg width="64" height="64" viewBox="0 0 64 64" fill="none" xmlns="http://www.w3.org/2000/svg">
<circle cx="32" cy="32" r="32" fill="#1E1E1E"/>
<path d="M51.3414 45.7031L35.7233 23.9915L18.6475 48.75H13V52H47.8326C49.3521 52 50.7498 51.1891 51.4828 49.8842C52.206 48.5956 52.1816 47.0714 51.3414 45.7031ZM33.4075 48.75L35.7526 45.1977L38.0977 48.75H33.4058H33.4075ZM48.6501 48.2918C48.5721 48.4299 48.338 48.75 47.8326 48.75H41.9949L35.7526 39.3023L29.5103 48.75H22.5951L35.7802 29.6335L48.6322 47.4955C48.8418 47.84 48.7329 48.1406 48.6484 48.2901L48.6501 48.2918ZM18.8409 26.6793L13.4794 21.3184L15.7774 19.0206L19.5007 22.7435V13H22.7511V22.7614L26.4744 19.0206L28.7724 21.3184L23.4109 26.6793C22.7804 27.3098 21.9531 27.6234 21.1259 27.6234C20.2987 27.6234 19.4699 27.3098 18.8409 26.6793Z" fill="#FBD331"/>
</svg>
