<svg width="64" height="64" viewBox="0 0 64 64" fill="none" xmlns="http://www.w3.org/2000/svg">
<circle cx="32" cy="32" r="32" fill="#1E1E1E"/>
<path d="M45.5625 17H19.4375C17.54 17 16 18.5273 16 20.4091V44.2727H37.505L36.13 42.9091H17.375V25.1818H47.625V36.9636L49 38.3273V20.4091C49 18.5273 47.46 17 45.5625 17ZM17.375 23.8182V20.4091C17.375 19.2773 18.2963 18.3636 19.4375 18.3636H45.5625C46.7037 18.3636 47.625 19.2773 47.625 20.4091V23.8182H17.375ZM37.3675 30.6364H32.5V35.4636L43.1287 46.0045C43.775 46.6455 44.6412 47 45.5625 47C46.4838 47 47.35 46.6455 47.9963 46.0045C48.6425 45.3636 49 44.5045 49 43.5909C49 42.6773 48.6425 41.8182 47.9963 41.1773L37.3675 30.6364ZM47.02 45.0364C46.2362 45.8136 44.8888 45.8136 44.105 45.0364L33.875 34.8909V32H36.79L47.02 42.1455C47.405 42.5273 47.625 43.0455 47.625 43.5909C47.625 44.1364 47.405 44.6545 47.02 45.0364Z" fill="#FBD331"/>
</svg>
