<svg width="60" height="60" viewBox="0 0 60 60" fill="none" xmlns="http://www.w3.org/2000/svg">
<rect width="60" height="60" rx="30" fill="black"/>
<path d="M22.5 30.625H37.5C37.6658 30.625 37.8247 30.5592 37.9419 30.4419C38.0592 30.3247 38.125 30.1658 38.125 30C38.125 29.8342 38.0592 29.6753 37.9419 29.5581C37.8247 29.4408 37.6658 29.375 37.5 29.375H22.5C22.3342 29.375 22.1753 29.4408 22.0581 29.5581C21.9408 29.6753 21.875 29.8342 21.875 30C21.875 30.1658 21.9408 30.3247 22.0581 30.4419C22.1753 30.5592 22.3342 30.625 22.5 30.625Z" fill="white"/>
<path d="M30.625 37.5002L30.625 22.5002C30.625 22.3345 30.5592 22.1755 30.4419 22.0583C30.3247 21.9411 30.1658 21.8752 30 21.8752C29.8342 21.8752 29.6753 21.9411 29.5581 22.0583C29.4408 22.1755 29.375 22.3345 29.375 22.5002L29.375 37.5002C29.375 37.666 29.4408 37.825 29.5581 37.9422C29.6753 38.0594 29.8342 38.1252 30 38.1252C30.1658 38.1252 30.3247 38.0594 30.4419 37.9422C30.5592 37.825 30.625 37.666 30.625 37.5002Z" fill="white"/>
</svg>
