<svg width="64" height="65" viewBox="0 0 64 65" fill="none" xmlns="http://www.w3.org/2000/svg">
<rect y="0.5" width="64" height="64" rx="32" fill="black"/>
<path fill-rule="evenodd" clip-rule="evenodd" d="M39.9988 31.4859L39.9917 31.7398L39.9988 32.0084L39.9917 32.2644L39.9988 32.5309L39.7748 41.1551C39.7616 41.6741 39.5347 42.1711 39.1366 42.5535C38.7384 42.9359 38.1962 43.1776 37.6108 43.2335C33.8813 43.5888 30.1175 43.5888 26.388 43.2335C25.8024 43.1779 25.2599 42.9363 24.8615 42.5538C24.4631 42.1714 24.2361 41.6742 24.2228 41.1551L24 32.5309L24.0071 32.2623L24 32.0084L24.0071 31.7409L24 31.4859L24.1991 24.5462L24.2074 24.4093L24.2192 23.9265C24.234 23.3926 24.469 22.8818 24.8802 22.4898C25.2914 22.0977 25.8507 21.8514 26.4532 21.7968C26.5563 21.7864 26.6605 21.778 26.7636 21.7686C26.9061 21.7394 27.0506 21.7185 27.1962 21.7059C30.3908 21.4314 33.608 21.4314 36.8026 21.7059C36.9496 21.7195 37.0941 21.7404 37.234 21.7686L37.5457 21.7968C38.1479 21.8516 38.7069 22.0981 39.1179 22.4901C39.5289 22.8821 39.7637 23.3928 39.7784 23.9265L39.7914 24.4103C39.795 24.4553 39.7973 24.5002 39.7985 24.5462L39.9988 31.4859ZM36.7398 38.5395C36.9755 38.5395 37.2016 38.4569 37.3683 38.3099C37.535 38.163 37.6286 37.9636 37.6286 37.7558C37.6286 37.5479 37.535 37.3485 37.3683 37.2016C37.2016 37.0546 36.9755 36.972 36.7398 36.972H27.259C27.0233 36.972 26.7972 37.0546 26.6305 37.2016C26.4638 37.3485 26.3702 37.5479 26.3702 37.7558C26.3702 37.9636 26.4638 38.163 26.6305 38.3099C26.7972 38.4569 27.0233 38.5395 27.259 38.5395H36.7398ZM31.9994 42.6672C32.4709 42.6672 32.923 42.502 33.2564 42.208C33.5898 41.9141 33.7771 41.5154 33.7771 41.0997C33.7771 40.684 33.5898 40.2853 33.2564 39.9913C32.923 39.6974 32.4709 39.5322 31.9994 39.5322C31.5279 39.5322 31.0758 39.6974 30.7424 39.9913C30.409 40.2853 30.2218 40.684 30.2218 41.0997C30.2218 41.5154 30.409 41.9141 30.7424 42.208C31.0758 42.502 31.5279 42.6672 31.9994 42.6672Z" fill="#FBD331"/>
</svg>
