<svg width="64" height="64" viewBox="0 0 64 64" fill="none" xmlns="http://www.w3.org/2000/svg">
<rect width="64" height="64" rx="32" fill="black"/>
<path d="M26.6788 33.7857C26.8766 33.7857 27.0663 33.7048 27.2062 33.5608C27.3461 33.4168 27.4247 33.2215 27.4247 33.0179C27.4247 32.8142 27.3461 32.6189 27.2062 32.4749C27.0663 32.3309 26.8766 32.25 26.6788 32.25C26.4809 32.25 26.2912 32.3309 26.1513 32.4749C26.0114 32.6189 25.9329 32.8142 25.9329 33.0179C25.9329 33.2215 26.0114 33.4168 26.1513 33.5608C26.2912 33.7048 26.4809 33.7857 26.6788 33.7857Z" fill="#FBD331"/>
<path d="M25.9328 21.5H34.8838C36.0708 21.5 37.2092 21.9854 38.0485 22.8494C38.8878 23.7134 39.3593 24.8853 39.3593 26.1071V35.3214C39.3609 36.0568 39.1906 36.7818 38.863 37.4353C38.5353 38.0888 38.0598 38.6516 37.4766 39.0763C36.7202 39.6324 35.8134 39.9305 34.8838 39.9286H25.9328C25.2184 39.9302 24.5141 39.7549 23.8793 39.4176C23.2445 39.0803 22.6978 38.5909 22.2852 37.9905C21.7455 37.2115 21.456 36.2783 21.4573 35.3214V26.1071C21.4573 24.8853 21.9288 23.7134 22.7681 22.8494C23.6074 21.9854 24.7458 21.5 25.9328 21.5ZM25.1869 26.1071C24.989 26.1071 24.7993 26.188 24.6594 26.332C24.5195 26.476 24.441 26.6714 24.441 26.875C24.441 27.0786 24.5195 27.274 24.6594 27.418C24.7993 27.562 24.989 27.6429 25.1869 27.6429H35.6297C35.8276 27.6429 36.0173 27.562 36.1572 27.418C36.2971 27.274 36.3756 27.0786 36.3756 26.875C36.3756 26.6714 36.2971 26.476 36.1572 26.332C36.0173 26.188 35.8276 26.1071 35.6297 26.1071H25.1869ZM26.6787 35.3214C27.2722 35.3214 27.8414 35.0787 28.261 34.6467C28.6807 34.2147 28.9165 33.6288 28.9165 33.0179C28.9165 32.4069 28.6807 31.821 28.261 31.389C27.8414 30.957 27.2722 30.7143 26.6787 30.7143C26.0852 30.7143 25.516 30.957 25.0964 31.389C24.6767 31.821 24.441 32.4069 24.441 33.0179C24.441 33.6288 24.6767 34.2147 25.0964 34.6467C25.516 35.0787 26.0852 35.3214 26.6787 35.3214ZM31.1542 32.25C30.9564 32.25 30.7667 32.3309 30.6268 32.4749C30.4869 32.6189 30.4083 32.8142 30.4083 33.0179C30.4083 33.2215 30.4869 33.4168 30.6268 33.5608C30.7667 33.7048 30.9564 33.7857 31.1542 33.7857H35.6297C35.8276 33.7857 36.0173 33.7048 36.1572 33.5608C36.2971 33.4168 36.3756 33.2215 36.3756 33.0179C36.3756 32.8142 36.2971 32.6189 36.1572 32.4749C36.0173 32.3309 35.8276 32.25 35.6297 32.25H31.1542Z" fill="#FBD331"/>
<path d="M25.5806 41.4642C26.4011 42.4071 27.5916 42.9999 28.9163 42.9999H35.6296C37.41 42.9999 39.1176 42.2718 40.3766 40.9758C41.6356 39.6798 42.3428 37.922 42.3428 36.0892V29.1785C42.3428 27.8148 41.767 26.5877 40.851 25.7446V36.0892C40.851 37.5147 40.3009 38.8819 39.3217 39.8899C38.3425 40.8979 37.0144 41.4642 35.6296 41.4642H25.5806Z" fill="#FBD331"/>
</svg>
