<svg width="181" height="38" viewBox="0 0 181 38" fill="none" xmlns="http://www.w3.org/2000/svg">
<path d="M59.3082 21.5692L54.819 15.1861H52.9602V21.5692H46.9629V0.385742H57.1337C61.8684 0.385742 65.2353 3.43699 65.2353 7.7859C65.2353 10.8021 63.622 13.187 61.0267 14.3794L66.0771 21.5692H59.3082ZM52.9952 9.74991H56.6778C58.0807 9.74991 59.1328 8.9082 59.1328 7.7859C59.1328 6.6636 58.1157 5.82188 56.6778 5.82188H52.9952V9.74991Z" fill="white"/>
<path d="M74.4939 5.71665V8.10155H84.5946V13.4325H74.4939V16.2382H85.5766V21.5692H68.4966V0.385742H85.5766V5.71665H74.4939Z" fill="white"/>
<path d="M88.6284 0.350586H94.6257L102.903 11.7139V0.350586H108.9V21.534H102.903L94.6257 10.1707V21.534H88.6284V0.350586Z" fill="white"/>
<path d="M111.775 10.9424C111.775 4.98019 117.036 0 123.314 0C129.592 0 134.853 5.01526 134.853 10.9424C134.853 16.8696 129.592 21.9199 123.314 21.9199C117.036 21.9199 111.775 16.9046 111.775 10.9424ZM128.68 10.9424C128.68 7.9613 126.225 5.40108 123.314 5.40108C120.403 5.40108 117.948 7.92622 117.948 10.9424C117.948 13.9586 120.403 16.4838 123.314 16.4838C126.225 16.4838 128.68 13.9586 128.68 10.9424Z" fill="#FBD331"/>
<path d="M158.947 0.350586L150.811 21.534H144.042L135.905 0.350586H142.674L147.444 12.766L152.214 0.350586H158.947Z" fill="white"/>
<path d="M171.608 18.7283H164.243L163.156 21.5692H156.387L164.524 0.385742H171.293L179.429 21.5692H172.661L171.608 18.7283ZM169.89 14.3093L167.926 9.15371L165.927 14.3093H169.89Z" fill="white"/>
<path fill-rule="evenodd" clip-rule="evenodd" d="M4 0.315674H40.8252V15.7499L32.4083 24.4919L31.1452 23.2758L39.0719 15.043V2.06902H5.75335V35.3875H39.0719V27.2858H40.8252V37.1409H4V0.315674Z" fill="white"/>
<path fill-rule="evenodd" clip-rule="evenodd" d="M40.649 14.6691C41.0507 15.0559 41.0628 15.6951 40.676 16.0969L32.5043 24.5842C32.1175 24.986 31.4782 24.9981 31.0765 24.6113C30.6748 24.2245 30.6626 23.5852 31.0494 23.1835L39.2212 14.6961C39.608 14.2944 40.2472 14.2823 40.649 14.6691Z" fill="#FBD331"/>
<path d="M176.88 36.4467V28.922H174.044V28.0137H180.673V28.922H177.837V36.4467H176.88Z" fill="white"/>
<path d="M164.97 36.4467V28.0137H165.927L171.156 34.8755V28.0137H172.114V36.4467H171.156L165.927 29.5849V36.4467H164.97Z" fill="white"/>
<path d="M162.981 28.922H157.899V31.6962H162.478V32.6046H157.899V35.5383H162.981V36.4467H156.929V28.0137H162.981V28.922Z" fill="white"/>
<path d="M146.468 36.4467V28.0137H147.425L150.555 33.8935L153.686 28.0137H154.643V36.4467H153.686V30.0759L150.555 35.9557L147.425 30.0759V36.4467H146.468Z" fill="white"/>
<path d="M144.479 28.922H139.397V31.6962H143.976V32.6046H139.397V35.5383H144.479V36.4467H138.427V28.0137H144.479V28.922Z" fill="white"/>
<path d="M135.749 28.0137H136.792L133.073 36.4467H132.029L128.31 28.0137H129.353L132.557 35.2683L135.749 28.0137Z" fill="white"/>
<path d="M123.34 36.5938C121.008 36.5938 119.02 34.593 119.02 32.2239C119.02 29.8548 121.008 27.8662 123.34 27.8662C125.685 27.8662 127.649 29.8548 127.649 32.2239C127.649 34.593 125.685 36.5938 123.34 36.5938ZM123.34 35.71C125.157 35.71 126.679 34.1143 126.679 32.2239C126.679 30.3458 125.157 28.75 123.34 28.75C121.524 28.75 119.989 30.3458 119.989 32.2239C119.989 34.1143 121.524 35.71 123.34 35.71Z" fill="white"/>
<path d="M117.469 30.7142C117.469 32.1504 116.352 33.2061 114.842 33.3902L116.99 36.4467H115.898L113.762 33.4147H111.896V36.4467H110.938V28.0137H114.363C116.106 28.0137 117.469 29.1307 117.469 30.7142ZM111.896 28.922V32.5064H114.191C115.566 32.5064 116.499 31.8435 116.499 30.7142C116.499 29.5849 115.566 28.922 114.191 28.922H111.896Z" fill="white"/>
<path d="M102.442 36.4467V28.0137H105.867C107.61 28.0137 108.973 29.1307 108.973 30.7142C108.973 32.2977 107.61 33.4147 105.867 33.4147H103.4V36.4467H102.442ZM103.4 32.5064H105.695C107.07 32.5064 108.003 31.8435 108.003 30.7142C108.003 29.5849 107.07 28.922 105.695 28.922H103.4V32.5064Z" fill="white"/>
<path d="M91.9805 36.4467V28.0137H92.9379L96.0681 33.8935L99.1983 28.0137H100.156V36.4467H99.1983V30.0759L96.0681 35.9557L92.9379 30.0759V36.4467H91.9805Z" fill="white"/>
<path d="M88.7358 36.4467V28.0137H89.6933V36.4467H88.7358Z" fill="white"/>
<path d="M82.9979 28.922H77.916V31.6962H82.4947V32.6046H77.916V35.5383H82.9979V36.4467H76.9463V28.0137H82.9979V28.922Z" fill="white"/>
<path d="M66.4849 36.4467V28.0137H67.4423L70.5725 33.8935L73.7027 28.0137H74.6601V36.4467H73.7027V30.0759L70.5725 35.9557L67.4423 30.0759V36.4467H66.4849Z" fill="white"/>
<path d="M60.1934 36.5938C57.8611 36.5938 55.8726 34.593 55.8726 32.2239C55.8726 29.8548 57.8611 27.8662 60.1934 27.8662C62.538 27.8662 64.502 29.8548 64.502 32.2239C64.502 34.593 62.538 36.5938 60.1934 36.5938ZM60.1934 35.71C62.0101 35.71 63.5323 34.1143 63.5323 32.2239C63.5323 30.3458 62.0101 28.75 60.1934 28.75C58.3767 28.75 56.8423 30.3458 56.8423 32.2239C56.8423 34.1143 58.3767 35.71 60.1934 35.71Z" fill="white"/>
<path d="M52.9289 28.0137H53.8864V36.4467H52.9289V32.6046H47.9575V36.4467H47V28.0137H47.9575V31.6962H52.9289V28.0137Z" fill="white"/>
</svg>
