<svg width="26" height="26" viewBox="0 0 26 26" fill="none" xmlns="http://www.w3.org/2000/svg">
<path d="M17.9107 3.42944C15.8826 3.42944 14.1069 4.30159 13 5.77578C11.8931 4.30159 10.1174 3.42944 8.08929 3.42944C6.47487 3.43126 4.92709 4.0734 3.78552 5.21496C2.64395 6.35653 2.00182 7.90431 2 9.51873C2 16.3937 12.1937 21.9586 12.6278 22.1884C12.7422 22.2499 12.8701 22.2821 13 22.2821C13.1299 22.2821 13.2578 22.2499 13.3722 22.1884C13.8063 21.9586 24 16.3937 24 9.51873C23.9982 7.90431 23.356 6.35653 22.2145 5.21496C21.0729 4.0734 19.5251 3.43126 17.9107 3.42944ZM13 20.5973C11.2066 19.5523 3.57143 14.7919 3.57143 9.51873C3.57299 8.321 4.04948 7.17277 4.8964 6.32584C5.74333 5.47892 6.89155 5.00243 8.08929 5.00087C9.99955 5.00087 11.6034 6.01837 12.2732 7.65266C12.3324 7.79677 12.4331 7.92002 12.5625 8.00677C12.6919 8.09351 12.8442 8.13983 13 8.13983C13.1558 8.13983 13.3081 8.09351 13.4375 8.00677C13.5669 7.92002 13.6676 7.79677 13.7268 7.65266C14.3966 6.01543 16.0004 5.00087 17.9107 5.00087C19.1084 5.00243 20.2567 5.47892 21.1036 6.32584C21.9505 7.17277 22.427 8.321 22.4286 9.51873C22.4286 14.784 14.7914 19.5513 13 20.5973Z" fill="white"/>
</svg>
