<svg width="58" height="58" viewBox="0 0 58 58" fill="none" xmlns="http://www.w3.org/2000/svg">
<rect y="-0.000488281" width="58" height="58" rx="29" fill="black"/>
<path d="M29 26.562C28.3535 26.562 27.7335 26.8188 27.2764 27.2759C26.8193 27.7331 26.5625 28.353 26.5625 28.9995C26.5625 29.646 26.8193 30.266 27.2764 30.7231C27.7335 31.1802 28.3535 31.437 29 31.437C29.6465 31.437 30.2665 31.1802 30.7236 30.7231C31.1807 30.266 31.4375 29.646 31.4375 28.9995C31.4375 28.353 31.1807 27.7331 30.7236 27.2759C30.2665 26.8188 29.6465 26.562 29 26.562Z" fill="#FBD331"/>
<path fill-rule="evenodd" clip-rule="evenodd" d="M25.0776 22.311C27.6846 22.022 30.3156 22.022 32.9226 22.311C34.3469 22.47 35.4951 23.5912 35.6624 25.0207C35.9715 27.6642 35.9715 30.3347 35.6624 32.9782C35.4951 34.4077 34.3469 35.529 32.9234 35.6887C30.3161 35.9778 27.6849 35.9778 25.0776 35.6887C23.6534 35.529 22.5051 34.4077 22.3379 32.979C22.0287 30.3352 22.0287 27.6645 22.3379 25.0207C22.5051 23.5912 23.6534 22.47 25.0776 22.311ZM32.7501 24.4995C32.5512 24.4995 32.3604 24.5785 32.2198 24.7191C32.0791 24.8598 32.0001 25.0506 32.0001 25.2495C32.0001 25.4484 32.0791 25.6391 32.2198 25.7798C32.3604 25.9205 32.5512 25.9995 32.7501 25.9995C32.949 25.9995 33.1398 25.9205 33.2804 25.7798C33.4211 25.6391 33.5001 25.4484 33.5001 25.2495C33.5001 25.0506 33.4211 24.8598 33.2804 24.7191C33.1398 24.5785 32.949 24.4995 32.7501 24.4995ZM25.4376 28.9995C25.4376 28.0546 25.8129 27.1485 26.481 26.4804C27.1491 25.8123 28.0553 25.437 29.0001 25.437C29.9449 25.437 30.8511 25.8123 31.5192 26.4804C32.1873 27.1485 32.5626 28.0546 32.5626 28.9995C32.5626 29.9443 32.1873 30.8504 31.5192 31.5185C30.8511 32.1866 29.9449 32.562 29.0001 32.562C28.0553 32.562 27.1491 32.1866 26.481 31.5185C25.8129 30.8504 25.4376 29.9443 25.4376 28.9995Z" fill="#FBD331"/>
</svg>
