<svg width="64" height="65" viewBox="0 0 64 65" fill="none" xmlns="http://www.w3.org/2000/svg">
<rect y="0.5" width="64" height="64" rx="32" fill="black"/>
<path d="M39.4246 25.0754C38.4513 24.0925 37.2934 23.3116 36.0175 22.7775C34.7415 22.2435 33.3726 21.9668 31.9893 21.9634C30.6061 21.96 29.2359 22.2299 27.9573 22.7577C26.6787 23.2855 25.517 24.0607 24.5389 25.0388C23.5608 26.0168 22.7856 27.1786 22.2578 28.4571C21.7301 29.7357 21.4601 31.106 21.4635 32.4892C21.4669 33.8724 21.7436 35.2414 22.2777 36.5173C22.8117 37.7933 23.5926 38.9512 24.5755 39.9245C25.5488 40.9074 26.7067 41.6883 27.9826 42.2223C29.2586 42.7564 30.6275 43.033 32.0108 43.0364C33.394 43.0398 34.7642 42.7699 36.0428 42.2421C37.3214 41.7144 38.4831 40.9392 39.4612 39.9611C40.4393 38.983 41.2145 37.8213 41.7423 36.5427C42.27 35.2641 42.54 33.8939 42.5366 32.5106C42.5332 31.1274 42.2565 29.7585 41.7224 28.4825C41.1884 27.2065 40.4075 26.0487 39.4246 25.0754ZM28.625 30.2499C28.8476 30.2499 29.0651 30.3159 29.2501 30.4395C29.4351 30.5631 29.5793 30.7388 29.6644 30.9444C29.7496 31.15 29.7718 31.3762 29.7284 31.5944C29.685 31.8126 29.5779 32.0131 29.4205 32.1704C29.2632 32.3278 29.0628 32.4349 28.8445 32.4783C28.6263 32.5217 28.4001 32.4994 28.1945 32.4143C27.989 32.3291 27.8133 32.1849 27.6896 31.9999C27.566 31.8149 27.5 31.5974 27.5 31.3749C27.4997 31.2271 27.5285 31.0806 27.5849 30.944C27.6413 30.8073 27.7242 30.6831 27.8287 30.5786C27.9333 30.4741 28.0574 30.3912 28.1941 30.3348C28.3307 30.2784 28.4772 30.2496 28.625 30.2499ZM36.4846 35.2266C35.9221 37.1157 34.1315 38.4999 32.0024 38.4999C29.8733 38.4999 28.0827 37.1157 27.5155 35.2266C27.4997 35.1704 27.4972 35.1112 27.5082 35.0538C27.5193 34.9964 27.5437 34.9424 27.5793 34.8961C27.615 34.8498 27.661 34.8125 27.7136 34.7871C27.7663 34.7617 27.8241 34.749 27.8825 34.7499H36.118C36.1764 34.749 36.2342 34.7618 36.2868 34.7872C36.3394 34.8127 36.3853 34.85 36.4209 34.8963C36.4565 34.9426 36.4808 34.9966 36.4919 35.0539C36.5029 35.1113 36.5004 35.1704 36.4846 35.2266ZM35.375 32.4999C35.1525 32.4999 34.935 32.4339 34.75 32.3103C34.565 32.1867 34.4208 32.011 34.3357 31.8054C34.2505 31.5999 34.2283 31.3737 34.2717 31.1554C34.3151 30.9372 34.4222 30.7368 34.5796 30.5794C34.7369 30.4221 34.9373 30.315 35.1556 30.2715C35.3738 30.2281 35.6 30.2504 35.8056 30.3356C36.0111 30.4207 36.1868 30.5649 36.3105 30.7499C36.4341 30.9349 36.5 31.1524 36.5 31.3749C36.5004 31.5228 36.4716 31.6692 36.4152 31.8059C36.3588 31.9425 36.2759 32.0667 36.1714 32.1712C36.0668 32.2758 35.9427 32.3586 35.806 32.415C35.6693 32.4715 35.5229 32.5003 35.375 32.4999Z" fill="#FBD331"/>
</svg>
