<svg width="58" height="58" viewBox="0 0 58 58" fill="none" xmlns="http://www.w3.org/2000/svg">
<rect y="-0.000488281" width="58" height="58" rx="29" fill="black"/>
<path d="M26 22.2495C26 23.046 25.4675 23.7315 24.4993 23.7315C23.588 23.7315 23 23.085 23 22.2885C23 21.471 23.57 20.7495 24.5 20.7495C25.43 20.7495 25.982 21.432 26 22.2495ZM23 34.2495V24.4995H26V34.2495H23Z" fill="#FBD331"/>
<path d="M26.8322 27.7241C26.8322 26.5458 26.7911 25.5612 26.75 24.7108H29.6455L29.7889 26.0249H29.8501C30.2578 25.4063 31.2568 24.4995 32.9294 24.4995C34.9693 24.4995 36.5 25.7922 36.5 28.5737V34.2495H33.2774V29.0168C33.2774 27.8011 32.7884 26.8737 31.6661 26.8737C30.8105 26.8737 30.3819 27.5296 30.1571 28.0703C30.0749 28.2641 30.0548 28.534 30.0548 28.8048V34.2495H26.8322V27.7241Z" fill="#FBD331"/>
</svg>
