<svg width="146" height="159" viewBox="0 0 146 159" fill="none" xmlns="http://www.w3.org/2000/svg">
<path fill-rule="evenodd" clip-rule="evenodd" d="M0 0H145.597V59.3667L111.773 94.4662L110.812 93.5394L144.261 58.8279V1.33569H1.33569V144.261H144.261V108.03H145.597V145.597H0V0Z" fill="white"/>
<path fill-rule="evenodd" clip-rule="evenodd" d="M145.282 58.345C145.691 58.7352 145.703 59.3797 145.309 59.7846L111.637 94.371C111.243 94.7759 110.592 94.7878 110.183 94.3977C109.773 94.0075 109.761 93.363 110.156 92.9581L143.828 58.3717C144.222 57.9668 144.873 57.9549 145.282 58.345Z" fill="#FBD331"/>
<path d="M136.814 158.853V151.305H133.97V150.394H140.619V151.305H137.775V158.853H136.814Z" fill="white"/>
<path d="M124.868 158.853V150.394H125.829L131.074 157.277V150.394H132.034V158.853H131.074L125.829 151.97V158.853H124.868Z" fill="white"/>
<path d="M122.873 151.305H117.776V154.088H122.368V154.999H117.776V157.941H122.873V158.853H116.803V150.394H122.873V151.305Z" fill="white"/>
<path d="M106.31 158.853V150.394H107.27L110.41 156.292L113.55 150.394H114.51V158.853H113.55V152.462L110.41 158.36L107.27 152.462V158.853H106.31Z" fill="white"/>
<path d="M104.316 151.305H99.2188V154.088H103.811V154.999H99.2188V157.941H104.316V158.853H98.2461V150.394H104.316V151.305Z" fill="white"/>
<path d="M95.5589 150.394H96.6054L92.8748 158.853H91.8283L88.0977 150.394H89.1442L92.3577 157.671L95.5589 150.394Z" fill="white"/>
<path d="M83.1132 159C80.7739 159 78.7793 156.993 78.7793 154.617C78.7793 152.241 80.7739 150.246 83.1132 150.246C85.4648 150.246 87.4348 152.241 87.4348 154.617C87.4348 156.993 85.4648 159 83.1132 159ZM83.1132 158.114C84.9354 158.114 86.4621 156.513 86.4621 154.617C86.4621 152.733 84.9354 151.133 83.1132 151.133C81.291 151.133 79.752 152.733 79.752 154.617C79.752 156.513 81.291 158.114 83.1132 158.114Z" fill="white"/>
<path d="M77.2239 153.103C77.2239 154.543 76.1035 155.602 74.5891 155.787L76.7438 158.853H75.648L73.5056 155.811H71.6342V158.853H70.6738V150.394H74.1089C75.8573 150.394 77.2239 151.514 77.2239 153.103ZM71.6342 151.305V154.9H73.9366C75.3155 154.9 76.2513 154.235 76.2513 153.103C76.2513 151.97 75.3155 151.305 73.9366 151.305H71.6342Z" fill="white"/>
<path d="M62.1523 158.853V150.394H65.5875C67.3358 150.394 68.7025 151.514 68.7025 153.103C68.7025 154.691 67.3358 155.811 65.5875 155.811H63.1127V158.853H62.1523ZM63.1127 154.9H65.4151C66.7941 154.9 67.7298 154.235 67.7298 153.103C67.7298 151.97 66.7941 151.305 65.4151 151.305H63.1127V154.9Z" fill="white"/>
<path d="M51.6587 158.853V150.394H52.619L55.7587 156.292L58.8983 150.394H59.8586V158.853H58.8983V152.462L55.7587 158.36L52.619 152.462V158.853H51.6587Z" fill="white"/>
<path d="M48.4038 158.853V150.394H49.3642V158.853H48.4038Z" fill="white"/>
<path d="M42.6495 151.305H37.5523V154.088H42.1447V154.999H37.5523V157.941H42.6495V158.853H36.5796V150.394H42.6495V151.305Z" fill="white"/>
<path d="M26.0859 158.853V150.394H27.0463L30.1859 156.292L33.3255 150.394H34.2859V158.853H33.3255V152.462L30.1859 158.36L27.0463 152.462V158.853H26.0859Z" fill="white"/>
<path d="M19.7753 159C17.436 159 15.4414 156.993 15.4414 154.617C15.4414 152.241 17.436 150.246 19.7753 150.246C22.127 150.246 24.0969 152.241 24.0969 154.617C24.0969 156.993 22.127 159 19.7753 159ZM19.7753 158.114C21.5975 158.114 23.1242 156.513 23.1242 154.617C23.1242 152.733 21.5975 151.133 19.7753 151.133C17.9531 151.133 16.4141 152.733 16.4141 154.617C16.4141 156.513 17.9531 158.114 19.7753 158.114Z" fill="white"/>
<path d="M12.4893 150.394H13.4496V158.853H12.4893V154.999H7.50284V158.853H6.54248V150.394H7.50284V154.088H12.4893V150.394Z" fill="white"/>
<path d="M78.4173 15.8639H57.6168V20.3253H76.5632V30.3489H57.6168V35.6215H78.4173V45.6451H46.3765V5.84033H78.4173V15.8639Z" fill="white"/>
<path d="M41.2032 45.6451H28.3985L19.9972 33.6515H17.274V45.6451H6.03369V5.84033H25.0959C34.0187 5.84033 40.3341 11.5764 40.3341 19.7459C40.3341 25.6558 37.0316 30.2331 31.8749 32.3768L41.2032 45.6451ZM17.274 16.0378V23.4541H24.1689C26.8341 23.4541 28.7462 21.8897 28.7462 19.7459C28.7462 17.6021 26.8341 16.0378 24.1689 16.0378H17.274Z" fill="white"/>
<path d="M70.9313 93.4165C59.1695 93.4165 49.2617 83.9723 49.2617 72.7899C49.2617 61.6075 59.1695 52.2212 70.9313 52.2212C82.6931 52.2212 92.6008 61.6075 92.6008 72.7899C92.6008 83.9723 82.6931 93.4165 70.9313 93.4165ZM70.9313 83.2191C76.3776 83.2191 81.0128 78.468 81.0128 72.7899C81.0128 67.1697 76.3776 62.4186 70.9313 62.4186C65.4849 62.4186 60.8497 67.1697 60.8497 72.7899C60.8497 78.468 65.4849 83.2191 70.9313 83.2191Z" fill="#FBD331"/>
<path d="M6.03369 92.7208V52.916H17.274L32.8019 74.2379V52.916H44.0423V92.7208H32.8019L17.274 71.3989V92.7208H6.03369Z" fill="white"/>
<path d="M73.1021 139.435L71.0742 134.105H57.2265L55.1986 139.435H42.5098L57.8059 99.6304H70.4948L85.7909 139.435H73.1021ZM60.4132 125.819H67.8875L64.1793 116.143L60.4132 125.819Z" fill="white"/>
<path d="M34.3667 99.6304H47.0556L31.7594 139.435H19.0706L3.77441 99.6304H16.4633L25.444 122.922L34.3667 99.6304Z" fill="white"/>
</svg>
