<svg width="43" height="43" viewBox="0 0 43 43" fill="none" xmlns="http://www.w3.org/2000/svg">
<rect width="43" height="43" rx="21.5" fill="black"/>
<path d="M26.7418 12C24.7136 12 22.9379 12.879 21.8311 14.3647C20.7242 12.879 18.9485 12 16.9203 12C15.3059 12.0018 13.7581 12.649 12.6166 13.7995C11.475 14.95 10.8329 16.5098 10.8311 18.1369C10.8311 25.0656 21.0247 30.6739 21.4588 30.9055C21.5732 30.9675 21.7011 31 21.8311 31C21.961 31 22.0889 30.9675 22.2033 30.9055C22.6374 30.6739 32.8311 25.0656 32.8311 18.1369C32.8292 16.5098 32.1871 14.95 31.0455 13.7995C29.904 12.649 28.3562 12.0018 26.7418 12ZM21.8311 29.302C20.0377 28.2488 12.4025 23.4512 12.4025 18.1369C12.404 16.9298 12.8805 15.7726 13.7275 14.919C14.5744 14.0655 15.7226 13.5853 16.9203 13.5837C18.8306 13.5837 20.4344 14.6092 21.1043 16.2562C21.1635 16.4014 21.2642 16.5257 21.3936 16.6131C21.523 16.7005 21.6753 16.7472 21.8311 16.7472C21.9868 16.7472 22.1391 16.7005 22.2685 16.6131C22.3979 16.5257 22.4986 16.4014 22.5578 16.2562C23.2277 14.6062 24.8315 13.5837 26.7418 13.5837C27.9395 13.5853 29.0877 14.0655 29.9347 14.919C30.7816 15.7726 31.2581 16.9298 31.2596 18.1369C31.2596 23.4433 23.6225 28.2478 21.8311 29.302Z" fill="#FBD331"/>
</svg>
