<svg width="64" height="65" viewBox="0 0 64 65" fill="none" xmlns="http://www.w3.org/2000/svg">
<rect y="0.5" width="64" height="64" rx="32" fill="black"/>
<g clip-path="url(#clip0_1250_1676)">
<path d="M39.1875 30.75C39.9382 30.75 40.6436 30.9508 41.25 31.3014V29.375H35.75V32.5939C36.1261 32.0265 36.6369 31.5612 37.2368 31.2394C37.8366 30.9177 38.5068 30.7495 39.1875 30.75ZM33 37.625C33 37.1245 33.1334 36.6543 33.3685 36.25H28.875V41.75H33V37.625ZM34.375 34.875H28.875V29.375H34.375V34.875ZM27.5 34.875V29.375H22V34.875H27.5ZM22 36.25H27.5V41.75H25.4375C24.5258 41.75 23.6515 41.3878 23.0068 40.7432C22.3622 40.0985 22 39.2242 22 38.3125V36.25ZM35.75 28H41.25V25.9375C41.25 25.0258 40.8878 24.1515 40.2432 23.5068C39.5985 22.8622 38.7242 22.5 37.8125 22.5H35.75V28ZM34.375 22.5V28H28.875V22.5H34.375ZM27.5 22.5V28H22V25.9375C22 25.0258 22.3622 24.1515 23.0068 23.5068C23.6515 22.8622 24.5258 22.5 25.4375 22.5H27.5ZM36.4375 34.875V36.25H35.75C35.3853 36.25 35.0356 36.3949 34.7777 36.6527C34.5199 36.9106 34.375 37.2603 34.375 37.625V43.125C34.375 43.4897 34.5199 43.8394 34.7777 44.0973C35.0356 44.3551 35.3853 44.5 35.75 44.5H42.625C42.9897 44.5 43.3394 44.3551 43.5973 44.0973C43.8551 43.8394 44 43.4897 44 43.125V37.625C44 37.2603 43.8551 36.9106 43.5973 36.6527C43.3394 36.3949 42.9897 36.25 42.625 36.25H41.9375V34.875C41.9375 34.1457 41.6478 33.4462 41.132 32.9305C40.6163 32.4147 39.9168 32.125 39.1875 32.125C38.4582 32.125 37.7587 32.4147 37.243 32.9305C36.7272 33.4462 36.4375 34.1457 36.4375 34.875ZM37.8125 36.25V34.875C37.8125 34.5103 37.9574 34.1606 38.2152 33.9027C38.4731 33.6449 38.8228 33.5 39.1875 33.5C39.5522 33.5 39.9019 33.6449 40.1598 33.9027C40.4176 34.1606 40.5625 34.5103 40.5625 34.875V36.25H37.8125ZM39.1875 39.3438C39.461 39.3438 39.7233 39.4524 39.9167 39.6458C40.1101 39.8392 40.2188 40.1015 40.2188 40.375C40.2188 40.6485 40.1101 40.9108 39.9167 41.1042C39.7233 41.2976 39.461 41.4062 39.1875 41.4062C38.914 41.4062 38.6517 41.2976 38.4583 41.1042C38.2649 40.9108 38.1562 40.6485 38.1562 40.375C38.1562 40.1015 38.2649 39.8392 38.4583 39.6458C38.6517 39.4524 38.914 39.3438 39.1875 39.3438Z" fill="#FBD331"/>
</g>
<defs>
<clipPath id="clip0_1250_1676">
<rect width="24" height="24" fill="white" transform="translate(20 20.5)"/>
</clipPath>
</defs>
</svg>
