<svg width="24" height="23" viewBox="0 0 24 23" fill="none" xmlns="http://www.w3.org/2000/svg">
<circle cx="11" cy="11.5" r="11" fill="black"/>
<path d="M23.6842 5.15047L11.8092 17.0255C11.7048 17.1297 11.5633 17.1883 11.4158 17.1883C11.2683 17.1883 11.1268 17.1297 11.0224 17.0255L5.82713 11.8302C5.72881 11.7246 5.67528 11.5851 5.67782 11.4409C5.68037 11.2967 5.73878 11.1591 5.84077 11.0571C5.94276 10.9551 6.08035 10.8967 6.22456 10.8941C6.36876 10.8916 6.50833 10.9451 6.61385 11.0434L11.4158 15.8445L22.8974 4.36375C23.003 4.26543 23.1425 4.2119 23.2867 4.21444C23.4309 4.21699 23.5685 4.27541 23.6705 4.37739C23.7725 4.47938 23.8309 4.61697 23.8335 4.76118C23.836 4.90538 23.7825 5.04495 23.6842 5.15047Z" fill="#FBD331"/>
</svg>
